0
SECTION
2
HEADER
0
ENDSEC
0
SECTION
2
TABLES
0
ENDSEC
0
SECTION
2
BLOCKS
0
ENDSEC
0
SECTION
2
ENTITIES
0
POLYLINE
8
0
66
1
0
VERTEX
8
0
10
-1.128750
20
0.246458
0
VERTEX
8
0
10
-1.127292
20
0.247917
0
VERTEX
8
0
10
-1.127292
20
0.249375
0
VERTEX
8
0
10
-1.127292
20
0.250833
0
VERTEX
8
0
10
-1.127292
20
0.252292
0
VERTEX
8
0
10
-1.127292
20
0.253750
0
VERTEX
8
0
10
-1.125833
20
0.255208
0
VERTEX
8
0
10
-1.125833
20
0.256667
0
VERTEX
8
0
10
-1.125833
20
0.258125
0
VERTEX
8
0
10
-1.124375
20
0.259583
0
VERTEX
8
0
10
-1.124375
20
0.261042
0
VERTEX
8
0
10
-1.124375
20
0.262500
0
VERTEX
8
0
10
-1.122917
20
0.263958
0
VERTEX
8
0
10
-1.122917
20
0.265417
0
VERTEX
8
0
10
-1.122917
20
0.266875
0
VERTEX
8
0
10
-1.121458
20
0.268333
0
VERTEX
8
0
10
-1.121458
20
0.269792
0
VERTEX
8
0
10
-1.120000
20
0.271250
0
VERTEX
8
0
10
-1.120000
20
0.272708
0
VERTEX
8
0
10
-1.118542
20
0.274167
0
VERTEX
8
0
10
-1.118542
20
0.275625
0
VERTEX
8
0
10
-1.117083
20
0.277083
0
VERTEX
8
0
10
-1.117083
20
0.278542
0
VERTEX
8
0
10
-1.115625
20
0.280000
0
VERTEX
8
0
10
-1.115625
20
0.281458
0
VERTEX
8
0
10
-1.114167
20
0.282917
0
VERTEX
8
0
10
-1.112708
20
0.284375
0
VERTEX
8
0
10
-1.112708
20
0.285833
0
VERTEX
8
0
10
-1.111250
20
0.287292
0
VERTEX
8
0
10
-1.111250
20
0.288750
0
VERTEX
8
0
10
-1.109792
20
0.290208
0
VERTEX
8
0
10
-1.108333
20
0.291667
0
VERTEX
8
0
10
-1.108333
20
0.293125
0
VERTEX
8
0
10
-1.106875
20
0.294583
0
VERTEX
8
0
10
-1.106875
20
0.296042
0
VERTEX
8
0
10
-1.105417
20
0.297500
0
VERTEX
8
0
10
-1.105417
20
0.298958
0
VERTEX
8
0
10
-1.103958
20
0.300417
0
VERTEX
8
0
10
-1.102500
20
0.301875
0
VERTEX
8
0
10
-1.102500
20
0.303333
0
VERTEX
8
0
10
-1.101042
20
0.304792
0
VERTEX
8
0
10
-1.101042
20
0.306250
0
VERTEX
8
0
10
-1.099583
20
0.307708
0
VERTEX
8
0
10
-1.099583
20
0.309167
0
VERTEX
8
0
10
-1.098125
20
0.310625
0
VERTEX
8
0
10
-1.098125
20
0.312083
0
VERTEX
8
0
10
-1.096667
20
0.313542
0
VERTEX
8
0
10
-1.096667
20
0.315000
0
VERTEX
8
0
10
-1.095208
20
0.316458
0
VERTEX
8
0
10
-1.095208
20
0.317917
0
VERTEX
8
0
10
-1.093750
20
0.319375
0
VERTEX
8
0
10
-1.093750
20
0.320833
0
VERTEX
8
0
10
-1.093750
20
0.322292
0
VERTEX
8
0
10
-1.092292
20
0.323750
0
VERTEX
8
0
10
-1.092292
20
0.325208
0
VERTEX
8
0
10
-1.090833
20
0.326667
0
VERTEX
8
0
10
-1.090833
20
0.328125
0
VERTEX
8
0
10
-1.090833
20
0.329583
0
VERTEX
8
0
10
-1.089375
20
0.331042
0
VERTEX
8
0
10
-1.089375
20
0.332500
0
VERTEX
8
0
10
-1.089375
20
0.333958
0
VERTEX
8
0
10
-1.089375
20
0.335417
0
VERTEX
8
0
10
-1.087917
20
0.336875
0
VERTEX
8
0
10
-1.087917
20
0.338333
0
VERTEX
8
0
10
-1.087917
20
0.339792
0
VERTEX
8
0
10
-1.087917
20
0.341250
0
VERTEX
8
0
10
-1.087917
20
0.342708
0
VERTEX
8
0
10
-1.086458
20
0.344167
0
VERTEX
8
0
10
-1.086458
20
0.345625
0
VERTEX
8
0
10
-1.086458
20
0.347083
0
VERTEX
8
0
10
-1.086458
20
0.348542
0
VERTEX
8
0
10
-1.086458
20
0.350000
0
VERTEX
8
0
10
-1.086458
20
0.351458
0
VERTEX
8
0
10
-1.086458
20
0.352917
0
VERTEX
8
0
10
-1.086458
20
0.354375
0
VERTEX
8
0
10
-1.086458
20
0.355833
0
VERTEX
8
0
10
-1.086458
20
0.357292
0
VERTEX
8
0
10
-1.086458
20
0.358750
0
VERTEX
8
0
10
-1.085000
20
0.360208
0
VERTEX
8
0
10
-1.085000
20
0.361667
0
VERTEX
8
0
10
-1.085000
20
0.363125
0
VERTEX
8
0
10
-1.085000
20
0.364583
0
VERTEX
8
0
10
-1.085000
20
0.366042
0
VERTEX
8
0
10
-1.085000
20
0.367500
0
VERTEX
8
0
10
-1.085000
20
0.368958
0
VERTEX
8
0
10
-1.085000
20
0.370417
0
VERTEX
8
0
10
-1.085000
20
0.371875
0
VERTEX
8
0
10
-1.085000
20
0.373333
0
VERTEX
8
0
10
-1.085000
20
0.374792
0
VERTEX
8
0
10
-1.085000
20
0.376250
0
VERTEX
8
0
10
-1.085000
20
0.377708
0
VERTEX
8
0
10
-1.085000
20
0.379167
0
VERTEX
8
0
10
-1.085000
20
0.380625
0
VERTEX
8
0
10
-1.085000
20
0.382083
0
VERTEX
8
0
10
-1.085000
20
0.383542
0
VERTEX
8
0
10
-1.085000
20
0.385000
0
VERTEX
8
0
10
-1.085000
20
0.386458
0
VERTEX
8
0
10
-1.086458
20
0.387917
0
VERTEX
8
0
10
-1.086458
20
0.389375
0
VERTEX
8
0
10
-1.086458
20
0.390833
0
VERTEX
8
0
10
-1.086458
20
0.392292
0
VERTEX
8
0
10
-1.086458
20
0.393750
0
VERTEX
8
0
10
-1.086458
20
0.395208
0
VERTEX
8
0
10
-1.086458
20
0.396667
0
VERTEX
8
0
10
-1.086458
20
0.398125
0
VERTEX
8
0
10
-1.086458
20
0.399583
0
VERTEX
8
0
10
-1.086458
20
0.401042
0
VERTEX
8
0
10
-1.086458
20
0.402500
0
VERTEX
8
0
10
-1.086458
20
0.403958
0
VERTEX
8
0
10
-1.086458
20
0.405417
0
VERTEX
8
0
10
-1.086458
20
0.406875
0
VERTEX
8
0
10
-1.086458
20
0.408333
0
VERTEX
8
0
10
-1.087917
20
0.409792
0
VERTEX
8
0
10
-1.087917
20
0.411250
0
VERTEX
8
0
10
-1.086458
20
0.412708
0
VERTEX
8
0
10
-1.087917
20
0.414167
0
VERTEX
8
0
10
-1.087917
20
0.415625
0
VERTEX
8
0
10
-1.087917
20
0.417083
0
VERTEX
8
0
10
-1.087917
20
0.418542
0
VERTEX
8
0
10
-1.087917
20
0.420000
0
VERTEX
8
0
10
-1.087917
20
0.421458
0
VERTEX
8
0
10
-1.087917
20
0.422917
0
VERTEX
8
0
10
-1.087917
20
0.424375
0
VERTEX
8
0
10
-1.087917
20
0.425833
0
VERTEX
8
0
10
-1.087917
20
0.427292
0
VERTEX
8
0
10
-1.087917
20
0.428750
0
VERTEX
8
0
10
-1.089375
20
0.430208
0
VERTEX
8
0
10
-1.089375
20
0.431667
0
VERTEX
8
0
10
-1.089375
20
0.433125
0
VERTEX
8
0
10
-1.089375
20
0.434583
0
VERTEX
8
0
10
-1.089375
20
0.436042
0
VERTEX
8
0
10
-1.089375
20
0.437500
0
VERTEX
8
0
10
-1.089375
20
0.438958
0
VERTEX
8
0
10
-1.089375
20
0.440417
0
VERTEX
8
0
10
-1.089375
20
0.441875
0
VERTEX
8
0
10
-1.089375
20
0.443333
0
VERTEX
8
0
10
-1.089375
20
0.444792
0
VERTEX
8
0
10
-1.089375
20
0.446250
0
VERTEX
8
0
10
-1.089375
20
0.447708
0
VERTEX
8
0
10
-1.090833
20
0.449167
0
VERTEX
8
0
10
-1.090833
20
0.450625
0
VERTEX
8
0
10
-1.090833
20
0.452083
0
VERTEX
8
0
10
-1.090833
20
0.453542
0
VERTEX
8
0
10
-1.090833
20
0.455000
0
VERTEX
8
0
10
-1.090833
20
0.456458
0
VERTEX
8
0
10
-1.090833
20
0.457917
0
VERTEX
8
0
10
-1.090833
20
0.459375
0
VERTEX
8
0
10
-1.090833
20
0.460833
0
VERTEX
8
0
10
-1.090833
20
0.462292
0
VERTEX
8
0
10
-1.092292
20
0.463750
0
VERTEX
8
0
10
-1.092292
20
0.465208
0
VERTEX
8
0
10
-1.092292
20
0.466667
0
VERTEX
8
0
10
-1.092292
20
0.468125
0
VERTEX
8
0
10
-1.092292
20
0.469583
0
VERTEX
8
0
10
-1.092292
20
0.471042
0
VERTEX
8
0
10
-1.092292
20
0.472500
0
VERTEX
8
0
10
-1.092292
20
0.473958
0
VERTEX
8
0
10
-1.092292
20
0.475417
0
VERTEX
8
0
10
-1.092292
20
0.476875
0
VERTEX
8
0
10
-1.092292
20
0.478333
0
VERTEX
8
0
10
-1.092292
20
0.479792
0
VERTEX
8
0
10
-1.092292
20
0.481250
0
VERTEX
8
0
10
-1.092292
20
0.482708
0
VERTEX
8
0
10
-1.092292
20
0.484167
0
VERTEX
8
0
10
-1.092292
20
0.485625
0
VERTEX
8
0
10
-1.092292
20
0.487083
0
VERTEX
8
0
10
-1.092292
20
0.488542
0
VERTEX
8
0
10
-1.092292
20
0.490000
0
VERTEX
8
0
10
-1.093750
20
0.491458
0
VERTEX
8
0
10
-1.093750
20
0.492917
0
VERTEX
8
0
10
-1.093750
20
0.494375
0
VERTEX
8
0
10
-1.093750
20
0.495833
0
VERTEX
8
0
10
-1.093750
20
0.497292
0
VERTEX
8
0
10
-1.093750
20
0.498750
0
VERTEX
8
0
10
-1.093750
20
0.500208
0
VERTEX
8
0
10
-1.093750
20
0.501667
0
VERTEX
8
0
10
-1.093750
20
0.503125
0
VERTEX
8
0
10
-1.093750
20
0.504583
0
VERTEX
8
0
10
-1.093750
20
0.506042
0
VERTEX
8
0
10
-1.093750
20
0.507500
0
VERTEX
8
0
10
-1.093750
20
0.508958
0
VERTEX
8
0
10
-1.093750
20
0.510417
0
VERTEX
8
0
10
-1.092292
20
0.511875
0
VERTEX
8
0
10
-1.092292
20
0.513333
0
VERTEX
8
0
10
-1.092292
20
0.514792
0
VERTEX
8
0
10
-1.092292
20
0.516250
0
VERTEX
8
0
10
-1.092292
20
0.517708
0
VERTEX
8
0
10
-1.092292
20
0.519167
0
VERTEX
8
0
10
-1.092292
20
0.520625
0
VERTEX
8
0
10
-1.092292
20
0.522083
0
VERTEX
8
0
10
-1.092292
20
0.523542
0
VERTEX
8
0
10
-1.092292
20
0.525000
0
VERTEX
8
0
10
-1.092292
20
0.526458
0
VERTEX
8
0
10
-1.090833
20
0.527917
0
VERTEX
8
0
10
-1.089375
20
0.529375
0
VERTEX
8
0
10
-1.087917
20
0.529375
0
VERTEX
8
0
10
-1.086458
20
0.530833
0
VERTEX
8
0
10
-1.085000
20
0.530833
0
VERTEX
8
0
10
-1.083542
20
0.530833
0
VERTEX
8
0
10
-1.082083
20
0.530833
0
VERTEX
8
0
10
-1.080625
20
0.529375
0
VERTEX
8
0
10
-1.079167
20
0.529375
0
VERTEX
8
0
10
-1.077708
20
0.529375
0
VERTEX
8
0
10
-1.076250
20
0.529375
0
VERTEX
8
0
10
-1.074792
20
0.529375
0
VERTEX
8
0
10
-1.073333
20
0.529375
0
VERTEX
8
0
10
-1.071875
20
0.529375
0
VERTEX
8
0
10
-1.070417
20
0.527917
0
VERTEX
8
0
10
-1.068958
20
0.527917
0
VERTEX
8
0
10
-1.067500
20
0.527917
0
VERTEX
8
0
10
-1.066042
20
0.527917
0
VERTEX
8
0
10
-1.064583
20
0.526458
0
VERTEX
8
0
10
-1.063125
20
0.526458
0
VERTEX
8
0
10
-1.061667
20
0.526458
0
VERTEX
8
0
10
-1.060208
20
0.526458
0
VERTEX
8
0
10
-1.058750
20
0.525000
0
VERTEX
8
0
10
-1.057292
20
0.525000
0
VERTEX
8
0
10
-1.055833
20
0.525000
0
VERTEX
8
0
10
-1.054375
20
0.525000
0
VERTEX
8
0
10
-1.052917
20
0.523542
0
VERTEX
8
0
10
-1.051458
20
0.523542
0
VERTEX
8
0
10
-1.050000
20
0.523542
0
VERTEX
8
0
10
-1.048542
20
0.523542
0
VERTEX
8
0
10
-1.047083
20
0.522083
0
VERTEX
8
0
10
-1.045625
20
0.522083
0
VERTEX
8
0
10
-1.044167
20
0.522083
0
VERTEX
8
0
10
-1.042708
20
0.522083
0
VERTEX
8
0
10
-1.041250
20
0.520625
0
VERTEX
8
0
10
-1.039792
20
0.520625
0
VERTEX
8
0
10
-1.038333
20
0.520625
0
VERTEX
8
0
10
-1.036875
20
0.520625
0
VERTEX
8
0
10
-1.035417
20
0.520625
0
VERTEX
8
0
10
-1.033958
20
0.519167
0
VERTEX
8
0
10
-1.032500
20
0.519167
0
VERTEX
8
0
10
-1.031042
20
0.519167
0
VERTEX
8
0
10
-1.029583
20
0.519167
0
VERTEX
8
0
10
-1.028125
20
0.519167
0
VERTEX
8
0
10
-1.026667
20
0.519167
0
VERTEX
8
0
10
-1.025208
20
0.519167
0
VERTEX
8
0
10
-1.023750
20
0.519167
0
VERTEX
8
0
10
-1.022292
20
0.517708
0
VERTEX
8
0
10
-1.020833
20
0.519167
0
VERTEX
8
0
10
-1.019375
20
0.519167
0
VERTEX
8
0
10
-1.017917
20
0.519167
0
VERTEX
8
0
10
-1.016458
20
0.519167
0
VERTEX
8
0
10
-1.015000
20
0.519167
0
VERTEX
8
0
10
-1.013542
20
0.520625
0
VERTEX
8
0
10
-1.012083
20
0.520625
0
VERTEX
8
0
10
-1.010625
20
0.522083
0
VERTEX
8
0
10
-1.009167
20
0.522083
0
VERTEX
8
0
10
-1.007708
20
0.523542
0
VERTEX
8
0
10
-1.006250
20
0.525000
0
VERTEX
8
0
10
-1.004792
20
0.526458
0
VERTEX
8
0
10
-1.004792
20
0.527917
0
VERTEX
8
0
10
-1.003333
20
0.529375
0
VERTEX
8
0
10
-1.001875
20
0.530833
0
VERTEX
8
0
10
-1.001875
20
0.532292
0
VERTEX
8
0
10
-1.000417
20
0.533750
0
VERTEX
8
0
10
-1.000417
20
0.535208
0
VERTEX
8
0
10
-0.998958
20
0.536667
0
VERTEX
8
0
10
-0.998958
20
0.538125
0
VERTEX
8
0
10
-0.997500
20
0.539583
0
VERTEX
8
0
10
-0.997500
20
0.541042
0
VERTEX
8
0
10
-0.996042
20
0.542500
0
VERTEX
8
0
10
-0.996042
20
0.543958
0
VERTEX
8
0
10
-0.996042
20
0.545417
0
VERTEX
8
0
10
-0.994583
20
0.546875
0
VERTEX
8
0
10
-0.993125
20
0.548333
0
VERTEX
8
0
10
-0.993125
20
0.549792
0
VERTEX
8
0
10
-0.991667
20
0.551250
0
VERTEX
8
0
10
-0.991667
20
0.552708
0
VERTEX
8
0
10
-0.990208
20
0.554167
0
VERTEX
8
0
10
-0.988750
20
0.555625
0
VERTEX
8
0
10
-0.987292
20
0.557083
0
VERTEX
8
0
10
-0.985833
20
0.558542
0
VERTEX
8
0
10
-0.984375
20
0.560000
0
VERTEX
8
0
10
-0.982917
20
0.561458
0
VERTEX
8
0
10
-0.981458
20
0.561458
0
VERTEX
8
0
10
-0.980000
20
0.562917
0
VERTEX
8
0
10
-0.978542
20
0.562917
0
VERTEX
8
0
10
-0.977083
20
0.564375
0
VERTEX
8
0
10
-0.975625
20
0.564375
0
VERTEX
8
0
10
-0.974167
20
0.565833
0
VERTEX
8
0
10
-0.972708
20
0.565833
0
VERTEX
8
0
10
-0.971250
20
0.565833
0
VERTEX
8
0
10
-0.969792
20
0.567292
0
VERTEX
8
0
10
-0.968333
20
0.567292
0
VERTEX
8
0
10
-0.966875
20
0.567292
0
VERTEX
8
0
10
-0.965417
20
0.567292
0
VERTEX
8
0
10
-0.963958
20
0.568750
0
VERTEX
8
0
10
-0.962500
20
0.568750
0
VERTEX
8
0
10
-0.961042
20
0.568750
0
VERTEX
8
0
10
-0.959583
20
0.568750
0
VERTEX
8
0
10
-0.958125
20
0.568750
0
VERTEX
8
0
10
-0.956667
20
0.568750
0
VERTEX
8
0
10
-0.955208
20
0.568750
0
VERTEX
8
0
10
-0.953750
20
0.568750
0
VERTEX
8
0
10
-0.952292
20
0.568750
0
VERTEX
8
0
10
-0.950833
20
0.568750
0
VERTEX
8
0
10
-0.949375
20
0.568750
0
VERTEX
8
0
10
-0.947917
20
0.568750
0
VERTEX
8
0
10
-0.946458
20
0.568750
0
VERTEX
8
0
10
-0.945000
20
0.568750
0
VERTEX
8
0
10
-0.943542
20
0.568750
0
VERTEX
8
0
10
-0.942083
20
0.568750
0
VERTEX
8
0
10
-0.940625
20
0.567292
0
VERTEX
8
0
10
-0.939167
20
0.567292
0
VERTEX
8
0
10
-0.937708
20
0.567292
0
VERTEX
8
0
10
-0.936250
20
0.567292
0
VERTEX
8
0
10
-0.934792
20
0.567292
0
VERTEX
8
0
10
-0.933333
20
0.565833
0
VERTEX
8
0
10
-0.931875
20
0.565833
0
VERTEX
8
0
10
-0.930417
20
0.565833
0
VERTEX
8
0
10
-0.928958
20
0.565833
0
VERTEX
8
0
10
-0.927500
20
0.564375
0
VERTEX
8
0
10
-0.926042
20
0.564375
0
VERTEX
8
0
10
-0.924583
20
0.564375
0
VERTEX
8
0
10
-0.923125
20
0.562917
0
VERTEX
8
0
10
-0.921667
20
0.562917
0
VERTEX
8
0
10
-0.920208
20
0.562917
0
VERTEX
8
0
10
-0.918750
20
0.562917
0
VERTEX
8
0
10
-0.917292
20
0.561458
0
VERTEX
8
0
10
-0.915833
20
0.561458
0
VERTEX
8
0
10
-0.914375
20
0.560000
0
VERTEX
8
0
10
-0.912917
20
0.560000
0
VERTEX
8
0
10
-0.911458
20
0.560000
0
VERTEX
8
0
10
-0.910000
20
0.558542
0
VERTEX
8
0
10
-0.908542
20
0.558542
0
VERTEX
8
0
10
-0.907083
20
0.558542
0
VERTEX
8
0
10
-0.905625
20
0.557083
0
VERTEX
8
0
10
-0.904167
20
0.557083
0
VERTEX
8
0
10
-0.902708
20
0.555625
0
VERTEX
8
0
10
-0.901250
20
0.555625
0
VERTEX
8
0
10
-0.899792
20
0.555625
0
VERTEX
8
0
10
-0.898333
20
0.554167
0
VERTEX
8
0
10
-0.896875
20
0.554167
0
VERTEX
8
0
10
-0.895417
20
0.552708
0
VERTEX
8
0
10
-0.893958
20
0.552708
0
VERTEX
8
0
10
-0.892500
20
0.552708
0
VERTEX
8
0
10
-0.891042
20
0.551250
0
VERTEX
8
0
10
-0.889583
20
0.551250
0
VERTEX
8
0
10
-0.888125
20
0.549792
0
VERTEX
8
0
10
-0.886667
20
0.549792
0
VERTEX
8
0
10
-0.885208
20
0.548333
0
VERTEX
8
0
10
-0.883750
20
0.548333
0
VERTEX
8
0
10
-0.882292
20
0.548333
0
VERTEX
8
0
10
-0.880833
20
0.546875
0
VERTEX
8
0
10
-0.879375
20
0.546875
0
VERTEX
8
0
10
-0.877917
20
0.545417
0
VERTEX
8
0
10
-0.876458
20
0.545417
0
VERTEX
8
0
10
-0.875000
20
0.545417
0
VERTEX
8
0
10
-0.873542
20
0.543958
0
VERTEX
8
0
10
-0.872083
20
0.543958
0
VERTEX
8
0
10
-0.870625
20
0.542500
0
VERTEX
8
0
10
-0.869167
20
0.542500
0
VERTEX
8
0
10
-0.867708
20
0.542500
0
VERTEX
8
0
10
-0.866250
20
0.541042
0
VERTEX
8
0
10
-0.864792
20
0.541042
0
VERTEX
8
0
10
-0.863333
20
0.541042
0
VERTEX
8
0
10
-0.861875
20
0.539583
0
VERTEX
8
0
10
-0.860417
20
0.539583
0
VERTEX
8
0
10
-0.858958
20
0.539583
0
VERTEX
8
0
10
-0.857500
20
0.538125
0
VERTEX
8
0
10
-0.856042
20
0.538125
0
VERTEX
8
0
10
-0.854583
20
0.538125
0
VERTEX
8
0
10
-0.853125
20
0.538125
0
VERTEX
8
0
10
-0.851667
20
0.536667
0
VERTEX
8
0
10
-0.850208
20
0.536667
0
VERTEX
8
0
10
-0.848750
20
0.536667
0
VERTEX
8
0
10
-0.847292
20
0.536667
0
VERTEX
8
0
10
-0.845833
20
0.535208
0
VERTEX
8
0
10
-0.844375
20
0.535208
0
VERTEX
8
0
10
-0.842917
20
0.535208
0
VERTEX
8
0
10
-0.841458
20
0.535208
0
VERTEX
8
0
10
-0.840000
20
0.533750
0
VERTEX
8
0
10
-0.838542
20
0.533750
0
VERTEX
8
0
10
-0.837083
20
0.533750
0
VERTEX
8
0
10
-0.835625
20
0.533750
0
VERTEX
8
0
10
-0.834167
20
0.533750
0
VERTEX
8
0
10
-0.832708
20
0.533750
0
VERTEX
8
0
10
-0.831250
20
0.533750
0
VERTEX
8
0
10
-0.829792
20
0.532292
0
VERTEX
8
0
10
-0.828333
20
0.532292
0
VERTEX
8
0
10
-0.826875
20
0.532292
0
VERTEX
8
0
10
-0.825417
20
0.532292
0
VERTEX
8
0
10
-0.823958
20
0.532292
0
VERTEX
8
0
10
-0.822500
20
0.532292
0
VERTEX
8
0
10
-0.821042
20
0.532292
0
VERTEX
8
0
10
-0.819583
20
0.530833
0
VERTEX
8
0
10
-0.818125
20
0.530833
0
VERTEX
8
0
10
-0.816667
20
0.530833
0
VERTEX
8
0
10
-0.815208
20
0.530833
0
VERTEX
8
0
10
-0.813750
20
0.530833
0
VERTEX
8
0
10
-0.812292
20
0.529375
0
VERTEX
8
0
10
-0.810833
20
0.529375
0
VERTEX
8
0
10
-0.809375
20
0.529375
0
VERTEX
8
0
10
-0.807917
20
0.529375
0
VERTEX
8
0
10
-0.806458
20
0.529375
0
VERTEX
8
0
10
-0.805000
20
0.529375
0
VERTEX
8
0
10
-0.803542
20
0.529375
0
VERTEX
8
0
10
-0.802083
20
0.529375
0
VERTEX
8
0
10
-0.800625
20
0.527917
0
VERTEX
8
0
10
-0.799167
20
0.527917
0
VERTEX
8
0
10
-0.797708
20
0.527917
0
VERTEX
8
0
10
-0.796250
20
0.527917
0
VERTEX
8
0
10
-0.794792
20
0.527917
0
VERTEX
8
0
10
-0.793333
20
0.527917
0
VERTEX
8
0
10
-0.791875
20
0.526458
0
VERTEX
8
0
10
-0.790417
20
0.526458
0
VERTEX
8
0
10
-0.788958
20
0.526458
0
VERTEX
8
0
10
-0.787500
20
0.526458
0
VERTEX
8
0
10
-0.786042
20
0.526458
0
VERTEX
8
0
10
-0.784583
20
0.526458
0
VERTEX
8
0
10
-0.783125
20
0.526458
0
VERTEX
8
0
10
-0.781667
20
0.526458
0
VERTEX
8
0
10
-0.780208
20
0.525000
0
VERTEX
8
0
10
-0.778750
20
0.525000
0
VERTEX
8
0
10
-0.777292
20
0.525000
0
VERTEX
8
0
10
-0.775833
20
0.525000
0
VERTEX
8
0
10
-0.774375
20
0.525000
0
VERTEX
8
0
10
-0.772917
20
0.525000
0
VERTEX
8
0
10
-0.771458
20
0.525000
0
VERTEX
8
0
10
-0.770000
20
0.525000
0
VERTEX
8
0
10
-0.768542
20
0.525000
0
VERTEX
8
0
10
-0.767083
20
0.523542
0
VERTEX
8
0
10
-0.765625
20
0.523542
0
VERTEX
8
0
10
-0.764167
20
0.523542
0
VERTEX
8
0
10
-0.762708
20
0.523542
0
VERTEX
8
0
10
-0.761250
20
0.523542
0
VERTEX
8
0
10
-0.759792
20
0.523542
0
VERTEX
8
0
10
-0.758333
20
0.523542
0
VERTEX
8
0
10
-0.756875
20
0.522083
0
VERTEX
8
0
10
-0.755417
20
0.522083
0
VERTEX
8
0
10
-0.753958
20
0.522083
0
VERTEX
8
0
10
-0.752500
20
0.522083
0
VERTEX
8
0
10
-0.751042
20
0.522083
0
VERTEX
8
0
10
-0.749583
20
0.522083
0
VERTEX
8
0
10
-0.748125
20
0.522083
0
VERTEX
8
0
10
-0.746667
20
0.522083
0
VERTEX
8
0
10
-0.745208
20
0.522083
0
VERTEX
8
0
10
-0.743750
20
0.522083
0
VERTEX
8
0
10
-0.742292
20
0.520625
0
VERTEX
8
0
10
-0.740833
20
0.520625
0
VERTEX
8
0
10
-0.739375
20
0.520625
0
VERTEX
8
0
10
-0.737917
20
0.520625
0
VERTEX
8
0
10
-0.736458
20
0.520625
0
VERTEX
8
0
10
-0.735000
20
0.520625
0
VERTEX
8
0
10
-0.733542
20
0.520625
0
VERTEX
8
0
10
-0.732083
20
0.520625
0
VERTEX
8
0
10
-0.730625
20
0.520625
0
VERTEX
8
0
10
-0.729167
20
0.520625
0
VERTEX
8
0
10
-0.727708
20
0.519167
0
VERTEX
8
0
10
-0.726250
20
0.519167
0
VERTEX
8
0
10
-0.724792
20
0.519167
0
VERTEX
8
0
10
-0.723333
20
0.519167
0
VERTEX
8
0
10
-0.721875
20
0.519167
0
VERTEX
8
0
10
-0.720417
20
0.519167
0
VERTEX
8
0
10
-0.718958
20
0.519167
0
VERTEX
8
0
10
-0.717500
20
0.519167
0
VERTEX
8
0
10
-0.716042
20
0.519167
0
VERTEX
8
0
10
-0.714583
20
0.519167
0
VERTEX
8
0
10
-0.713125
20
0.519167
0
VERTEX
8
0
10
-0.711667
20
0.517708
0
VERTEX
8
0
10
-0.710208
20
0.517708
0
VERTEX
8
0
10
-0.708750
20
0.517708
0
VERTEX
8
0
10
-0.707292
20
0.517708
0
VERTEX
8
0
10
-0.705833
20
0.517708
0
VERTEX
8
0
10
-0.704375
20
0.517708
0
VERTEX
8
0
10
-0.702917
20
0.517708
0
VERTEX
8
0
10
-0.701458
20
0.517708
0
VERTEX
8
0
10
-0.700000
20
0.517708
0
VERTEX
8
0
10
-0.698542
20
0.517708
0
VERTEX
8
0
10
-0.697083
20
0.517708
0
VERTEX
8
0
10
-0.695625
20
0.517708
0
VERTEX
8
0
10
-0.694167
20
0.517708
0
VERTEX
8
0
10
-0.692708
20
0.517708
0
VERTEX
8
0
10
-0.691250
20
0.516250
0
VERTEX
8
0
10
-0.689792
20
0.516250
0
VERTEX
8
0
10
-0.688333
20
0.516250
0
VERTEX
8
0
10
-0.686875
20
0.516250
0
VERTEX
8
0
10
-0.685417
20
0.516250
0
VERTEX
8
0
10
-0.683958
20
0.516250
0
VERTEX
8
0
10
-0.682500
20
0.516250
0
VERTEX
8
0
10
-0.681042
20
0.516250
0
VERTEX
8
0
10
-0.679583
20
0.516250
0
VERTEX
8
0
10
-0.678125
20
0.516250
0
VERTEX
8
0
10
-0.676667
20
0.516250
0
VERTEX
8
0
10
-0.675208
20
0.516250
0
VERTEX
8
0
10
-0.673750
20
0.516250
0
VERTEX
8
0
10
-0.672292
20
0.514792
0
VERTEX
8
0
10
-0.670833
20
0.514792
0
VERTEX
8
0
10
-0.669375
20
0.514792
0
VERTEX
8
0
10
-0.667917
20
0.514792
0
VERTEX
8
0
10
-0.666458
20
0.514792
0
VERTEX
8
0
10
-0.665000
20
0.514792
0
VERTEX
8
0
10
-0.663542
20
0.514792
0
VERTEX
8
0
10
-0.662083
20
0.514792
0
VERTEX
8
0
10
-0.660625
20
0.514792
0
VERTEX
8
0
10
-0.659167
20
0.514792
0
VERTEX
8
0
10
-0.657708
20
0.514792
0
VERTEX
8
0
10
-0.656250
20
0.514792
0
VERTEX
8
0
10
-0.654792
20
0.514792
0
VERTEX
8
0
10
-0.653333
20
0.514792
0
VERTEX
8
0
10
-0.651875
20
0.514792
0
VERTEX
8
0
10
-0.650417
20
0.514792
0
VERTEX
8
0
10
-0.648958
20
0.514792
0
VERTEX
8
0
10
-0.647500
20
0.514792
0
VERTEX
8
0
10
-0.646042
20
0.514792
0
VERTEX
8
0
10
-0.644583
20
0.514792
0
VERTEX
8
0
10
-0.643125
20
0.514792
0
VERTEX
8
0
10
-0.641667
20
0.514792
0
VERTEX
8
0
10
-0.640208
20
0.514792
0
VERTEX
8
0
10
-0.638750
20
0.514792
0
VERTEX
8
0
10
-0.637292
20
0.514792
0
VERTEX
8
0
10
-0.635833
20
0.513333
0
VERTEX
8
0
10
-0.634375
20
0.513333
0
VERTEX
8
0
10
-0.632917
20
0.513333
0
VERTEX
8
0
10
-0.631458
20
0.513333
0
VERTEX
8
0
10
-0.630000
20
0.513333
0
VERTEX
8
0
10
-0.628542
20
0.513333
0
VERTEX
8
0
10
-0.627083
20
0.513333
0
VERTEX
8
0
10
-0.625625
20
0.513333
0
VERTEX
8
0
10
-0.624167
20
0.513333
0
VERTEX
8
0
10
-0.622708
20
0.513333
0
VERTEX
8
0
10
-0.621250
20
0.513333
0
VERTEX
8
0
10
-0.619792
20
0.513333
0
VERTEX
8
0
10
-0.618333
20
0.513333
0
VERTEX
8
0
10
-0.616875
20
0.513333
0
VERTEX
8
0
10
-0.615417
20
0.513333
0
VERTEX
8
0
10
-0.613958
20
0.513333
0
VERTEX
8
0
10
-0.612500
20
0.513333
0
VERTEX
8
0
10
-0.611042
20
0.513333
0
VERTEX
8
0
10
-0.609583
20
0.513333
0
VERTEX
8
0
10
-0.608125
20
0.513333
0
VERTEX
8
0
10
-0.606667
20
0.513333
0
VERTEX
8
0
10
-0.605208
20
0.513333
0
VERTEX
8
0
10
-0.603750
20
0.513333
0
VERTEX
8
0
10
-0.602292
20
0.513333
0
VERTEX
8
0
10
-0.600833
20
0.513333
0
VERTEX
8
0
10
-0.599375
20
0.513333
0
VERTEX
8
0
10
-0.597917
20
0.513333
0
VERTEX
8
0
10
-0.596458
20
0.513333
0
VERTEX
8
0
10
-0.595000
20
0.513333
0
VERTEX
8
0
10
-0.593542
20
0.513333
0
VERTEX
8
0
10
-0.592083
20
0.513333
0
VERTEX
8
0
10
-0.590625
20
0.513333
0
VERTEX
8
0
10
-0.589167
20
0.513333
0
VERTEX
8
0
10
-0.587708
20
0.513333
0
VERTEX
8
0
10
-0.586250
20
0.513333
0
VERTEX
8
0
10
-0.584792
20
0.513333
0
VERTEX
8
0
10
-0.583333
20
0.513333
0
VERTEX
8
0
10
-0.581875
20
0.513333
0
VERTEX
8
0
10
-0.580417
20
0.513333
0
VERTEX
8
0
10
-0.578958
20
0.513333
0
VERTEX
8
0
10
-0.577500
20
0.513333
0
VERTEX
8
0
10
-0.576042
20
0.513333
0
VERTEX
8
0
10
-0.574583
20
0.513333
0
VERTEX
8
0
10
-0.573125
20
0.513333
0
VERTEX
8
0
10
-0.571667
20
0.513333
0
VERTEX
8
0
10
-0.570208
20
0.513333
0
VERTEX
8
0
10
-0.568750
20
0.513333
0
VERTEX
8
0
10
-0.567292
20
0.513333
0
VERTEX
8
0
10
-0.565833
20
0.513333
0
VERTEX
8
0
10
-0.564375
20
0.513333
0
VERTEX
8
0
10
-0.562917
20
0.513333
0
VERTEX
8
0
10
-0.561458
20
0.513333
0
VERTEX
8
0
10
-0.560000
20
0.513333
0
VERTEX
8
0
10
-0.558542
20
0.513333
0
VERTEX
8
0
10
-0.557083
20
0.513333
0
VERTEX
8
0
10
-0.555625
20
0.513333
0
VERTEX
8
0
10
-0.554167
20
0.513333
0
VERTEX
8
0
10
-0.552708
20
0.513333
0
VERTEX
8
0
10
-0.551250
20
0.513333
0
VERTEX
8
0
10
-0.549792
20
0.513333
0
VERTEX
8
0
10
-0.548333
20
0.513333
0
VERTEX
8
0
10
-0.546875
20
0.513333
0
VERTEX
8
0
10
-0.545417
20
0.513333
0
VERTEX
8
0
10
-0.543958
20
0.513333
0
VERTEX
8
0
10
-0.542500
20
0.513333
0
VERTEX
8
0
10
-0.541042
20
0.513333
0
VERTEX
8
0
10
-0.539583
20
0.513333
0
VERTEX
8
0
10
-0.538125
20
0.513333
0
VERTEX
8
0
10
-0.536667
20
0.514792
0
VERTEX
8
0
10
-0.535208
20
0.514792
0
VERTEX
8
0
10
-0.533750
20
0.514792
0
VERTEX
8
0
10
-0.532292
20
0.514792
0
VERTEX
8
0
10
-0.530833
20
0.514792
0
VERTEX
8
0
10
-0.529375
20
0.514792
0
VERTEX
8
0
10
-0.527917
20
0.514792
0
VERTEX
8
0
10
-0.526458
20
0.514792
0
VERTEX
8
0
10
-0.525000
20
0.514792
0
VERTEX
8
0
10
-0.523542
20
0.514792
0
VERTEX
8
0
10
-0.522083
20
0.514792
0
VERTEX
8
0
10
-0.520625
20
0.514792
0
VERTEX
8
0
10
-0.519167
20
0.514792
0
VERTEX
8
0
10
-0.517708
20
0.514792
0
VERTEX
8
0
10
-0.516250
20
0.514792
0
VERTEX
8
0
10
-0.514792
20
0.514792
0
VERTEX
8
0
10
-0.513333
20
0.514792
0
VERTEX
8
0
10
-0.511875
20
0.514792
0
VERTEX
8
0
10
-0.510417
20
0.514792
0
VERTEX
8
0
10
-0.508958
20
0.514792
0
VERTEX
8
0
10
-0.507500
20
0.514792
0
VERTEX
8
0
10
-0.506042
20
0.514792
0
VERTEX
8
0
10
-0.504583
20
0.514792
0
VERTEX
8
0
10
-0.503125
20
0.514792
0
VERTEX
8
0
10
-0.501667
20
0.514792
0
VERTEX
8
0
10
-0.500208
20
0.516250
0
VERTEX
8
0
10
-0.498750
20
0.516250
0
VERTEX
8
0
10
-0.497292
20
0.516250
0
VERTEX
8
0
10
-0.495833
20
0.516250
0
VERTEX
8
0
10
-0.494375
20
0.516250
0
VERTEX
8
0
10
-0.492917
20
0.516250
0
VERTEX
8
0
10
-0.491458
20
0.516250
0
VERTEX
8
0
10
-0.490000
20
0.516250
0
VERTEX
8
0
10
-0.488542
20
0.516250
0
VERTEX
8
0
10
-0.487083
20
0.516250
0
VERTEX
8
0
10
-0.485625
20
0.516250
0
VERTEX
8
0
10
-0.484167
20
0.516250
0
VERTEX
8
0
10
-0.482708
20
0.516250
0
VERTEX
8
0
10
-0.481250
20
0.517708
0
VERTEX
8
0
10
-0.479792
20
0.517708
0
VERTEX
8
0
10
-0.478333
20
0.517708
0
VERTEX
8
0
10
-0.476875
20
0.517708
0
VERTEX
8
0
10
-0.475417
20
0.517708
0
VERTEX
8
0
10
-0.473958
20
0.517708
0
VERTEX
8
0
10
-0.472500
20
0.517708
0
VERTEX
8
0
10
-0.471042
20
0.517708
0
VERTEX
8
0
10
-0.469583
20
0.517708
0
VERTEX
8
0
10
-0.468125
20
0.517708
0
VERTEX
8
0
10
-0.466667
20
0.517708
0
VERTEX
8
0
10
-0.465208
20
0.517708
0
VERTEX
8
0
10
-0.463750
20
0.517708
0
VERTEX
8
0
10
-0.462292
20
0.517708
0
VERTEX
8
0
10
-0.460833
20
0.517708
0
VERTEX
8
0
10
-0.459375
20
0.517708
0
VERTEX
8
0
10
-0.457917
20
0.519167
0
VERTEX
8
0
10
-0.456458
20
0.519167
0
VERTEX
8
0
10
-0.455000
20
0.519167
0
VERTEX
8
0
10
-0.453542
20
0.519167
0
VERTEX
8
0
10
-0.452083
20
0.519167
0
VERTEX
8
0
10
-0.450625
20
0.519167
0
VERTEX
8
0
10
-0.449167
20
0.519167
0
VERTEX
8
0
10
-0.447708
20
0.519167
0
VERTEX
8
0
10
-0.446250
20
0.519167
0
VERTEX
8
0
10
-0.444792
20
0.519167
0
VERTEX
8
0
10
-0.443333
20
0.519167
0
VERTEX
8
0
10
-0.441875
20
0.519167
0
VERTEX
8
0
10
-0.440417
20
0.520625
0
VERTEX
8
0
10
-0.438958
20
0.520625
0
VERTEX
8
0
10
-0.437500
20
0.520625
0
VERTEX
8
0
10
-0.436042
20
0.519167
0
VERTEX
8
0
10
-0.434583
20
0.520625
0
VERTEX
8
0
10
-0.433125
20
0.520625
0
VERTEX
8
0
10
-0.431667
20
0.520625
0
VERTEX
8
0
10
-0.430208
20
0.520625
0
VERTEX
8
0
10
-0.428750
20
0.520625
0
VERTEX
8
0
10
-0.427292
20
0.520625
0
VERTEX
8
0
10
-0.425833
20
0.520625
0
VERTEX
8
0
10
-0.424375
20
0.520625
0
VERTEX
8
0
10
-0.422917
20
0.520625
0
VERTEX
8
0
10
-0.421458
20
0.520625
0
VERTEX
8
0
10
-0.420000
20
0.520625
0
VERTEX
8
0
10
-0.418542
20
0.520625
0
VERTEX
8
0
10
-0.417083
20
0.520625
0
VERTEX
8
0
10
-0.415625
20
0.522083
0
VERTEX
8
0
10
-0.414167
20
0.522083
0
VERTEX
8
0
10
-0.412708
20
0.522083
0
VERTEX
8
0
10
-0.411250
20
0.522083
0
VERTEX
8
0
10
-0.409792
20
0.522083
0
VERTEX
8
0
10
-0.408333
20
0.522083
0
VERTEX
8
0
10
-0.406875
20
0.522083
0
VERTEX
8
0
10
-0.405417
20
0.522083
0
VERTEX
8
0
10
-0.403958
20
0.522083
0
VERTEX
8
0
10
-0.402500
20
0.522083
0
VERTEX
8
0
10
-0.401042
20
0.522083
0
VERTEX
8
0
10
-0.399583
20
0.522083
0
VERTEX
8
0
10
-0.398125
20
0.522083
0
VERTEX
8
0
10
-0.396667
20
0.522083
0
VERTEX
8
0
10
-0.395208
20
0.522083
0
VERTEX
8
0
10
-0.393750
20
0.522083
0
VERTEX
8
0
10
-0.392292
20
0.522083
0
VERTEX
8
0
10
-0.390833
20
0.522083
0
VERTEX
8
0
10
-0.389375
20
0.523542
0
VERTEX
8
0
10
-0.387917
20
0.523542
0
VERTEX
8
0
10
-0.386458
20
0.523542
0
VERTEX
8
0
10
-0.385000
20
0.523542
0
VERTEX
8
0
10
-0.383542
20
0.523542
0
VERTEX
8
0
10
-0.382083
20
0.523542
0
VERTEX
8
0
10
-0.380625
20
0.523542
0
VERTEX
8
0
10
-0.379167
20
0.523542
0
VERTEX
8
0
10
-0.377708
20
0.523542
0
VERTEX
8
0
10
-0.376250
20
0.523542
0
VERTEX
8
0
10
-0.374792
20
0.523542
0
VERTEX
8
0
10
-0.373333
20
0.523542
0
VERTEX
8
0
10
-0.371875
20
0.523542
0
VERTEX
8
0
10
-0.370417
20
0.523542
0
VERTEX
8
0
10
-0.368958
20
0.523542
0
VERTEX
8
0
10
-0.367500
20
0.523542
0
VERTEX
8
0
10
-0.366042
20
0.523542
0
VERTEX
8
0
10
-0.364583
20
0.525000
0
VERTEX
8
0
10
-0.363125
20
0.525000
0
VERTEX
8
0
10
-0.361667
20
0.525000
0
VERTEX
8
0
10
-0.360208
20
0.525000
0
VERTEX
8
0
10
-0.358750
20
0.525000
0
VERTEX
8
0
10
-0.357292
20
0.525000
0
VERTEX
8
0
10
-0.355833
20
0.525000
0
VERTEX
8
0
10
-0.354375
20
0.525000
0
VERTEX
8
0
10
-0.352917
20
0.525000
0
VERTEX
8
0
10
-0.351458
20
0.525000
0
VERTEX
8
0
10
-0.350000
20
0.525000
0
VERTEX
8
0
10
-0.348542
20
0.525000
0
VERTEX
8
0
10
-0.347083
20
0.525000
0
VERTEX
8
0
10
-0.345625
20
0.525000
0
VERTEX
8
0
10
-0.344167
20
0.525000
0
VERTEX
8
0
10
-0.342708
20
0.525000
0
VERTEX
8
0
10
-0.341250
20
0.525000
0
VERTEX
8
0
10
-0.339792
20
0.525000
0
VERTEX
8
0
10
-0.338333
20
0.525000
0
VERTEX
8
0
10
-0.336875
20
0.525000
0
VERTEX
8
0
10
-0.335417
20
0.525000
0
VERTEX
8
0
10
-0.333958
20
0.525000
0
VERTEX
8
0
10
-0.332500
20
0.525000
0
VERTEX
8
0
10
-0.331042
20
0.525000
0
VERTEX
8
0
10
-0.329583
20
0.525000
0
VERTEX
8
0
10
-0.328125
20
0.525000
0
VERTEX
8
0
10
-0.326667
20
0.525000
0
VERTEX
8
0
10
-0.325208
20
0.525000
0
VERTEX
8
0
10
-0.323750
20
0.525000
0
VERTEX
8
0
10
-0.322292
20
0.525000
0
VERTEX
8
0
10
-0.320833
20
0.525000
0
VERTEX
8
0
10
-0.319375
20
0.525000
0
VERTEX
8
0
10
-0.317917
20
0.525000
0
VERTEX
8
0
10
-0.316458
20
0.525000
0
VERTEX
8
0
10
-0.315000
20
0.525000
0
VERTEX
8
0
10
-0.313542
20
0.525000
0
VERTEX
8
0
10
-0.312083
20
0.525000
0
VERTEX
8
0
10
-0.310625
20
0.525000
0
VERTEX
8
0
10
-0.309167
20
0.525000
0
VERTEX
8
0
10
-0.307708
20
0.525000
0
VERTEX
8
0
10
-0.306250
20
0.525000
0
VERTEX
8
0
10
-0.304792
20
0.525000
0
VERTEX
8
0
10
-0.303333
20
0.525000
0
VERTEX
8
0
10
-0.301875
20
0.525000
0
VERTEX
8
0
10
-0.300417
20
0.525000
0
VERTEX
8
0
10
-0.298958
20
0.525000
0
VERTEX
8
0
10
-0.297500
20
0.525000
0
VERTEX
8
0
10
-0.296042
20
0.525000
0
VERTEX
8
0
10
-0.294583
20
0.525000
0
VERTEX
8
0
10
-0.293125
20
0.523542
0
VERTEX
8
0
10
-0.291667
20
0.523542
0
VERTEX
8
0
10
-0.290208
20
0.523542
0
VERTEX
8
0
10
-0.288750
20
0.523542
0
VERTEX
8
0
10
-0.287292
20
0.523542
0
VERTEX
8
0
10
-0.285833
20
0.523542
0
VERTEX
8
0
10
-0.284375
20
0.523542
0
VERTEX
8
0
10
-0.282917
20
0.523542
0
VERTEX
8
0
10
-0.281458
20
0.523542
0
VERTEX
8
0
10
-0.280000
20
0.523542
0
VERTEX
8
0
10
-0.278542
20
0.523542
0
VERTEX
8
0
10
-0.277083
20
0.523542
0
VERTEX
8
0
10
-0.275625
20
0.523542
0
VERTEX
8
0
10
-0.274167
20
0.523542
0
VERTEX
8
0
10
-0.272708
20
0.522083
0
VERTEX
8
0
10
-0.271250
20
0.522083
0
VERTEX
8
0
10
-0.269792
20
0.522083
0
VERTEX
8
0
10
-0.268333
20
0.522083
0
VERTEX
8
0
10
-0.266875
20
0.522083
0
VERTEX
8
0
10
-0.265417
20
0.522083
0
VERTEX
8
0
10
-0.263958
20
0.522083
0
VERTEX
8
0
10
-0.262500
20
0.522083
0
VERTEX
8
0
10
-0.261042
20
0.522083
0
VERTEX
8
0
10
-0.259583
20
0.522083
0
VERTEX
8
0
10
-0.258125
20
0.522083
0
VERTEX
8
0
10
-0.256667
20
0.522083
0
VERTEX
8
0
10
-0.255208
20
0.522083
0
VERTEX
8
0
10
-0.253750
20
0.520625
0
VERTEX
8
0
10
-0.252292
20
0.520625
0
VERTEX
8
0
10
-0.250833
20
0.520625
0
VERTEX
8
0
10
-0.249375
20
0.520625
0
VERTEX
8
0
10
-0.247917
20
0.520625
0
VERTEX
8
0
10
-0.246458
20
0.520625
0
VERTEX
8
0
10
-0.245000
20
0.520625
0
VERTEX
8
0
10
-0.243542
20
0.520625
0
VERTEX
8
0
10
-0.242083
20
0.520625
0
VERTEX
8
0
10
-0.240625
20
0.520625
0
VERTEX
8
0
10
-0.239167
20
0.519167
0
VERTEX
8
0
10
-0.237708
20
0.519167
0
VERTEX
8
0
10
-0.236250
20
0.519167
0
VERTEX
8
0
10
-0.234792
20
0.519167
0
VERTEX
8
0
10
-0.233333
20
0.519167
0
VERTEX
8
0
10
-0.231875
20
0.519167
0
VERTEX
8
0
10
-0.230417
20
0.519167
0
VERTEX
8
0
10
-0.228958
20
0.519167
0
VERTEX
8
0
10
-0.227500
20
0.517708
0
VERTEX
8
0
10
-0.226042
20
0.517708
0
VERTEX
8
0
10
-0.224583
20
0.517708
0
VERTEX
8
0
10
-0.223125
20
0.517708
0
VERTEX
8
0
10
-0.221667
20
0.517708
0
VERTEX
8
0
10
-0.220208
20
0.517708
0
VERTEX
8
0
10
-0.218750
20
0.517708
0
VERTEX
8
0
10
-0.217292
20
0.517708
0
VERTEX
8
0
10
-0.215833
20
0.517708
0
VERTEX
8
0
10
-0.214375
20
0.517708
0
VERTEX
8
0
10
-0.212917
20
0.517708
0
VERTEX
8
0
10
-0.211458
20
0.517708
0
VERTEX
8
0
10
-0.210000
20
0.517708
0
VERTEX
8
0
10
-0.208542
20
0.516250
0
VERTEX
8
0
10
-0.207083
20
0.516250
0
VERTEX
8
0
10
-0.205625
20
0.516250
0
VERTEX
8
0
10
-0.204167
20
0.516250
0
VERTEX
8
0
10
-0.202708
20
0.516250
0
VERTEX
8
0
10
-0.201250
20
0.516250
0
VERTEX
8
0
10
-0.199792
20
0.516250
0
VERTEX
8
0
10
-0.198333
20
0.516250
0
VERTEX
8
0
10
-0.196875
20
0.516250
0
VERTEX
8
0
10
-0.195417
20
0.516250
0
VERTEX
8
0
10
-0.193958
20
0.516250
0
VERTEX
8
0
10
-0.192500
20
0.514792
0
VERTEX
8
0
10
-0.191042
20
0.514792
0
VERTEX
8
0
10
-0.189583
20
0.514792
0
VERTEX
8
0
10
-0.188125
20
0.514792
0
VERTEX
8
0
10
-0.186667
20
0.514792
0
VERTEX
8
0
10
-0.185208
20
0.514792
0
VERTEX
8
0
10
-0.183750
20
0.514792
0
VERTEX
8
0
10
-0.182292
20
0.514792
0
VERTEX
8
0
10
-0.180833
20
0.514792
0
VERTEX
8
0
10
-0.179375
20
0.514792
0
VERTEX
8
0
10
-0.177917
20
0.514792
0
VERTEX
8
0
10
-0.176458
20
0.514792
0
VERTEX
8
0
10
-0.175000
20
0.514792
0
VERTEX
8
0
10
-0.173542
20
0.514792
0
VERTEX
8
0
10
-0.172083
20
0.514792
0
VERTEX
8
0
10
-0.170625
20
0.514792
0
VERTEX
8
0
10
-0.169167
20
0.514792
0
VERTEX
8
0
10
-0.167708
20
0.514792
0
VERTEX
8
0
10
-0.166250
20
0.514792
0
VERTEX
8
0
10
-0.164792
20
0.514792
0
VERTEX
8
0
10
-0.163333
20
0.514792
0
VERTEX
8
0
10
-0.161875
20
0.514792
0
VERTEX
8
0
10
-0.160417
20
0.514792
0
VERTEX
8
0
10
-0.158958
20
0.514792
0
VERTEX
8
0
10
-0.157500
20
0.514792
0
VERTEX
8
0
10
-0.156042
20
0.514792
0
VERTEX
8
0
10
-0.154583
20
0.516250
0
VERTEX
8
0
10
-0.153125
20
0.516250
0
VERTEX
8
0
10
-0.151667
20
0.516250
0
VERTEX
8
0
10
-0.150208
20
0.516250
0
VERTEX
8
0
10
-0.148750
20
0.516250
0
VERTEX
8
0
10
-0.147292
20
0.516250
0
VERTEX
8
0
10
-0.145833
20
0.516250
0
VERTEX
8
0
10
-0.144375
20
0.516250
0
VERTEX
8
0
10
-0.142917
20
0.516250
0
VERTEX
8
0
10
-0.141458
20
0.517708
0
VERTEX
8
0
10
-0.140000
20
0.517708
0
VERTEX
8
0
10
-0.138542
20
0.517708
0
VERTEX
8
0
10
-0.137083
20
0.517708
0
VERTEX
8
0
10
-0.135625
20
0.517708
0
VERTEX
8
0
10
-0.134167
20
0.517708
0
VERTEX
8
0
10
-0.132708
20
0.517708
0
VERTEX
8
0
10
-0.131250
20
0.517708
0
VERTEX
8
0
10
-0.129792
20
0.519167
0
VERTEX
8
0
10
-0.128333
20
0.519167
0
VERTEX
8
0
10
-0.126875
20
0.519167
0
VERTEX
8
0
10
-0.125417
20
0.519167
0
VERTEX
8
0
10
-0.123958
20
0.519167
0
VERTEX
8
0
10
-0.122500
20
0.520625
0
VERTEX
8
0
10
-0.121042
20
0.520625
0
VERTEX
8
0
10
-0.119583
20
0.520625
0
VERTEX
8
0
10
-0.118125
20
0.520625
0
VERTEX
8
0
10
-0.116667
20
0.522083
0
VERTEX
8
0
10
-0.115208
20
0.522083
0
VERTEX
8
0
10
-0.113750
20
0.522083
0
VERTEX
8
0
10
-0.112292
20
0.522083
0
VERTEX
8
0
10
-0.110833
20
0.523542
0
VERTEX
8
0
10
-0.109375
20
0.523542
0
VERTEX
8
0
10
-0.107917
20
0.523542
0
VERTEX
8
0
10
-0.106458
20
0.523542
0
VERTEX
8
0
10
-0.105000
20
0.525000
0
VERTEX
8
0
10
-0.103542
20
0.525000
0
VERTEX
8
0
10
-0.102083
20
0.525000
0
VERTEX
8
0
10
-0.100625
20
0.525000
0
VERTEX
8
0
10
-0.099167
20
0.526458
0
VERTEX
8
0
10
-0.097708
20
0.526458
0
VERTEX
8
0
10
-0.096250
20
0.526458
0
VERTEX
8
0
10
-0.094792
20
0.527917
0
VERTEX
8
0
10
-0.093333
20
0.527917
0
VERTEX
8
0
10
-0.091875
20
0.527917
0
VERTEX
8
0
10
-0.090417
20
0.527917
0
VERTEX
8
0
10
-0.088958
20
0.529375
0
VERTEX
8
0
10
-0.087500
20
0.529375
0
VERTEX
8
0
10
-0.086042
20
0.529375
0
VERTEX
8
0
10
-0.084583
20
0.530833
0
VERTEX
8
0
10
-0.083125
20
0.530833
0
VERTEX
8
0
10
-0.081667
20
0.530833
0
VERTEX
8
0
10
-0.080208
20
0.530833
0
VERTEX
8
0
10
-0.078750
20
0.532292
0
VERTEX
8
0
10
-0.077292
20
0.532292
0
VERTEX
8
0
10
-0.075833
20
0.532292
0
VERTEX
8
0
10
-0.074375
20
0.533750
0
VERTEX
8
0
10
-0.072917
20
0.533750
0
VERTEX
8
0
10
-0.071458
20
0.533750
0
VERTEX
8
0
10
-0.070000
20
0.533750
0
VERTEX
8
0
10
-0.068542
20
0.535208
0
VERTEX
8
0
10
-0.067083
20
0.535208
0
VERTEX
8
0
10
-0.065625
20
0.535208
0
VERTEX
8
0
10
-0.064167
20
0.535208
0
VERTEX
8
0
10
-0.062708
20
0.536667
0
VERTEX
8
0
10
-0.061250
20
0.536667
0
VERTEX
8
0
10
-0.059792
20
0.536667
0
VERTEX
8
0
10
-0.058333
20
0.536667
0
VERTEX
8
0
10
-0.056875
20
0.538125
0
VERTEX
8
0
10
-0.055417
20
0.538125
0
VERTEX
8
0
10
-0.053958
20
0.538125
0
VERTEX
8
0
10
-0.052500
20
0.538125
0
VERTEX
8
0
10
-0.051042
20
0.538125
0
VERTEX
8
0
10
-0.049583
20
0.539583
0
VERTEX
8
0
10
-0.048125
20
0.539583
0
VERTEX
8
0
10
-0.046667
20
0.539583
0
VERTEX
8
0
10
-0.045208
20
0.539583
0
VERTEX
8
0
10
-0.043750
20
0.539583
0
VERTEX
8
0
10
-0.042292
20
0.539583
0
VERTEX
8
0
10
-0.040833
20
0.541042
0
VERTEX
8
0
10
-0.039375
20
0.541042
0
VERTEX
8
0
10
-0.037917
20
0.541042
0
VERTEX
8
0
10
-0.036458
20
0.541042
0
VERTEX
8
0
10
-0.035000
20
0.541042
0
VERTEX
8
0
10
-0.033542
20
0.541042
0
VERTEX
8
0
10
-0.032083
20
0.541042
0
VERTEX
8
0
10
-0.030625
20
0.542500
0
VERTEX
8
0
10
-0.029167
20
0.542500
0
VERTEX
8
0
10
-0.027708
20
0.542500
0
VERTEX
8
0
10
-0.026250
20
0.542500
0
VERTEX
8
0
10
-0.024792
20
0.542500
0
VERTEX
8
0
10
-0.023333
20
0.542500
0
VERTEX
8
0
10
-0.021875
20
0.542500
0
VERTEX
8
0
10
-0.020417
20
0.542500
0
VERTEX
8
0
10
-0.018958
20
0.542500
0
VERTEX
8
0
10
-0.017500
20
0.542500
0
VERTEX
8
0
10
-0.016042
20
0.542500
0
VERTEX
8
0
10
-0.014583
20
0.543958
0
VERTEX
8
0
10
-0.013125
20
0.543958
0
VERTEX
8
0
10
-0.011667
20
0.543958
0
VERTEX
8
0
10
-0.010208
20
0.543958
0
VERTEX
8
0
10
-0.008750
20
0.543958
0
VERTEX
8
0
10
-0.007292
20
0.543958
0
VERTEX
8
0
10
-0.005833
20
0.543958
0
VERTEX
8
0
10
-0.004375
20
0.543958
0
VERTEX
8
0
10
-0.002917
20
0.543958
0
VERTEX
8
0
10
-0.001458
20
0.543958
0
VERTEX
8
0
10
0.000000
20
0.543958
0
VERTEX
8
0
10
0.001458
20
0.543958
0
VERTEX
8
0
10
0.002917
20
0.543958
0
VERTEX
8
0
10
0.004375
20
0.543958
0
VERTEX
8
0
10
0.005833
20
0.543958
0
VERTEX
8
0
10
0.007292
20
0.543958
0
VERTEX
8
0
10
0.008750
20
0.543958
0
VERTEX
8
0
10
0.010208
20
0.543958
0
VERTEX
8
0
10
0.011667
20
0.543958
0
VERTEX
8
0
10
0.013125
20
0.543958
0
VERTEX
8
0
10
0.014583
20
0.543958
0
VERTEX
8
0
10
0.016042
20
0.543958
0
VERTEX
8
0
10
0.017500
20
0.543958
0
VERTEX
8
0
10
0.018958
20
0.543958
0
VERTEX
8
0
10
0.020417
20
0.543958
0
VERTEX
8
0
10
0.021875
20
0.543958
0
VERTEX
8
0
10
0.023333
20
0.543958
0
VERTEX
8
0
10
0.024792
20
0.543958
0
VERTEX
8
0
10
0.026250
20
0.543958
0
VERTEX
8
0
10
0.027708
20
0.543958
0
VERTEX
8
0
10
0.029167
20
0.543958
0
VERTEX
8
0
10
0.030625
20
0.543958
0
VERTEX
8
0
10
0.032083
20
0.543958
0
VERTEX
8
0
10
0.033542
20
0.543958
0
VERTEX
8
0
10
0.035000
20
0.543958
0
VERTEX
8
0
10
0.036458
20
0.543958
0
VERTEX
8
0
10
0.037917
20
0.543958
0
VERTEX
8
0
10
0.039375
20
0.543958
0
VERTEX
8
0
10
0.040833
20
0.543958
0
VERTEX
8
0
10
0.042292
20
0.543958
0
VERTEX
8
0
10
0.043750
20
0.543958
0
VERTEX
8
0
10
0.045208
20
0.543958
0
VERTEX
8
0
10
0.046667
20
0.543958
0
VERTEX
8
0
10
0.048125
20
0.542500
0
VERTEX
8
0
10
0.049583
20
0.542500
0
VERTEX
8
0
10
0.051042
20
0.542500
0
VERTEX
8
0
10
0.052500
20
0.542500
0
VERTEX
8
0
10
0.053958
20
0.542500
0
VERTEX
8
0
10
0.055417
20
0.542500
0
VERTEX
8
0
10
0.056875
20
0.542500
0
VERTEX
8
0
10
0.058333
20
0.542500
0
VERTEX
8
0
10
0.059792
20
0.542500
0
VERTEX
8
0
10
0.061250
20
0.542500
0
VERTEX
8
0
10
0.062708
20
0.542500
0
VERTEX
8
0
10
0.064167
20
0.542500
0
VERTEX
8
0
10
0.065625
20
0.542500
0
VERTEX
8
0
10
0.067083
20
0.542500
0
VERTEX
8
0
10
0.068542
20
0.542500
0
VERTEX
8
0
10
0.070000
20
0.542500
0
VERTEX
8
0
10
0.071458
20
0.542500
0
VERTEX
8
0
10
0.072917
20
0.541042
0
VERTEX
8
0
10
0.074375
20
0.541042
0
VERTEX
8
0
10
0.075833
20
0.541042
0
VERTEX
8
0
10
0.077292
20
0.542500
0
VERTEX
8
0
10
0.078750
20
0.541042
0
VERTEX
8
0
10
0.080208
20
0.541042
0
VERTEX
8
0
10
0.081667
20
0.541042
0
VERTEX
8
0
10
0.083125
20
0.541042
0
VERTEX
8
0
10
0.084583
20
0.541042
0
VERTEX
8
0
10
0.086042
20
0.541042
0
VERTEX
8
0
10
0.087500
20
0.541042
0
VERTEX
8
0
10
0.088958
20
0.541042
0
VERTEX
8
0
10
0.090417
20
0.541042
0
VERTEX
8
0
10
0.091875
20
0.541042
0
VERTEX
8
0
10
0.093333
20
0.541042
0
VERTEX
8
0
10
0.094792
20
0.541042
0
VERTEX
8
0
10
0.096250
20
0.541042
0
VERTEX
8
0
10
0.097708
20
0.541042
0
VERTEX
8
0
10
0.099167
20
0.541042
0
VERTEX
8
0
10
0.100625
20
0.541042
0
VERTEX
8
0
10
0.102083
20
0.539583
0
VERTEX
8
0
10
0.103542
20
0.539583
0
VERTEX
8
0
10
0.105000
20
0.539583
0
VERTEX
8
0
10
0.106458
20
0.539583
0
VERTEX
8
0
10
0.107917
20
0.539583
0
VERTEX
8
0
10
0.109375
20
0.539583
0
VERTEX
8
0
10
0.110833
20
0.539583
0
VERTEX
8
0
10
0.112292
20
0.539583
0
VERTEX
8
0
10
0.113750
20
0.539583
0
VERTEX
8
0
10
0.115208
20
0.539583
0
VERTEX
8
0
10
0.116667
20
0.539583
0
VERTEX
8
0
10
0.118125
20
0.539583
0
VERTEX
8
0
10
0.119583
20
0.539583
0
VERTEX
8
0
10
0.121042
20
0.539583
0
VERTEX
8
0
10
0.122500
20
0.539583
0
VERTEX
8
0
10
0.123958
20
0.539583
0
VERTEX
8
0
10
0.125417
20
0.539583
0
VERTEX
8
0
10
0.126875
20
0.539583
0
VERTEX
8
0
10
0.128333
20
0.539583
0
VERTEX
8
0
10
0.129792
20
0.539583
0
VERTEX
8
0
10
0.131250
20
0.539583
0
VERTEX
8
0
10
0.132708
20
0.539583
0
VERTEX
8
0
10
0.134167
20
0.539583
0
VERTEX
8
0
10
0.135625
20
0.539583
0
VERTEX
8
0
10
0.137083
20
0.539583
0
VERTEX
8
0
10
0.138542
20
0.539583
0
VERTEX
8
0
10
0.140000
20
0.539583
0
VERTEX
8
0
10
0.141458
20
0.539583
0
VERTEX
8
0
10
0.142917
20
0.539583
0
VERTEX
8
0
10
0.144375
20
0.539583
0
VERTEX
8
0
10
0.145833
20
0.539583
0
VERTEX
8
0
10
0.147292
20
0.539583
0
VERTEX
8
0
10
0.148750
20
0.539583
0
VERTEX
8
0
10
0.150208
20
0.539583
0
VERTEX
8
0
10
0.151667
20
0.539583
0
VERTEX
8
0
10
0.153125
20
0.539583
0
VERTEX
8
0
10
0.154583
20
0.539583
0
VERTEX
8
0
10
0.156042
20
0.539583
0
VERTEX
8
0
10
0.157500
20
0.539583
0
VERTEX
8
0
10
0.158958
20
0.539583
0
VERTEX
8
0
10
0.160417
20
0.539583
0
VERTEX
8
0
10
0.161875
20
0.541042
0
VERTEX
8
0
10
0.163333
20
0.541042
0
VERTEX
8
0
10
0.164792
20
0.541042
0
VERTEX
8
0
10
0.166250
20
0.541042
0
VERTEX
8
0
10
0.167708
20
0.541042
0
VERTEX
8
0
10
0.169167
20
0.541042
0
VERTEX
8
0
10
0.170625
20
0.541042
0
VERTEX
8
0
10
0.172083
20
0.541042
0
VERTEX
8
0
10
0.173542
20
0.541042
0
VERTEX
8
0
10
0.175000
20
0.541042
0
VERTEX
8
0
10
0.176458
20
0.541042
0
VERTEX
8
0
10
0.177917
20
0.541042
0
VERTEX
8
0
10
0.179375
20
0.542500
0
VERTEX
8
0
10
0.180833
20
0.542500
0
VERTEX
8
0
10
0.182292
20
0.542500
0
VERTEX
8
0
10
0.183750
20
0.542500
0
VERTEX
8
0
10
0.185208
20
0.542500
0
VERTEX
8
0
10
0.186667
20
0.542500
0
VERTEX
8
0
10
0.188125
20
0.543958
0
VERTEX
8
0
10
0.189583
20
0.543958
0
VERTEX
8
0
10
0.191042
20
0.543958
0
VERTEX
8
0
10
0.192500
20
0.543958
0
VERTEX
8
0
10
0.193958
20
0.543958
0
VERTEX
8
0
10
0.195417
20
0.543958
0
VERTEX
8
0
10
0.196875
20
0.545417
0
VERTEX
8
0
10
0.198333
20
0.545417
0
VERTEX
8
0
10
0.199792
20
0.545417
0
VERTEX
8
0
10
0.201250
20
0.545417
0
VERTEX
8
0
10
0.202708
20
0.546875
0
VERTEX
8
0
10
0.204167
20
0.546875
0
VERTEX
8
0
10
0.205625
20
0.546875
0
VERTEX
8
0
10
0.207083
20
0.546875
0
VERTEX
8
0
10
0.208542
20
0.548333
0
VERTEX
8
0
10
0.210000
20
0.548333
0
VERTEX
8
0
10
0.211458
20
0.548333
0
VERTEX
8
0
10
0.212917
20
0.548333
0
VERTEX
8
0
10
0.214375
20
0.549792
0
VERTEX
8
0
10
0.215833
20
0.549792
0
VERTEX
8
0
10
0.217292
20
0.549792
0
VERTEX
8
0
10
0.218750
20
0.551250
0
VERTEX
8
0
10
0.220208
20
0.551250
0
VERTEX
8
0
10
0.221667
20
0.551250
0
VERTEX
8
0
10
0.223125
20
0.552708
0
VERTEX
8
0
10
0.224583
20
0.552708
0
VERTEX
8
0
10
0.226042
20
0.552708
0
VERTEX
8
0
10
0.227500
20
0.554167
0
VERTEX
8
0
10
0.228958
20
0.554167
0
VERTEX
8
0
10
0.230417
20
0.555625
0
VERTEX
8
0
10
0.231875
20
0.555625
0
VERTEX
8
0
10
0.233333
20
0.555625
0
VERTEX
8
0
10
0.234792
20
0.557083
0
VERTEX
8
0
10
0.236250
20
0.557083
0
VERTEX
8
0
10
0.237708
20
0.558542
0
VERTEX
8
0
10
0.239167
20
0.558542
0
VERTEX
8
0
10
0.240625
20
0.560000
0
VERTEX
8
0
10
0.242083
20
0.560000
0
VERTEX
8
0
10
0.243542
20
0.560000
0
VERTEX
8
0
10
0.245000
20
0.561458
0
VERTEX
8
0
10
0.246458
20
0.562917
0
VERTEX
8
0
10
0.247917
20
0.562917
0
VERTEX
8
0
10
0.249375
20
0.564375
0
VERTEX
8
0
10
0.250833
20
0.564375
0
VERTEX
8
0
10
0.252292
20
0.564375
0
VERTEX
8
0
10
0.253750
20
0.564375
0
VERTEX
8
0
10
0.255208
20
0.562917
0
VERTEX
8
0
10
0.256667
20
0.561458
0
VERTEX
8
0
10
0.258125
20
0.560000
0
VERTEX
8
0
10
0.258125
20
0.558542
0
VERTEX
8
0
10
0.259583
20
0.557083
0
VERTEX
8
0
10
0.259583
20
0.555625
0
VERTEX
8
0
10
0.261042
20
0.554167
0
VERTEX
8
0
10
0.261042
20
0.552708
0
VERTEX
8
0
10
0.261042
20
0.551250
0
VERTEX
8
0
10
0.261042
20
0.549792
0
VERTEX
8
0
10
0.261042
20
0.548333
0
VERTEX
8
0
10
0.261042
20
0.546875
0
VERTEX
8
0
10
0.261042
20
0.545417
0
VERTEX
8
0
10
0.261042
20
0.543958
0
VERTEX
8
0
10
0.261042
20
0.542500
0
VERTEX
8
0
10
0.261042
20
0.541042
0
VERTEX
8
0
10
0.261042
20
0.539583
0
VERTEX
8
0
10
0.259583
20
0.538125
0
VERTEX
8
0
10
0.259583
20
0.536667
0
VERTEX
8
0
10
0.259583
20
0.535208
0
VERTEX
8
0
10
0.258125
20
0.533750
0
VERTEX
8
0
10
0.258125
20
0.532292
0
VERTEX
8
0
10
0.256667
20
0.530833
0
VERTEX
8
0
10
0.256667
20
0.529375
0
VERTEX
8
0
10
0.255208
20
0.527917
0
VERTEX
8
0
10
0.255208
20
0.526458
0
VERTEX
8
0
10
0.253750
20
0.525000
0
VERTEX
8
0
10
0.253750
20
0.523542
0
VERTEX
8
0
10
0.252292
20
0.522083
0
VERTEX
8
0
10
0.252292
20
0.520625
0
VERTEX
8
0
10
0.250833
20
0.519167
0
VERTEX
8
0
10
0.249375
20
0.517708
0
VERTEX
8
0
10
0.247917
20
0.516250
0
VERTEX
8
0
10
0.246458
20
0.514792
0
VERTEX
8
0
10
0.246458
20
0.513333
0
VERTEX
8
0
10
0.245000
20
0.511875
0
VERTEX
8
0
10
0.243542
20
0.510417
0
VERTEX
8
0
10
0.242083
20
0.510417
0
VERTEX
8
0
10
0.240625
20
0.508958
0
VERTEX
8
0
10
0.239167
20
0.507500
0
VERTEX
8
0
10
0.237708
20
0.506042
0
VERTEX
8
0
10
0.236250
20
0.504583
0
VERTEX
8
0
10
0.234792
20
0.503125
0
VERTEX
8
0
10
0.233333
20
0.501667
0
VERTEX
8
0
10
0.231875
20
0.500208
0
VERTEX
8
0
10
0.230417
20
0.498750
0
VERTEX
8
0
10
0.228958
20
0.497292
0
VERTEX
8
0
10
0.227500
20
0.495833
0
VERTEX
8
0
10
0.226042
20
0.494375
0
VERTEX
8
0
10
0.224583
20
0.492917
0
VERTEX
8
0
10
0.223125
20
0.491458
0
VERTEX
8
0
10
0.221667
20
0.490000
0
VERTEX
8
0
10
0.220208
20
0.488542
0
VERTEX
8
0
10
0.218750
20
0.487083
0
VERTEX
8
0
10
0.217292
20
0.485625
0
VERTEX
8
0
10
0.217292
20
0.484167
0
VERTEX
8
0
10
0.215833
20
0.482708
0
VERTEX
8
0
10
0.214375
20
0.481250
0
VERTEX
8
0
10
0.214375
20
0.479792
0
VERTEX
8
0
10
0.212917
20
0.478333
0
VERTEX
8
0
10
0.212917
20
0.476875
0
VERTEX
8
0
10
0.211458
20
0.475417
0
VERTEX
8
0
10
0.211458
20
0.473958
0
VERTEX
8
0
10
0.210000
20
0.472500
0
VERTEX
8
0
10
0.210000
20
0.471042
0
VERTEX
8
0
10
0.210000
20
0.469583
0
VERTEX
8
0
10
0.210000
20
0.468125
0
VERTEX
8
0
10
0.210000
20
0.466667
0
VERTEX
8
0
10
0.210000
20
0.465208
0
VERTEX
8
0
10
0.210000
20
0.463750
0
VERTEX
8
0
10
0.210000
20
0.462292
0
VERTEX
8
0
10
0.210000
20
0.460833
0
VERTEX
8
0
10
0.210000
20
0.459375
0
VERTEX
8
0
10
0.210000
20
0.457917
0
VERTEX
8
0
10
0.210000
20
0.456458
0
VERTEX
8
0
10
0.211458
20
0.455000
0
VERTEX
8
0
10
0.212917
20
0.455000
0
VERTEX
8
0
10
0.214375
20
0.455000
0
VERTEX
8
0
10
0.215833
20
0.455000
0
VERTEX
8
0
10
0.217292
20
0.455000
0
VERTEX
8
0
10
0.218750
20
0.455000
0
VERTEX
8
0
10
0.220208
20
0.456458
0
VERTEX
8
0
10
0.221667
20
0.456458
0
VERTEX
8
0
10
0.223125
20
0.456458
0
VERTEX
8
0
10
0.224583
20
0.456458
0
VERTEX
8
0
10
0.226042
20
0.456458
0
VERTEX
8
0
10
0.227500
20
0.456458
0
VERTEX
8
0
10
0.228958
20
0.457917
0
VERTEX
8
0
10
0.230417
20
0.457917
0
VERTEX
8
0
10
0.231875
20
0.457917
0
VERTEX
8
0
10
0.233333
20
0.457917
0
VERTEX
8
0
10
0.234792
20
0.459375
0
VERTEX
8
0
10
0.236250
20
0.459375
0
VERTEX
8
0
10
0.237708
20
0.459375
0
VERTEX
8
0
10
0.239167
20
0.460833
0
VERTEX
8
0
10
0.240625
20
0.460833
0
VERTEX
8
0
10
0.242083
20
0.460833
0
VERTEX
8
0
10
0.243542
20
0.460833
0
VERTEX
8
0
10
0.245000
20
0.462292
0
VERTEX
8
0
10
0.246458
20
0.462292
0
VERTEX
8
0
10
0.247917
20
0.462292
0
VERTEX
8
0
10
0.249375
20
0.463750
0
VERTEX
8
0
10
0.250833
20
0.463750
0
VERTEX
8
0
10
0.252292
20
0.465208
0
VERTEX
8
0
10
0.253750
20
0.465208
0
VERTEX
8
0
10
0.255208
20
0.466667
0
VERTEX
8
0
10
0.256667
20
0.466667
0
VERTEX
8
0
10
0.258125
20
0.466667
0
VERTEX
8
0
10
0.259583
20
0.468125
0
VERTEX
8
0
10
0.261042
20
0.468125
0
VERTEX
8
0
10
0.262500
20
0.469583
0
VERTEX
8
0
10
0.263958
20
0.469583
0
VERTEX
8
0
10
0.265417
20
0.471042
0
VERTEX
8
0
10
0.266875
20
0.471042
0
VERTEX
8
0
10
0.268333
20
0.472500
0
VERTEX
8
0
10
0.269792
20
0.473958
0
VERTEX
8
0
10
0.271250
20
0.473958
0
VERTEX
8
0
10
0.272708
20
0.475417
0
VERTEX
8
0
10
0.274167
20
0.475417
0
VERTEX
8
0
10
0.275625
20
0.476875
0
VERTEX
8
0
10
0.277083
20
0.476875
0
VERTEX
8
0
10
0.278542
20
0.478333
0
VERTEX
8
0
10
0.280000
20
0.479792
0
VERTEX
8
0
10
0.281458
20
0.481250
0
VERTEX
8
0
10
0.282917
20
0.481250
0
VERTEX
8
0
10
0.284375
20
0.482708
0
VERTEX
8
0
10
0.285833
20
0.484167
0
VERTEX
8
0
10
0.287292
20
0.484167
0
VERTEX
8
0
10
0.288750
20
0.485625
0
VERTEX
8
0
10
0.290208
20
0.487083
0
VERTEX
8
0
10
0.291667
20
0.488542
0
VERTEX
8
0
10
0.293125
20
0.490000
0
VERTEX
8
0
10
0.294583
20
0.491458
0
VERTEX
8
0
10
0.296042
20
0.492917
0
VERTEX
8
0
10
0.297500
20
0.492917
0
VERTEX
8
0
10
0.298958
20
0.494375
0
VERTEX
8
0
10
0.300417
20
0.495833
0
VERTEX
8
0
10
0.300417
20
0.494375
0
VERTEX
8
0
10
0.300417
20
0.492917
0
VERTEX
8
0
10
0.301875
20
0.491458
0
VERTEX
8
0
10
0.301875
20
0.490000
0
VERTEX
8
0
10
0.303333
20
0.488542
0
VERTEX
8
0
10
0.303333
20
0.487083
0
VERTEX
8
0
10
0.304792
20
0.485625
0
VERTEX
8
0
10
0.306250
20
0.484167
0
VERTEX
8
0
10
0.307708
20
0.482708
0
VERTEX
8
0
10
0.309167
20
0.481250
0
VERTEX
8
0
10
0.310625
20
0.479792
0
VERTEX
8
0
10
0.312083
20
0.478333
0
VERTEX
8
0
10
0.313542
20
0.476875
0
VERTEX
8
0
10
0.315000
20
0.476875
0
VERTEX
8
0
10
0.316458
20
0.475417
0
VERTEX
8
0
10
0.317917
20
0.475417
0
VERTEX
8
0
10
0.319375
20
0.473958
0
VERTEX
8
0
10
0.320833
20
0.473958
0
VERTEX
8
0
10
0.322292
20
0.473958
0
VERTEX
8
0
10
0.323750
20
0.472500
0
VERTEX
8
0
10
0.325208
20
0.472500
0
VERTEX
8
0
10
0.326667
20
0.472500
0
VERTEX
8
0
10
0.328125
20
0.472500
0
VERTEX
8
0
10
0.329583
20
0.471042
0
VERTEX
8
0
10
0.331042
20
0.471042
0
VERTEX
8
0
10
0.332500
20
0.471042
0
VERTEX
8
0
10
0.333958
20
0.471042
0
VERTEX
8
0
10
0.335417
20
0.471042
0
VERTEX
8
0
10
0.336875
20
0.471042
0
VERTEX
8
0
10
0.338333
20
0.471042
0
VERTEX
8
0
10
0.339792
20
0.471042
0
VERTEX
8
0
10
0.341250
20
0.471042
0
VERTEX
8
0
10
0.342708
20
0.471042
0
VERTEX
8
0
10
0.344167
20
0.471042
0
VERTEX
8
0
10
0.345625
20
0.471042
0
VERTEX
8
0
10
0.347083
20
0.471042
0
VERTEX
8
0
10
0.348542
20
0.471042
0
VERTEX
8
0
10
0.350000
20
0.472500
0
VERTEX
8
0
10
0.351458
20
0.472500
0
VERTEX
8
0
10
0.352917
20
0.472500
0
VERTEX
8
0
10
0.354375
20
0.472500
0
VERTEX
8
0
10
0.355833
20
0.472500
0
VERTEX
8
0
10
0.357292
20
0.473958
0
VERTEX
8
0
10
0.358750
20
0.473958
0
VERTEX
8
0
10
0.360208
20
0.473958
0
VERTEX
8
0
10
0.361667
20
0.475417
0
VERTEX
8
0
10
0.363125
20
0.475417
0
VERTEX
8
0
10
0.364583
20
0.475417
0
VERTEX
8
0
10
0.366042
20
0.476875
0
VERTEX
8
0
10
0.367500
20
0.476875
0
VERTEX
8
0
10
0.368958
20
0.478333
0
VERTEX
8
0
10
0.370417
20
0.478333
0
VERTEX
8
0
10
0.371875
20
0.478333
0
VERTEX
8
0
10
0.373333
20
0.479792
0
VERTEX
8
0
10
0.374792
20
0.479792
0
VERTEX
8
0
10
0.376250
20
0.481250
0
VERTEX
8
0
10
0.377708
20
0.481250
0
VERTEX
8
0
10
0.379167
20
0.482708
0
VERTEX
8
0
10
0.380625
20
0.482708
0
VERTEX
8
0
10
0.382083
20
0.484167
0
VERTEX
8
0
10
0.383542
20
0.484167
0
VERTEX
8
0
10
0.385000
20
0.485625
0
VERTEX
8
0
10
0.386458
20
0.485625
0
VERTEX
8
0
10
0.387917
20
0.487083
0
VERTEX
8
0
10
0.389375
20
0.487083
0
VERTEX
8
0
10
0.390833
20
0.488542
0
VERTEX
8
0
10
0.392292
20
0.488542
0
VERTEX
8
0
10
0.393750
20
0.490000
0
VERTEX
8
0
10
0.395208
20
0.490000
0
VERTEX
8
0
10
0.396667
20
0.490000
0
VERTEX
8
0
10
0.398125
20
0.491458
0
VERTEX
8
0
10
0.399583
20
0.491458
0
VERTEX
8
0
10
0.401042
20
0.492917
0
VERTEX
8
0
10
0.402500
20
0.492917
0
VERTEX
8
0
10
0.403958
20
0.492917
0
VERTEX
8
0
10
0.405417
20
0.494375
0
VERTEX
8
0
10
0.406875
20
0.494375
0
VERTEX
8
0
10
0.408333
20
0.494375
0
VERTEX
8
0
10
0.409792
20
0.495833
0
VERTEX
8
0
10
0.411250
20
0.495833
0
VERTEX
8
0
10
0.412708
20
0.495833
0
VERTEX
8
0
10
0.414167
20
0.495833
0
VERTEX
8
0
10
0.415625
20
0.497292
0
VERTEX
8
0
10
0.417083
20
0.497292
0
VERTEX
8
0
10
0.418542
20
0.497292
0
VERTEX
8
0
10
0.420000
20
0.497292
0
VERTEX
8
0
10
0.421458
20
0.497292
0
VERTEX
8
0
10
0.422917
20
0.497292
0
VERTEX
8
0
10
0.424375
20
0.498750
0
VERTEX
8
0
10
0.425833
20
0.498750
0
VERTEX
8
0
10
0.427292
20
0.498750
0
VERTEX
8
0
10
0.428750
20
0.498750
0
VERTEX
8
0
10
0.430208
20
0.497292
0
VERTEX
8
0
10
0.431667
20
0.497292
0
VERTEX
8
0
10
0.433125
20
0.497292
0
VERTEX
8
0
10
0.434583
20
0.497292
0
VERTEX
8
0
10
0.436042
20
0.497292
0
VERTEX
8
0
10
0.437500
20
0.497292
0
VERTEX
8
0
10
0.438958
20
0.495833
0
VERTEX
8
0
10
0.440417
20
0.495833
0
VERTEX
8
0
10
0.441875
20
0.495833
0
VERTEX
8
0
10
0.443333
20
0.494375
0
VERTEX
8
0
10
0.444792
20
0.494375
0
VERTEX
8
0
10
0.446250
20
0.494375
0
VERTEX
8
0
10
0.447708
20
0.492917
0
VERTEX
8
0
10
0.449167
20
0.492917
0
VERTEX
8
0
10
0.450625
20
0.491458
0
VERTEX
8
0
10
0.452083
20
0.490000
0
VERTEX
8
0
10
0.453542
20
0.490000
0
VERTEX
8
0
10
0.455000
20
0.488542
0
VERTEX
8
0
10
0.456458
20
0.487083
0
VERTEX
8
0
10
0.457917
20
0.487083
0
VERTEX
8
0
10
0.459375
20
0.485625
0
VERTEX
8
0
10
0.460833
20
0.484167
0
VERTEX
8
0
10
0.462292
20
0.482708
0
VERTEX
8
0
10
0.463750
20
0.482708
0
VERTEX
8
0
10
0.465208
20
0.481250
0
VERTEX
8
0
10
0.466667
20
0.479792
0
VERTEX
8
0
10
0.468125
20
0.478333
0
VERTEX
8
0
10
0.469583
20
0.476875
0
VERTEX
8
0
10
0.471042
20
0.475417
0
VERTEX
8
0
10
0.472500
20
0.473958
0
VERTEX
8
0
10
0.473958
20
0.473958
0
VERTEX
8
0
10
0.475417
20
0.472500
0
VERTEX
8
0
10
0.476875
20
0.471042
0
VERTEX
8
0
10
0.478333
20
0.469583
0
VERTEX
8
0
10
0.479792
20
0.468125
0
VERTEX
8
0
10
0.481250
20
0.466667
0
VERTEX
8
0
10
0.482708
20
0.465208
0
VERTEX
8
0
10
0.484167
20
0.463750
0
VERTEX
8
0
10
0.485625
20
0.462292
0
VERTEX
8
0
10
0.487083
20
0.460833
0
VERTEX
8
0
10
0.488542
20
0.459375
0
VERTEX
8
0
10
0.490000
20
0.457917
0
VERTEX
8
0
10
0.491458
20
0.456458
0
VERTEX
8
0
10
0.492917
20
0.455000
0
VERTEX
8
0
10
0.494375
20
0.453542
0
VERTEX
8
0
10
0.495833
20
0.452083
0
VERTEX
8
0
10
0.497292
20
0.450625
0
VERTEX
8
0
10
0.498750
20
0.449167
0
VERTEX
8
0
10
0.500208
20
0.447708
0
VERTEX
8
0
10
0.500208
20
0.446250
0
VERTEX
8
0
10
0.501667
20
0.444792
0
VERTEX
8
0
10
0.503125
20
0.443333
0
VERTEX
8
0
10
0.504583
20
0.441875
0
VERTEX
8
0
10
0.506042
20
0.440417
0
VERTEX
8
0
10
0.507500
20
0.438958
0
VERTEX
8
0
10
0.508958
20
0.437500
0
VERTEX
8
0
10
0.510417
20
0.436042
0
VERTEX
8
0
10
0.510417
20
0.434583
0
VERTEX
8
0
10
0.511875
20
0.433125
0
VERTEX
8
0
10
0.513333
20
0.431667
0
VERTEX
8
0
10
0.514792
20
0.430208
0
VERTEX
8
0
10
0.516250
20
0.428750
0
VERTEX
8
0
10
0.516250
20
0.427292
0
VERTEX
8
0
10
0.517708
20
0.425833
0
VERTEX
8
0
10
0.519167
20
0.424375
0
VERTEX
8
0
10
0.520625
20
0.422917
0
VERTEX
8
0
10
0.520625
20
0.421458
0
VERTEX
8
0
10
0.522083
20
0.420000
0
VERTEX
8
0
10
0.523542
20
0.418542
0
VERTEX
8
0
10
0.525000
20
0.417083
0
VERTEX
8
0
10
0.525000
20
0.415625
0
VERTEX
8
0
10
0.526458
20
0.414167
0
VERTEX
8
0
10
0.527917
20
0.412708
0
VERTEX
8
0
10
0.529375
20
0.411250
0
VERTEX
8
0
10
0.529375
20
0.409792
0
VERTEX
8
0
10
0.530833
20
0.408333
0
VERTEX
8
0
10
0.532292
20
0.406875
0
VERTEX
8
0
10
0.532292
20
0.405417
0
VERTEX
8
0
10
0.533750
20
0.403958
0
VERTEX
8
0
10
0.535208
20
0.402500
0
VERTEX
8
0
10
0.535208
20
0.401042
0
VERTEX
8
0
10
0.536667
20
0.399583
0
VERTEX
8
0
10
0.538125
20
0.398125
0
VERTEX
8
0
10
0.538125
20
0.396667
0
VERTEX
8
0
10
0.539583
20
0.395208
0
VERTEX
8
0
10
0.541042
20
0.393750
0
VERTEX
8
0
10
0.541042
20
0.392292
0
VERTEX
8
0
10
0.542500
20
0.390833
0
VERTEX
8
0
10
0.543958
20
0.389375
0
VERTEX
8
0
10
0.543958
20
0.387917
0
VERTEX
8
0
10
0.545417
20
0.386458
0
VERTEX
8
0
10
0.545417
20
0.385000
0
VERTEX
8
0
10
0.546875
20
0.383542
0
VERTEX
8
0
10
0.548333
20
0.382083
0
VERTEX
8
0
10
0.548333
20
0.380625
0
VERTEX
8
0
10
0.549792
20
0.379167
0
VERTEX
8
0
10
0.549792
20
0.377708
0
VERTEX
8
0
10
0.551250
20
0.376250
0
VERTEX
8
0
10
0.552708
20
0.374792
0
VERTEX
8
0
10
0.552708
20
0.373333
0
VERTEX
8
0
10
0.554167
20
0.371875
0
VERTEX
8
0
10
0.554167
20
0.370417
0
VERTEX
8
0
10
0.555625
20
0.368958
0
VERTEX
8
0
10
0.557083
20
0.367500
0
VERTEX
8
0
10
0.557083
20
0.366042
0
VERTEX
8
0
10
0.558542
20
0.364583
0
VERTEX
8
0
10
0.558542
20
0.363125
0
VERTEX
8
0
10
0.560000
20
0.361667
0
VERTEX
8
0
10
0.560000
20
0.360208
0
VERTEX
8
0
10
0.561458
20
0.358750
0
VERTEX
8
0
10
0.561458
20
0.357292
0
VERTEX
8
0
10
0.562917
20
0.355833
0
VERTEX
8
0
10
0.562917
20
0.354375
0
VERTEX
8
0
10
0.564375
20
0.352917
0
VERTEX
8
0
10
0.564375
20
0.351458
0
VERTEX
8
0
10
0.565833
20
0.350000
0
VERTEX
8
0
10
0.565833
20
0.348542
0
VERTEX
8
0
10
0.565833
20
0.347083
0
VERTEX
8
0
10
0.567292
20
0.345625
0
VERTEX
8
0
10
0.567292
20
0.344167
0
VERTEX
8
0
10
0.568750
20
0.342708
0
VERTEX
8
0
10
0.568750
20
0.341250
0
VERTEX
8
0
10
0.568750
20
0.339792
0
VERTEX
8
0
10
0.570208
20
0.338333
0
VERTEX
8
0
10
0.570208
20
0.336875
0
VERTEX
8
0
10
0.570208
20
0.335417
0
VERTEX
8
0
10
0.571667
20
0.333958
0
VERTEX
8
0
10
0.571667
20
0.332500
0
VERTEX
8
0
10
0.571667
20
0.331042
0
VERTEX
8
0
10
0.571667
20
0.329583
0
VERTEX
8
0
10
0.573125
20
0.328125
0
VERTEX
8
0
10
0.573125
20
0.326667
0
VERTEX
8
0
10
0.573125
20
0.325208
0
VERTEX
8
0
10
0.573125
20
0.323750
0
VERTEX
8
0
10
0.573125
20
0.322292
0
VERTEX
8
0
10
0.574583
20
0.320833
0
VERTEX
8
0
10
0.574583
20
0.319375
0
VERTEX
8
0
10
0.574583
20
0.317917
0
VERTEX
8
0
10
0.574583
20
0.316458
0
VERTEX
8
0
10
0.574583
20
0.315000
0
VERTEX
8
0
10
0.574583
20
0.313542
0
VERTEX
8
0
10
0.574583
20
0.312083
0
VERTEX
8
0
10
0.574583
20
0.310625
0
VERTEX
8
0
10
0.574583
20
0.309167
0
VERTEX
8
0
10
0.574583
20
0.307708
0
VERTEX
8
0
10
0.574583
20
0.306250
0
VERTEX
8
0
10
0.574583
20
0.304792
0
VERTEX
8
0
10
0.574583
20
0.303333
0
VERTEX
8
0
10
0.574583
20
0.301875
0
VERTEX
8
0
10
0.574583
20
0.300417
0
VERTEX
8
0
10
0.574583
20
0.298958
0
VERTEX
8
0
10
0.574583
20
0.297500
0
VERTEX
8
0
10
0.574583
20
0.296042
0
VERTEX
8
0
10
0.574583
20
0.294583
0
VERTEX
8
0
10
0.574583
20
0.293125
0
VERTEX
8
0
10
0.574583
20
0.291667
0
VERTEX
8
0
10
0.574583
20
0.290208
0
VERTEX
8
0
10
0.574583
20
0.288750
0
VERTEX
8
0
10
0.576042
20
0.287292
0
VERTEX
8
0
10
0.576042
20
0.285833
0
VERTEX
8
0
10
0.576042
20
0.284375
0
VERTEX
8
0
10
0.576042
20
0.282917
0
VERTEX
8
0
10
0.576042
20
0.281458
0
VERTEX
8
0
10
0.576042
20
0.280000
0
VERTEX
8
0
10
0.577500
20
0.278542
0
VERTEX
8
0
10
0.577500
20
0.277083
0
VERTEX
8
0
10
0.577500
20
0.275625
0
VERTEX
8
0
10
0.578958
20
0.274167
0
VERTEX
8
0
10
0.578958
20
0.272708
0
VERTEX
8
0
10
0.580417
20
0.271250
0
VERTEX
8
0
10
0.580417
20
0.269792
0
VERTEX
8
0
10
0.581875
20
0.268333
0
VERTEX
8
0
10
0.583333
20
0.266875
0
VERTEX
8
0
10
0.584792
20
0.265417
0
VERTEX
8
0
10
0.586250
20
0.263958
0
VERTEX
8
0
10
0.586250
20
0.262500
0
VERTEX
8
0
10
0.587708
20
0.261042
0
VERTEX
8
0
10
0.589167
20
0.261042
0
VERTEX
8
0
10
0.590625
20
0.259583
0
VERTEX
8
0
10
0.592083
20
0.258125
0
VERTEX
8
0
10
0.593542
20
0.256667
0
VERTEX
8
0
10
0.595000
20
0.255208
0
VERTEX
8
0
10
0.596458
20
0.255208
0
VERTEX
8
0
10
0.597917
20
0.253750
0
VERTEX
8
0
10
0.599375
20
0.253750
0
VERTEX
8
0
10
0.600833
20
0.252292
0
VERTEX
8
0
10
0.602292
20
0.252292
0
VERTEX
8
0
10
0.603750
20
0.252292
0
VERTEX
8
0
10
0.605208
20
0.250833
0
VERTEX
8
0
10
0.606667
20
0.250833
0
VERTEX
8
0
10
0.608125
20
0.250833
0
VERTEX
8
0
10
0.609583
20
0.249375
0
VERTEX
8
0
10
0.611042
20
0.249375
0
VERTEX
8
0
10
0.612500
20
0.249375
0
VERTEX
8
0
10
0.613958
20
0.249375
0
VERTEX
8
0
10
0.615417
20
0.249375
0
VERTEX
8
0
10
0.616875
20
0.249375
0
VERTEX
8
0
10
0.618333
20
0.249375
0
VERTEX
8
0
10
0.619792
20
0.249375
0
VERTEX
8
0
10
0.621250
20
0.249375
0
VERTEX
8
0
10
0.622708
20
0.249375
0
VERTEX
8
0
10
0.624167
20
0.249375
0
VERTEX
8
0
10
0.625625
20
0.249375
0
VERTEX
8
0
10
0.627083
20
0.249375
0
VERTEX
8
0
10
0.628542
20
0.249375
0
VERTEX
8
0
10
0.630000
20
0.249375
0
VERTEX
8
0
10
0.631458
20
0.249375
0
VERTEX
8
0
10
0.632917
20
0.250833
0
VERTEX
8
0
10
0.634375
20
0.250833
0
VERTEX
8
0
10
0.635833
20
0.250833
0
VERTEX
8
0
10
0.637292
20
0.250833
0
VERTEX
8
0
10
0.638750
20
0.252292
0
VERTEX
8
0
10
0.640208
20
0.252292
0
VERTEX
8
0
10
0.641667
20
0.253750
0
VERTEX
8
0
10
0.643125
20
0.253750
0
VERTEX
8
0
10
0.644583
20
0.255208
0
VERTEX
8
0
10
0.646042
20
0.255208
0
VERTEX
8
0
10
0.647500
20
0.256667
0
VERTEX
8
0
10
0.648958
20
0.256667
0
VERTEX
8
0
10
0.650417
20
0.258125
0
VERTEX
8
0
10
0.651875
20
0.258125
0
VERTEX
8
0
10
0.653333
20
0.259583
0
VERTEX
8
0
10
0.654792
20
0.261042
0
VERTEX
8
0
10
0.656250
20
0.262500
0
VERTEX
8
0
10
0.657708
20
0.262500
0
VERTEX
8
0
10
0.659167
20
0.263958
0
VERTEX
8
0
10
0.660625
20
0.265417
0
VERTEX
8
0
10
0.662083
20
0.266875
0
VERTEX
8
0
10
0.663542
20
0.268333
0
VERTEX
8
0
10
0.665000
20
0.269792
0
VERTEX
8
0
10
0.666458
20
0.271250
0
VERTEX
8
0
10
0.667917
20
0.272708
0
VERTEX
8
0
10
0.669375
20
0.274167
0
VERTEX
8
0
10
0.670833
20
0.275625
0
VERTEX
8
0
10
0.672292
20
0.277083
0
VERTEX
8
0
10
0.673750
20
0.278542
0
VERTEX
8
0
10
0.675208
20
0.280000
0
VERTEX
8
0
10
0.675208
20
0.281458
0
VERTEX
8
0
10
0.676667
20
0.282917
0
VERTEX
8
0
10
0.678125
20
0.284375
0
VERTEX
8
0
10
0.679583
20
0.285833
0
VERTEX
8
0
10
0.679583
20
0.287292
0
VERTEX
8
0
10
0.681042
20
0.288750
0
VERTEX
8
0
10
0.682500
20
0.290208
0
VERTEX
8
0
10
0.682500
20
0.291667
0
VERTEX
8
0
10
0.683958
20
0.293125
0
VERTEX
8
0
10
0.685417
20
0.294583
0
VERTEX
8
0
10
0.685417
20
0.296042
0
VERTEX
8
0
10
0.686875
20
0.297500
0
VERTEX
8
0
10
0.686875
20
0.298958
0
VERTEX
8
0
10
0.688333
20
0.300417
0
VERTEX
8
0
10
0.688333
20
0.301875
0
VERTEX
8
0
10
0.689792
20
0.303333
0
VERTEX
8
0
10
0.689792
20
0.304792
0
VERTEX
8
0
10
0.691250
20
0.306250
0
VERTEX
8
0
10
0.692708
20
0.307708
0
VERTEX
8
0
10
0.692708
20
0.309167
0
VERTEX
8
0
10
0.694167
20
0.310625
0
VERTEX
8
0
10
0.694167
20
0.312083
0
VERTEX
8
0
10
0.695625
20
0.313542
0
VERTEX
8
0
10
0.695625
20
0.315000
0
VERTEX
8
0
10
0.697083
20
0.316458
0
VERTEX
8
0
10
0.697083
20
0.317917
0
VERTEX
8
0
10
0.698542
20
0.319375
0
VERTEX
8
0
10
0.698542
20
0.320833
0
VERTEX
8
0
10
0.700000
20
0.322292
0
VERTEX
8
0
10
0.700000
20
0.323750
0
VERTEX
8
0
10
0.701458
20
0.325208
0
VERTEX
8
0
10
0.701458
20
0.326667
0
VERTEX
8
0
10
0.702917
20
0.328125
0
VERTEX
8
0
10
0.702917
20
0.329583
0
VERTEX
8
0
10
0.704375
20
0.331042
0
VERTEX
8
0
10
0.704375
20
0.332500
0
VERTEX
8
0
10
0.704375
20
0.333958
0
VERTEX
8
0
10
0.705833
20
0.335417
0
VERTEX
8
0
10
0.705833
20
0.336875
0
VERTEX
8
0
10
0.707292
20
0.338333
0
VERTEX
8
0
10
0.708750
20
0.339792
0
VERTEX
8
0
10
0.708750
20
0.341250
0
VERTEX
8
0
10
0.710208
20
0.342708
0
VERTEX
8
0
10
0.710208
20
0.344167
0
VERTEX
8
0
10
0.711667
20
0.345625
0
VERTEX
8
0
10
0.711667
20
0.347083
0
VERTEX
8
0
10
0.713125
20
0.348542
0
VERTEX
8
0
10
0.713125
20
0.350000
0
VERTEX
8
0
10
0.714583
20
0.351458
0
VERTEX
8
0
10
0.714583
20
0.352917
0
VERTEX
8
0
10
0.716042
20
0.354375
0
VERTEX
8
0
10
0.717500
20
0.355833
0
VERTEX
8
0
10
0.717500
20
0.357292
0
VERTEX
8
0
10
0.718958
20
0.358750
0
VERTEX
8
0
10
0.720417
20
0.360208
0
VERTEX
8
0
10
0.720417
20
0.361667
0
VERTEX
8
0
10
0.721875
20
0.363125
0
VERTEX
8
0
10
0.723333
20
0.364583
0
VERTEX
8
0
10
0.723333
20
0.366042
0
VERTEX
8
0
10
0.724792
20
0.367500
0
VERTEX
8
0
10
0.726250
20
0.368958
0
VERTEX
8
0
10
0.726250
20
0.370417
0
VERTEX
8
0
10
0.727708
20
0.371875
0
VERTEX
8
0
10
0.729167
20
0.373333
0
VERTEX
8
0
10
0.730625
20
0.374792
0
VERTEX
8
0
10
0.732083
20
0.376250
0
VERTEX
8
0
10
0.733542
20
0.377708
0
VERTEX
8
0
10
0.735000
20
0.379167
0
VERTEX
8
0
10
0.736458
20
0.380625
0
VERTEX
8
0
10
0.737917
20
0.382083
0
VERTEX
8
0
10
0.739375
20
0.383542
0
VERTEX
8
0
10
0.740833
20
0.385000
0
VERTEX
8
0
10
0.742292
20
0.386458
0
VERTEX
8
0
10
0.743750
20
0.386458
0
VERTEX
8
0
10
0.745208
20
0.387917
0
VERTEX
8
0
10
0.746667
20
0.389375
0
VERTEX
8
0
10
0.748125
20
0.389375
0
VERTEX
8
0
10
0.749583
20
0.390833
0
VERTEX
8
0
10
0.751042
20
0.392292
0
VERTEX
8
0
10
0.752500
20
0.392292
0
VERTEX
8
0
10
0.753958
20
0.393750
0
VERTEX
8
0
10
0.755417
20
0.395208
0
VERTEX
8
0
10
0.756875
20
0.395208
0
VERTEX
8
0
10
0.758333
20
0.396667
0
VERTEX
8
0
10
0.759792
20
0.396667
0
VERTEX
8
0
10
0.761250
20
0.398125
0
VERTEX
8
0
10
0.762708
20
0.399583
0
VERTEX
8
0
10
0.764167
20
0.399583
0
VERTEX
8
0
10
0.765625
20
0.401042
0
VERTEX
8
0
10
0.767083
20
0.401042
0
VERTEX
8
0
10
0.768542
20
0.402500
0
VERTEX
8
0
10
0.770000
20
0.403958
0
VERTEX
8
0
10
0.771458
20
0.403958
0
VERTEX
8
0
10
0.772917
20
0.405417
0
VERTEX
8
0
10
0.774375
20
0.406875
0
VERTEX
8
0
10
0.775833
20
0.406875
0
VERTEX
8
0
10
0.777292
20
0.408333
0
VERTEX
8
0
10
0.778750
20
0.409792
0
VERTEX
8
0
10
0.780208
20
0.409792
0
VERTEX
8
0
10
0.781667
20
0.411250
0
VERTEX
8
0
10
0.783125
20
0.412708
0
VERTEX
8
0
10
0.784583
20
0.414167
0
VERTEX
8
0
10
0.786042
20
0.415625
0
VERTEX
8
0
10
0.787500
20
0.417083
0
VERTEX
8
0
10
0.788958
20
0.418542
0
VERTEX
8
0
10
0.790417
20
0.420000
0
VERTEX
8
0
10
0.791875
20
0.421458
0
VERTEX
8
0
10
0.793333
20
0.422917
0
VERTEX
8
0
10
0.794792
20
0.424375
0
VERTEX
8
0
10
0.796250
20
0.425833
0
VERTEX
8
0
10
0.797708
20
0.427292
0
VERTEX
8
0
10
0.797708
20
0.428750
0
VERTEX
8
0
10
0.799167
20
0.430208
0
VERTEX
8
0
10
0.799167
20
0.431667
0
VERTEX
8
0
10
0.800625
20
0.433125
0
VERTEX
8
0
10
0.802083
20
0.434583
0
VERTEX
8
0
10
0.802083
20
0.436042
0
VERTEX
8
0
10
0.803542
20
0.437500
0
VERTEX
8
0
10
0.803542
20
0.438958
0
VERTEX
8
0
10
0.805000
20
0.440417
0
VERTEX
8
0
10
0.805000
20
0.441875
0
VERTEX
8
0
10
0.805000
20
0.443333
0
VERTEX
8
0
10
0.806458
20
0.444792
0
VERTEX
8
0
10
0.806458
20
0.446250
0
VERTEX
8
0
10
0.807917
20
0.447708
0
VERTEX
8
0
10
0.807917
20
0.449167
0
VERTEX
8
0
10
0.807917
20
0.450625
0
VERTEX
8
0
10
0.809375
20
0.452083
0
VERTEX
8
0
10
0.809375
20
0.453542
0
VERTEX
8
0
10
0.809375
20
0.455000
0
VERTEX
8
0
10
0.810833
20
0.456458
0
VERTEX
8
0
10
0.810833
20
0.457917
0
VERTEX
8
0
10
0.810833
20
0.459375
0
VERTEX
8
0
10
0.812292
20
0.460833
0
VERTEX
8
0
10
0.812292
20
0.462292
0
VERTEX
8
0
10
0.812292
20
0.463750
0
VERTEX
8
0
10
0.813750
20
0.465208
0
VERTEX
8
0
10
0.813750
20
0.466667
0
VERTEX
8
0
10
0.813750
20
0.468125
0
VERTEX
8
0
10
0.815208
20
0.469583
0
VERTEX
8
0
10
0.815208
20
0.471042
0
VERTEX
8
0
10
0.815208
20
0.472500
0
VERTEX
8
0
10
0.815208
20
0.473958
0
VERTEX
8
0
10
0.816667
20
0.475417
0
VERTEX
8
0
10
0.816667
20
0.476875
0
VERTEX
8
0
10
0.816667
20
0.478333
0
VERTEX
8
0
10
0.818125
20
0.479792
0
VERTEX
8
0
10
0.818125
20
0.481250
0
VERTEX
8
0
10
0.818125
20
0.482708
0
VERTEX
8
0
10
0.819583
20
0.484167
0
VERTEX
8
0
10
0.819583
20
0.485625
0
VERTEX
8
0
10
0.819583
20
0.487083
0
VERTEX
8
0
10
0.821042
20
0.488542
0
VERTEX
8
0
10
0.821042
20
0.490000
0
VERTEX
8
0
10
0.821042
20
0.491458
0
VERTEX
8
0
10
0.822500
20
0.492917
0
VERTEX
8
0
10
0.822500
20
0.494375
0
VERTEX
8
0
10
0.822500
20
0.495833
0
VERTEX
8
0
10
0.823958
20
0.497292
0
VERTEX
8
0
10
0.823958
20
0.498750
0
VERTEX
8
0
10
0.825417
20
0.500208
0
VERTEX
8
0
10
0.825417
20
0.501667
0
VERTEX
8
0
10
0.826875
20
0.503125
0
VERTEX
8
0
10
0.826875
20
0.504583
0
VERTEX
8
0
10
0.828333
20
0.506042
0
VERTEX
8
0
10
0.828333
20
0.507500
0
VERTEX
8
0
10
0.829792
20
0.508958
0
VERTEX
8
0
10
0.829792
20
0.510417
0
VERTEX
8
0
10
0.831250
20
0.511875
0
VERTEX
8
0
10
0.832708
20
0.513333
0
VERTEX
8
0
10
0.834167
20
0.514792
0
VERTEX
8
0
10
0.834167
20
0.516250
0
VERTEX
8
0
10
0.835625
20
0.517708
0
VERTEX
8
0
10
0.837083
20
0.519167
0
VERTEX
8
0
10
0.838542
20
0.520625
0
VERTEX
8
0
10
0.840000
20
0.522083
0
VERTEX
8
0
10
0.841458
20
0.523542
0
VERTEX
8
0
10
0.842917
20
0.525000
0
VERTEX
8
0
10
0.844375
20
0.526458
0
VERTEX
8
0
10
0.845833
20
0.526458
0
VERTEX
8
0
10
0.847292
20
0.527917
0
VERTEX
8
0
10
0.848750
20
0.529375
0
VERTEX
8
0
10
0.850208
20
0.529375
0
VERTEX
8
0
10
0.851667
20
0.530833
0
VERTEX
8
0
10
0.853125
20
0.532292
0
VERTEX
8
0
10
0.854583
20
0.532292
0
VERTEX
8
0
10
0.856042
20
0.533750
0
VERTEX
8
0
10
0.857500
20
0.533750
0
VERTEX
8
0
10
0.858958
20
0.535208
0
VERTEX
8
0
10
0.860417
20
0.535208
0
VERTEX
8
0
10
0.861875
20
0.535208
0
VERTEX
8
0
10
0.863333
20
0.536667
0
VERTEX
8
0
10
0.864792
20
0.536667
0
VERTEX
8
0
10
0.866250
20
0.538125
0
VERTEX
8
0
10
0.867708
20
0.538125
0
VERTEX
8
0
10
0.869167
20
0.538125
0
VERTEX
8
0
10
0.870625
20
0.539583
0
VERTEX
8
0
10
0.872083
20
0.539583
0
VERTEX
8
0
10
0.873542
20
0.539583
0
VERTEX
8
0
10
0.875000
20
0.541042
0
VERTEX
8
0
10
0.876458
20
0.541042
0
VERTEX
8
0
10
0.877917
20
0.541042
0
VERTEX
8
0
10
0.879375
20
0.541042
0
VERTEX
8
0
10
0.880833
20
0.542500
0
VERTEX
8
0
10
0.882292
20
0.542500
0
VERTEX
8
0
10
0.883750
20
0.542500
0
VERTEX
8
0
10
0.885208
20
0.543958
0
VERTEX
8
0
10
0.886667
20
0.543958
0
VERTEX
8
0
10
0.888125
20
0.543958
0
VERTEX
8
0
10
0.889583
20
0.543958
0
VERTEX
8
0
10
0.891042
20
0.545417
0
VERTEX
8
0
10
0.892500
20
0.545417
0
VERTEX
8
0
10
0.893958
20
0.545417
0
VERTEX
8
0
10
0.895417
20
0.545417
0
VERTEX
8
0
10
0.896875
20
0.546875
0
VERTEX
8
0
10
0.898333
20
0.546875
0
VERTEX
8
0
10
0.899792
20
0.546875
0
VERTEX
8
0
10
0.901250
20
0.548333
0
VERTEX
8
0
10
0.902708
20
0.548333
0
VERTEX
8
0
10
0.904167
20
0.548333
0
VERTEX
8
0
10
0.905625
20
0.548333
0
VERTEX
8
0
10
0.907083
20
0.549792
0
VERTEX
8
0
10
0.908542
20
0.549792
0
VERTEX
8
0
10
0.910000
20
0.549792
0
VERTEX
8
0
10
0.911458
20
0.551250
0
VERTEX
8
0
10
0.912917
20
0.551250
0
VERTEX
8
0
10
0.914375
20
0.551250
0
VERTEX
8
0
10
0.915833
20
0.552708
0
VERTEX
8
0
10
0.917292
20
0.552708
0
VERTEX
8
0
10
0.918750
20
0.554167
0
VERTEX
8
0
10
0.920208
20
0.554167
0
VERTEX
8
0
10
0.921667
20
0.554167
0
VERTEX
8
0
10
0.923125
20
0.555625
0
VERTEX
8
0
10
0.924583
20
0.555625
0
VERTEX
8
0
10
0.926042
20
0.557083
0
VERTEX
8
0
10
0.927500
20
0.557083
0
VERTEX
8
0
10
0.928958
20
0.558542
0
VERTEX
8
0
10
0.930417
20
0.558542
0
VERTEX
8
0
10
0.931875
20
0.560000
0
VERTEX
8
0
10
0.933333
20
0.560000
0
VERTEX
8
0
10
0.934792
20
0.561458
0
VERTEX
8
0
10
0.936250
20
0.561458
0
VERTEX
8
0
10
0.937708
20
0.562917
0
VERTEX
8
0
10
0.939167
20
0.562917
0
VERTEX
8
0
10
0.940625
20
0.564375
0
VERTEX
8
0
10
0.942083
20
0.565833
0
VERTEX
8
0
10
0.943542
20
0.565833
0
VERTEX
8
0
10
0.945000
20
0.567292
0
VERTEX
8
0
10
0.946458
20
0.567292
0
VERTEX
8
0
10
0.947917
20
0.568750
0
VERTEX
8
0
10
0.949375
20
0.570208
0
VERTEX
8
0
10
0.950833
20
0.570208
0
VERTEX
8
0
10
0.952292
20
0.571667
0
VERTEX
8
0
10
0.953750
20
0.573125
0
VERTEX
8
0
10
0.955208
20
0.574583
0
VERTEX
8
0
10
0.956667
20
0.574583
0
VERTEX
8
0
10
0.958125
20
0.576042
0
VERTEX
8
0
10
0.959583
20
0.577500
0
VERTEX
8
0
10
0.961042
20
0.578958
0
VERTEX
8
0
10
0.962500
20
0.580417
0
VERTEX
8
0
10
0.963958
20
0.581875
0
VERTEX
8
0
10
0.965417
20
0.581875
0
VERTEX
8
0
10
0.966875
20
0.583333
0
VERTEX
8
0
10
0.968333
20
0.584792
0
VERTEX
8
0
10
0.969792
20
0.586250
0
VERTEX
8
0
10
0.971250
20
0.587708
0
VERTEX
8
0
10
0.972708
20
0.589167
0
VERTEX
8
0
10
0.974167
20
0.590625
0
VERTEX
8
0
10
0.975625
20
0.592083
0
VERTEX
8
0
10
0.977083
20
0.593542
0
VERTEX
8
0
10
0.978542
20
0.595000
0
VERTEX
8
0
10
0.980000
20
0.596458
0
VERTEX
8
0
10
0.980000
20
0.597917
0
VERTEX
8
0
10
0.981458
20
0.599375
0
VERTEX
8
0
10
0.982917
20
0.600833
0
VERTEX
8
0
10
0.984375
20
0.602292
0
VERTEX
8
0
10
0.985833
20
0.603750
0
VERTEX
8
0
10
0.987292
20
0.605208
0
VERTEX
8
0
10
0.987292
20
0.606667
0
VERTEX
8
0
10
0.988750
20
0.608125
0
VERTEX
8
0
10
0.990208
20
0.609583
0
VERTEX
8
0
10
0.991667
20
0.611042
0
VERTEX
8
0
10
0.991667
20
0.612500
0
VERTEX
8
0
10
0.993125
20
0.613958
0
VERTEX
8
0
10
0.993125
20
0.615417
0
VERTEX
8
0
10
0.994583
20
0.616875
0
VERTEX
8
0
10
0.996042
20
0.618333
0
VERTEX
8
0
10
0.996042
20
0.619792
0
VERTEX
8
0
10
0.997500
20
0.621250
0
VERTEX
8
0
10
0.997500
20
0.622708
0
VERTEX
8
0
10
0.998958
20
0.624167
0
VERTEX
8
0
10
0.998958
20
0.625625
0
VERTEX
8
0
10
0.998958
20
0.627083
0
VERTEX
8
0
10
1.000417
20
0.628542
0
VERTEX
8
0
10
1.000417
20
0.630000
0
VERTEX
8
0
10
1.000417
20
0.631458
0
VERTEX
8
0
10
1.001875
20
0.632917
0
VERTEX
8
0
10
1.001875
20
0.634375
0
VERTEX
8
0
10
1.001875
20
0.635833
0
VERTEX
8
0
10
1.001875
20
0.637292
0
VERTEX
8
0
10
1.001875
20
0.638750
0
VERTEX
8
0
10
1.003333
20
0.640208
0
VERTEX
8
0
10
1.003333
20
0.641667
0
VERTEX
8
0
10
1.003333
20
0.643125
0
VERTEX
8
0
10
1.003333
20
0.644583
0
VERTEX
8
0
10
1.003333
20
0.646042
0
VERTEX
8
0
10
1.003333
20
0.647500
0
VERTEX
8
0
10
1.003333
20
0.648958
0
VERTEX
8
0
10
1.003333
20
0.650417
0
VERTEX
8
0
10
1.003333
20
0.651875
0
VERTEX
8
0
10
1.003333
20
0.653333
0
VERTEX
8
0
10
1.003333
20
0.654792
0
VERTEX
8
0
10
1.003333
20
0.656250
0
VERTEX
8
0
10
1.003333
20
0.657708
0
VERTEX
8
0
10
1.003333
20
0.659167
0
VERTEX
8
0
10
1.003333
20
0.660625
0
VERTEX
8
0
10
1.003333
20
0.662083
0
VERTEX
8
0
10
1.003333
20
0.663542
0
VERTEX
8
0
10
1.001875
20
0.665000
0
VERTEX
8
0
10
1.001875
20
0.666458
0
VERTEX
8
0
10
1.001875
20
0.667917
0
VERTEX
8
0
10
1.001875
20
0.669375
0
VERTEX
8
0
10
1.001875
20
0.670833
0
VERTEX
8
0
10
1.000417
20
0.672292
0
VERTEX
8
0
10
1.000417
20
0.673750
0
VERTEX
8
0
10
1.000417
20
0.675208
0
VERTEX
8
0
10
1.000417
20
0.676667
0
VERTEX
8
0
10
0.998958
20
0.678125
0
VERTEX
8
0
10
0.998958
20
0.679583
0
VERTEX
8
0
10
0.997500
20
0.681042
0
VERTEX
8
0
10
0.997500
20
0.682500
0
VERTEX
8
0
10
0.997500
20
0.683958
0
VERTEX
8
0
10
0.997500
20
0.685417
0
VERTEX
8
0
10
0.996042
20
0.686875
0
VERTEX
8
0
10
0.996042
20
0.688333
0
VERTEX
8
0
10
0.996042
20
0.689792
0
VERTEX
8
0
10
0.996042
20
0.691250
0
VERTEX
8
0
10
0.996042
20
0.692708
0
VERTEX
8
0
10
0.996042
20
0.694167
0
VERTEX
8
0
10
0.996042
20
0.695625
0
VERTEX
8
0
10
0.996042
20
0.697083
0
VERTEX
8
0
10
0.996042
20
0.698542
0
VERTEX
8
0
10
0.996042
20
0.700000
0
VERTEX
8
0
10
0.996042
20
0.701458
0
VERTEX
8
0
10
0.996042
20
0.702917
0
VERTEX
8
0
10
0.996042
20
0.704375
0
VERTEX
8
0
10
0.997500
20
0.705833
0
VERTEX
8
0
10
0.997500
20
0.707292
0
VERTEX
8
0
10
0.997500
20
0.708750
0
VERTEX
8
0
10
0.997500
20
0.710208
0
VERTEX
8
0
10
0.998958
20
0.711667
0
VERTEX
8
0
10
0.998958
20
0.713125
0
VERTEX
8
0
10
1.000417
20
0.714583
0
VERTEX
8
0
10
1.000417
20
0.716042
0
VERTEX
8
0
10
1.001875
20
0.717500
0
VERTEX
8
0
10
1.001875
20
0.718958
0
VERTEX
8
0
10
1.003333
20
0.720417
0
VERTEX
8
0
10
1.003333
20
0.721875
0
VERTEX
8
0
10
1.004792
20
0.723333
0
VERTEX
8
0
10
1.006250
20
0.724792
0
VERTEX
8
0
10
1.007708
20
0.726250
0
VERTEX
8
0
10
1.009167
20
0.727708
0
VERTEX
8
0
10
1.010625
20
0.729167
0
VERTEX
8
0
10
1.012083
20
0.730625
0
VERTEX
8
0
10
1.013542
20
0.732083
0
VERTEX
8
0
10
1.015000
20
0.733542
0
VERTEX
8
0
10
1.016458
20
0.733542
0
VERTEX
8
0
10
1.017917
20
0.735000
0
VERTEX
8
0
10
1.019375
20
0.735000
0
VERTEX
8
0
10
1.020833
20
0.736458
0
VERTEX
8
0
10
1.022292
20
0.736458
0
VERTEX
8
0
10
1.023750
20
0.737917
0
VERTEX
8
0
10
1.025208
20
0.737917
0
VERTEX
8
0
10
1.026667
20
0.737917
0
VERTEX
8
0
10
1.028125
20
0.737917
0
VERTEX
8
0
10
1.029583
20
0.739375
0
VERTEX
8
0
10
1.031042
20
0.739375
0
VERTEX
8
0
10
1.032500
20
0.739375
0
VERTEX
8
0
10
1.033958
20
0.739375
0
VERTEX
8
0
10
1.035417
20
0.739375
0
VERTEX
8
0
10
1.036875
20
0.739375
0
VERTEX
8
0
10
1.038333
20
0.739375
0
VERTEX
8
0
10
1.039792
20
0.739375
0
VERTEX
8
0
10
1.041250
20
0.739375
0
VERTEX
8
0
10
1.042708
20
0.739375
0
VERTEX
8
0
10
1.044167
20
0.739375
0
VERTEX
8
0
10
1.045625
20
0.737917
0
VERTEX
8
0
10
1.047083
20
0.737917
0
VERTEX
8
0
10
1.048542
20
0.737917
0
VERTEX
8
0
10
1.050000
20
0.737917
0
VERTEX
8
0
10
1.051458
20
0.736458
0
VERTEX
8
0
10
1.052917
20
0.736458
0
VERTEX
8
0
10
1.054375
20
0.736458
0
VERTEX
8
0
10
1.055833
20
0.735000
0
VERTEX
8
0
10
1.057292
20
0.735000
0
VERTEX
8
0
10
1.058750
20
0.735000
0
VERTEX
8
0
10
1.060208
20
0.733542
0
VERTEX
8
0
10
1.061667
20
0.733542
0
VERTEX
8
0
10
1.063125
20
0.732083
0
VERTEX
8
0
10
1.064583
20
0.732083
0
VERTEX
8
0
10
1.066042
20
0.730625
0
VERTEX
8
0
10
1.067500
20
0.729167
0
VERTEX
8
0
10
1.068958
20
0.729167
0
VERTEX
8
0
10
1.070417
20
0.727708
0
VERTEX
8
0
10
1.071875
20
0.726250
0
VERTEX
8
0
10
1.073333
20
0.724792
0
VERTEX
8
0
10
1.074792
20
0.723333
0
VERTEX
8
0
10
1.076250
20
0.721875
0
VERTEX
8
0
10
1.076250
20
0.720417
0
VERTEX
8
0
10
1.077708
20
0.718958
0
VERTEX
8
0
10
1.077708
20
0.717500
0
VERTEX
8
0
10
1.079167
20
0.716042
0
VERTEX
8
0
10
1.079167
20
0.714583
0
VERTEX
8
0
10
1.080625
20
0.713125
0
VERTEX
8
0
10
1.080625
20
0.711667
0
VERTEX
8
0
10
1.082083
20
0.710208
0
VERTEX
8
0
10
1.082083
20
0.708750
0
VERTEX
8
0
10
1.083542
20
0.707292
0
VERTEX
8
0
10
1.083542
20
0.705833
0
VERTEX
8
0
10
1.085000
20
0.704375
0
VERTEX
8
0
10
1.085000
20
0.702917
0
VERTEX
8
0
10
1.086458
20
0.701458
0
VERTEX
8
0
10
1.086458
20
0.700000
0
VERTEX
8
0
10
1.086458
20
0.698542
0
VERTEX
8
0
10
1.087917
20
0.697083
0
VERTEX
8
0
10
1.087917
20
0.695625
0
VERTEX
8
0
10
1.089375
20
0.694167
0
VERTEX
8
0
10
1.089375
20
0.692708
0
VERTEX
8
0
10
1.090833
20
0.691250
0
VERTEX
8
0
10
1.092292
20
0.689792
0
VERTEX
8
0
10
1.092292
20
0.688333
0
VERTEX
8
0
10
1.093750
20
0.686875
0
VERTEX
8
0
10
1.095208
20
0.685417
0
VERTEX
8
0
10
1.095208
20
0.683958
0
VERTEX
8
0
10
1.096667
20
0.682500
0
VERTEX
8
0
10
1.098125
20
0.681042
0
VERTEX
8
0
10
1.099583
20
0.679583
0
VERTEX
8
0
10
1.101042
20
0.678125
0
VERTEX
8
0
10
1.102500
20
0.676667
0
VERTEX
8
0
10
1.102500
20
0.675208
0
VERTEX
8
0
10
1.103958
20
0.673750
0
VERTEX
8
0
10
1.105417
20
0.672292
0
VERTEX
8
0
10
1.106875
20
0.670833
0
VERTEX
8
0
10
1.108333
20
0.669375
0
VERTEX
8
0
10
1.109792
20
0.667917
0
VERTEX
8
0
10
1.111250
20
0.666458
0
VERTEX
8
0
10
1.112708
20
0.665000
0
VERTEX
8
0
10
1.114167
20
0.663542
0
VERTEX
8
0
10
1.115625
20
0.662083
0
VERTEX
8
0
10
1.117083
20
0.660625
0
VERTEX
8
0
10
1.117083
20
0.659167
0
VERTEX
8
0
10
1.118542
20
0.657708
0
VERTEX
8
0
10
1.120000
20
0.656250
0
VERTEX
8
0
10
1.121458
20
0.654792
0
VERTEX
8
0
10
1.121458
20
0.653333
0
VERTEX
8
0
10
1.122917
20
0.651875
0
VERTEX
8
0
10
1.124375
20
0.650417
0
VERTEX
8
0
10
1.124375
20
0.648958
0
VERTEX
8
0
10
1.125833
20
0.647500
0
VERTEX
8
0
10
1.127292
20
0.646042
0
VERTEX
8
0
10
1.127292
20
0.644583
0
VERTEX
8
0
10
1.127292
20
0.643125
0
VERTEX
8
0
10
1.128750
20
0.641667
0
VERTEX
8
0
10
1.128750
20
0.640208
0
VERTEX
8
0
10
1.130208
20
0.638750
0
VERTEX
8
0
10
1.130208
20
0.637292
0
VERTEX
8
0
10
1.130208
20
0.635833
0
VERTEX
8
0
10
1.130208
20
0.634375
0
VERTEX
8
0
10
1.130208
20
0.632917
0
VERTEX
8
0
10
1.130208
20
0.631458
0
VERTEX
8
0
10
1.130208
20
0.630000
0
VERTEX
8
0
10
1.130208
20
0.628542
0
VERTEX
8
0
10
1.130208
20
0.627083
0
VERTEX
8
0
10
1.130208
20
0.625625
0
VERTEX
8
0
10
1.130208
20
0.624167
0
VERTEX
8
0
10
1.130208
20
0.622708
0
VERTEX
8
0
10
1.128750
20
0.621250
0
VERTEX
8
0
10
1.128750
20
0.619792
0
VERTEX
8
0
10
1.128750
20
0.618333
0
VERTEX
8
0
10
1.127292
20
0.616875
0
VERTEX
8
0
10
1.127292
20
0.615417
0
VERTEX
8
0
10
1.125833
20
0.613958
0
VERTEX
8
0
10
1.124375
20
0.612500
0
VERTEX
8
0
10
1.124375
20
0.611042
0
VERTEX
8
0
10
1.122917
20
0.609583
0
VERTEX
8
0
10
1.121458
20
0.608125
0
VERTEX
8
0
10
1.120000
20
0.606667
0
VERTEX
8
0
10
1.118542
20
0.605208
0
VERTEX
8
0
10
1.118542
20
0.603750
0
VERTEX
8
0
10
1.117083
20
0.602292
0
VERTEX
8
0
10
1.115625
20
0.600833
0
VERTEX
8
0
10
1.114167
20
0.599375
0
VERTEX
8
0
10
1.112708
20
0.597917
0
VERTEX
8
0
10
1.111250
20
0.596458
0
VERTEX
8
0
10
1.111250
20
0.595000
0
VERTEX
8
0
10
1.109792
20
0.593542
0
VERTEX
8
0
10
1.108333
20
0.592083
0
VERTEX
8
0
10
1.106875
20
0.590625
0
VERTEX
8
0
10
1.105417
20
0.589167
0
VERTEX
8
0
10
1.103958
20
0.587708
0
VERTEX
8
0
10
1.102500
20
0.586250
0
VERTEX
8
0
10
1.101042
20
0.584792
0
VERTEX
8
0
10
1.101042
20
0.583333
0
VERTEX
8
0
10
1.099583
20
0.581875
0
VERTEX
8
0
10
1.098125
20
0.580417
0
VERTEX
8
0
10
1.096667
20
0.578958
0
VERTEX
8
0
10
1.095208
20
0.577500
0
VERTEX
8
0
10
1.093750
20
0.576042
0
VERTEX
8
0
10
1.093750
20
0.574583
0
VERTEX
8
0
10
1.092292
20
0.573125
0
VERTEX
8
0
10
1.090833
20
0.571667
0
VERTEX
8
0
10
1.089375
20
0.570208
0
VERTEX
8
0
10
1.087917
20
0.568750
0
VERTEX
8
0
10
1.086458
20
0.567292
0
VERTEX
8
0
10
1.085000
20
0.565833
0
VERTEX
8
0
10
1.083542
20
0.564375
0
VERTEX
8
0
10
1.083542
20
0.562917
0
VERTEX
8
0
10
1.082083
20
0.561458
0
VERTEX
8
0
10
1.080625
20
0.560000
0
VERTEX
8
0
10
1.079167
20
0.558542
0
VERTEX
8
0
10
1.077708
20
0.557083
0
VERTEX
8
0
10
1.076250
20
0.555625
0
VERTEX
8
0
10
1.074792
20
0.554167
0
VERTEX
8
0
10
1.073333
20
0.552708
0
VERTEX
8
0
10
1.073333
20
0.551250
0
VERTEX
8
0
10
1.071875
20
0.549792
0
VERTEX
8
0
10
1.070417
20
0.548333
0
VERTEX
8
0
10
1.068958
20
0.546875
0
VERTEX
8
0
10
1.067500
20
0.545417
0
VERTEX
8
0
10
1.066042
20
0.543958
0
VERTEX
8
0
10
1.064583
20
0.542500
0
VERTEX
8
0
10
1.064583
20
0.541042
0
VERTEX
8
0
10
1.063125
20
0.539583
0
VERTEX
8
0
10
1.061667
20
0.538125
0
VERTEX
8
0
10
1.060208
20
0.536667
0
VERTEX
8
0
10
1.058750
20
0.535208
0
VERTEX
8
0
10
1.057292
20
0.533750
0
VERTEX
8
0
10
1.057292
20
0.532292
0
VERTEX
8
0
10
1.055833
20
0.530833
0
VERTEX
8
0
10
1.054375
20
0.529375
0
VERTEX
8
0
10
1.052917
20
0.527917
0
VERTEX
8
0
10
1.051458
20
0.526458
0
VERTEX
8
0
10
1.051458
20
0.525000
0
VERTEX
8
0
10
1.050000
20
0.523542
0
VERTEX
8
0
10
1.048542
20
0.522083
0
VERTEX
8
0
10
1.048542
20
0.520625
0
VERTEX
8
0
10
1.047083
20
0.519167
0
VERTEX
8
0
10
1.045625
20
0.517708
0
VERTEX
8
0
10
1.045625
20
0.516250
0
VERTEX
8
0
10
1.044167
20
0.514792
0
VERTEX
8
0
10
1.044167
20
0.513333
0
VERTEX
8
0
10
1.042708
20
0.511875
0
VERTEX
8
0
10
1.042708
20
0.510417
0
VERTEX
8
0
10
1.041250
20
0.508958
0
VERTEX
8
0
10
1.041250
20
0.507500
0
VERTEX
8
0
10
1.039792
20
0.506042
0
VERTEX
8
0
10
1.039792
20
0.504583
0
VERTEX
8
0
10
1.038333
20
0.503125
0
VERTEX
8
0
10
1.038333
20
0.501667
0
VERTEX
8
0
10
1.038333
20
0.500208
0
VERTEX
8
0
10
1.038333
20
0.498750
0
VERTEX
8
0
10
1.036875
20
0.497292
0
VERTEX
8
0
10
1.036875
20
0.495833
0
VERTEX
8
0
10
1.036875
20
0.494375
0
VERTEX
8
0
10
1.036875
20
0.492917
0
VERTEX
8
0
10
1.035417
20
0.491458
0
VERTEX
8
0
10
1.035417
20
0.490000
0
VERTEX
8
0
10
1.035417
20
0.488542
0
VERTEX
8
0
10
1.035417
20
0.487083
0
VERTEX
8
0
10
1.035417
20
0.485625
0
VERTEX
8
0
10
1.035417
20
0.484167
0
VERTEX
8
0
10
1.035417
20
0.482708
0
VERTEX
8
0
10
1.035417
20
0.481250
0
VERTEX
8
0
10
1.035417
20
0.479792
0
VERTEX
8
0
10
1.036875
20
0.478333
0
VERTEX
8
0
10
1.036875
20
0.476875
0
VERTEX
8
0
10
1.036875
20
0.475417
0
VERTEX
8
0
10
1.036875
20
0.473958
0
VERTEX
8
0
10
1.036875
20
0.472500
0
VERTEX
8
0
10
1.038333
20
0.471042
0
VERTEX
8
0
10
1.038333
20
0.469583
0
VERTEX
8
0
10
1.038333
20
0.468125
0
VERTEX
8
0
10
1.039792
20
0.466667
0
VERTEX
8
0
10
1.039792
20
0.465208
0
VERTEX
8
0
10
1.041250
20
0.463750
0
VERTEX
8
0
10
1.041250
20
0.462292
0
VERTEX
8
0
10
1.042708
20
0.460833
0
VERTEX
8
0
10
1.044167
20
0.459375
0
VERTEX
8
0
10
1.044167
20
0.457917
0
VERTEX
8
0
10
1.045625
20
0.456458
0
VERTEX
8
0
10
1.047083
20
0.455000
0
VERTEX
8
0
10
1.048542
20
0.453542
0
VERTEX
8
0
10
1.050000
20
0.452083
0
VERTEX
8
0
10
1.051458
20
0.452083
0
VERTEX
8
0
10
1.052917
20
0.450625
0
VERTEX
8
0
10
1.054375
20
0.449167
0
VERTEX
8
0
10
1.055833
20
0.449167
0
VERTEX
8
0
10
1.057292
20
0.447708
0
VERTEX
8
0
10
1.058750
20
0.447708
0
VERTEX
8
0
10
1.060208
20
0.446250
0
VERTEX
8
0
10
1.061667
20
0.446250
0
VERTEX
8
0
10
1.063125
20
0.446250
0
VERTEX
8
0
10
1.064583
20
0.446250
0
VERTEX
8
0
10
1.066042
20
0.446250
0
VERTEX
8
0
10
1.067500
20
0.444792
0
VERTEX
8
0
10
1.068958
20
0.444792
0
VERTEX
8
0
10
1.070417
20
0.444792
0
VERTEX
8
0
10
1.071875
20
0.444792
0
VERTEX
8
0
10
1.073333
20
0.444792
0
VERTEX
8
0
10
1.074792
20
0.444792
0
VERTEX
8
0
10
1.076250
20
0.444792
0
VERTEX
8
0
10
1.077708
20
0.444792
0
VERTEX
8
0
10
1.079167
20
0.444792
0
VERTEX
8
0
10
1.080625
20
0.443333
0
VERTEX
8
0
10
1.082083
20
0.443333
0
VERTEX
8
0
10
1.083542
20
0.443333
0
VERTEX
8
0
10
1.085000
20
0.441875
0
VERTEX
8
0
10
1.086458
20
0.440417
0
VERTEX
8
0
10
1.087917
20
0.440417
0
VERTEX
8
0
10
1.089375
20
0.438958
0
VERTEX
8
0
10
1.089375
20
0.437500
0
VERTEX
8
0
10
1.090833
20
0.436042
0
VERTEX
8
0
10
1.092292
20
0.434583
0
VERTEX
8
0
10
1.092292
20
0.433125
0
VERTEX
8
0
10
1.092292
20
0.431667
0
VERTEX
8
0
10
1.093750
20
0.430208
0
VERTEX
8
0
10
1.093750
20
0.428750
0
VERTEX
8
0
10
1.093750
20
0.427292
0
VERTEX
8
0
10
1.093750
20
0.425833
0
VERTEX
8
0
10
1.095208
20
0.424375
0
VERTEX
8
0
10
1.095208
20
0.422917
0
VERTEX
8
0
10
1.095208
20
0.421458
0
VERTEX
8
0
10
1.095208
20
0.420000
0
VERTEX
8
0
10
1.093750
20
0.418542
0
VERTEX
8
0
10
1.093750
20
0.417083
0
VERTEX
8
0
10
1.093750
20
0.415625
0
VERTEX
8
0
10
1.093750
20
0.414167
0
VERTEX
8
0
10
1.093750
20
0.412708
0
VERTEX
8
0
10
1.092292
20
0.411250
0
VERTEX
8
0
10
1.092292
20
0.409792
0
VERTEX
8
0
10
1.090833
20
0.408333
0
VERTEX
8
0
10
1.090833
20
0.406875
0
VERTEX
8
0
10
1.089375
20
0.405417
0
VERTEX
8
0
10
1.087917
20
0.403958
0
VERTEX
8
0
10
1.087917
20
0.402500
0
VERTEX
8
0
10
1.086458
20
0.401042
0
VERTEX
8
0
10
1.085000
20
0.399583
0
VERTEX
8
0
10
1.083542
20
0.399583
0
VERTEX
8
0
10
1.082083
20
0.398125
0
VERTEX
8
0
10
1.080625
20
0.396667
0
VERTEX
8
0
10
1.079167
20
0.396667
0
VERTEX
8
0
10
1.077708
20
0.395208
0
VERTEX
8
0
10
1.076250
20
0.393750
0
VERTEX
8
0
10
1.074792
20
0.393750
0
VERTEX
8
0
10
1.073333
20
0.392292
0
VERTEX
8
0
10
1.071875
20
0.390833
0
VERTEX
8
0
10
1.070417
20
0.390833
0
VERTEX
8
0
10
1.068958
20
0.389375
0
VERTEX
8
0
10
1.067500
20
0.387917
0
VERTEX
8
0
10
1.066042
20
0.386458
0
VERTEX
8
0
10
1.064583
20
0.386458
0
VERTEX
8
0
10
1.063125
20
0.385000
0
VERTEX
8
0
10
1.061667
20
0.383542
0
VERTEX
8
0
10
1.060208
20
0.383542
0
VERTEX
8
0
10
1.058750
20
0.382083
0
VERTEX
8
0
10
1.057292
20
0.380625
0
VERTEX
8
0
10
1.055833
20
0.379167
0
VERTEX
8
0
10
1.054375
20
0.379167
0
VERTEX
8
0
10
1.052917
20
0.377708
0
VERTEX
8
0
10
1.051458
20
0.376250
0
VERTEX
8
0
10
1.050000
20
0.374792
0
VERTEX
8
0
10
1.048542
20
0.373333
0
VERTEX
8
0
10
1.047083
20
0.373333
0
VERTEX
8
0
10
1.045625
20
0.371875
0
VERTEX
8
0
10
1.044167
20
0.370417
0
VERTEX
8
0
10
1.042708
20
0.368958
0
VERTEX
8
0
10
1.041250
20
0.367500
0
VERTEX
8
0
10
1.039792
20
0.367500
0
VERTEX
8
0
10
1.038333
20
0.366042
0
VERTEX
8
0
10
1.036875
20
0.364583
0
VERTEX
8
0
10
1.035417
20
0.363125
0
VERTEX
8
0
10
1.033958
20
0.361667
0
VERTEX
8
0
10
1.032500
20
0.360208
0
VERTEX
8
0
10
1.031042
20
0.358750
0
VERTEX
8
0
10
1.029583
20
0.357292
0
VERTEX
8
0
10
1.028125
20
0.357292
0
VERTEX
8
0
10
1.026667
20
0.355833
0
VERTEX
8
0
10
1.025208
20
0.354375
0
VERTEX
8
0
10
1.023750
20
0.352917
0
VERTEX
8
0
10
1.022292
20
0.351458
0
VERTEX
8
0
10
1.020833
20
0.350000
0
VERTEX
8
0
10
1.019375
20
0.348542
0
VERTEX
8
0
10
1.017917
20
0.347083
0
VERTEX
8
0
10
1.016458
20
0.345625
0
VERTEX
8
0
10
1.015000
20
0.344167
0
VERTEX
8
0
10
1.013542
20
0.342708
0
VERTEX
8
0
10
1.013542
20
0.341250
0
VERTEX
8
0
10
1.012083
20
0.339792
0
VERTEX
8
0
10
1.010625
20
0.338333
0
VERTEX
8
0
10
1.009167
20
0.336875
0
VERTEX
8
0
10
1.007708
20
0.335417
0
VERTEX
8
0
10
1.006250
20
0.333958
0
VERTEX
8
0
10
1.004792
20
0.332500
0
VERTEX
8
0
10
1.003333
20
0.331042
0
VERTEX
8
0
10
1.003333
20
0.329583
0
VERTEX
8
0
10
1.001875
20
0.328125
0
VERTEX
8
0
10
1.000417
20
0.326667
0
VERTEX
8
0
10
0.998958
20
0.325208
0
VERTEX
8
0
10
0.998958
20
0.323750
0
VERTEX
8
0
10
0.997500
20
0.322292
0
VERTEX
8
0
10
0.996042
20
0.320833
0
VERTEX
8
0
10
0.994583
20
0.319375
0
VERTEX
8
0
10
0.994583
20
0.317917
0
VERTEX
8
0
10
0.993125
20
0.316458
0
VERTEX
8
0
10
0.991667
20
0.315000
0
VERTEX
8
0
10
0.991667
20
0.313542
0
VERTEX
8
0
10
0.990208
20
0.312083
0
VERTEX
8
0
10
0.988750
20
0.310625
0
VERTEX
8
0
10
0.988750
20
0.309167
0
VERTEX
8
0
10
0.987292
20
0.307708
0
VERTEX
8
0
10
0.987292
20
0.306250
0
VERTEX
8
0
10
0.985833
20
0.304792
0
VERTEX
8
0
10
0.984375
20
0.303333
0
VERTEX
8
0
10
0.984375
20
0.301875
0
VERTEX
8
0
10
0.982917
20
0.300417
0
VERTEX
8
0
10
0.982917
20
0.298958
0
VERTEX
8
0
10
0.981458
20
0.297500
0
VERTEX
8
0
10
0.981458
20
0.296042
0
VERTEX
8
0
10
0.980000
20
0.294583
0
VERTEX
8
0
10
0.980000
20
0.293125
0
VERTEX
8
0
10
0.980000
20
0.291667
0
VERTEX
8
0
10
0.978542
20
0.290208
0
VERTEX
8
0
10
0.978542
20
0.288750
0
VERTEX
8
0
10
0.977083
20
0.287292
0
VERTEX
8
0
10
0.977083
20
0.285833
0
VERTEX
8
0
10
0.977083
20
0.284375
0
VERTEX
8
0
10
0.975625
20
0.282917
0
VERTEX
8
0
10
0.975625
20
0.281458
0
VERTEX
8
0
10
0.975625
20
0.280000
0
VERTEX
8
0
10
0.974167
20
0.278542
0
VERTEX
8
0
10
0.974167
20
0.277083
0
VERTEX
8
0
10
0.974167
20
0.275625
0
VERTEX
8
0
10
0.972708
20
0.274167
0
VERTEX
8
0
10
0.972708
20
0.272708
0
VERTEX
8
0
10
0.972708
20
0.271250
0
VERTEX
8
0
10
0.972708
20
0.269792
0
VERTEX
8
0
10
0.971250
20
0.268333
0
VERTEX
8
0
10
0.971250
20
0.266875
0
VERTEX
8
0
10
0.971250
20
0.265417
0
VERTEX
8
0
10
0.971250
20
0.263958
0
VERTEX
8
0
10
0.969792
20
0.262500
0
VERTEX
8
0
10
0.969792
20
0.261042
0
VERTEX
8
0
10
0.969792
20
0.259583
0
VERTEX
8
0
10
0.969792
20
0.258125
0
VERTEX
8
0
10
0.969792
20
0.256667
0
VERTEX
8
0
10
0.969792
20
0.255208
0
VERTEX
8
0
10
0.969792
20
0.253750
0
VERTEX
8
0
10
0.968333
20
0.252292
0
VERTEX
8
0
10
0.968333
20
0.250833
0
VERTEX
8
0
10
0.968333
20
0.249375
0
VERTEX
8
0
10
0.968333
20
0.247917
0
VERTEX
8
0
10
0.968333
20
0.246458
0
VERTEX
8
0
10
0.968333
20
0.245000
0
VERTEX
8
0
10
0.968333
20
0.243542
0
VERTEX
8
0
10
0.968333
20
0.242083
0
VERTEX
8
0
10
0.968333
20
0.240625
0
VERTEX
8
0
10
0.968333
20
0.239167
0
VERTEX
8
0
10
0.968333
20
0.237708
0
VERTEX
8
0
10
0.968333
20
0.236250
0
VERTEX
8
0
10
0.968333
20
0.234792
0
VERTEX
8
0
10
0.968333
20
0.233333
0
VERTEX
8
0
10
0.968333
20
0.231875
0
VERTEX
8
0
10
0.968333
20
0.230417
0
VERTEX
8
0
10
0.968333
20
0.228958
0
VERTEX
8
0
10
0.968333
20
0.227500
0
VERTEX
8
0
10
0.968333
20
0.226042
0
VERTEX
8
0
10
0.968333
20
0.224583
0
VERTEX
8
0
10
0.968333
20
0.223125
0
VERTEX
8
0
10
0.968333
20
0.221667
0
VERTEX
8
0
10
0.968333
20
0.220208
0
VERTEX
8
0
10
0.968333
20
0.218750
0
VERTEX
8
0
10
0.968333
20
0.217292
0
VERTEX
8
0
10
0.968333
20
0.215833
0
VERTEX
8
0
10
0.968333
20
0.214375
0
VERTEX
8
0
10
0.968333
20
0.212917
0
VERTEX
8
0
10
0.968333
20
0.211458
0
VERTEX
8
0
10
0.968333
20
0.210000
0
VERTEX
8
0
10
0.968333
20
0.208542
0
VERTEX
8
0
10
0.968333
20
0.207083
0
VERTEX
8
0
10
0.968333
20
0.205625
0
VERTEX
8
0
10
0.968333
20
0.204167
0
VERTEX
8
0
10
0.968333
20
0.202708
0
VERTEX
8
0
10
0.968333
20
0.201250
0
VERTEX
8
0
10
0.968333
20
0.199792
0
VERTEX
8
0
10
0.968333
20
0.198333
0
VERTEX
8
0
10
0.968333
20
0.196875
0
VERTEX
8
0
10
0.968333
20
0.195417
0
VERTEX
8
0
10
0.968333
20
0.193958
0
VERTEX
8
0
10
0.969792
20
0.192500
0
VERTEX
8
0
10
0.969792
20
0.191042
0
VERTEX
8
0
10
0.969792
20
0.189583
0
VERTEX
8
0
10
0.969792
20
0.188125
0
VERTEX
8
0
10
0.969792
20
0.186667
0
VERTEX
8
0
10
0.969792
20
0.185208
0
VERTEX
8
0
10
0.969792
20
0.183750
0
VERTEX
8
0
10
0.968333
20
0.182292
0
VERTEX
8
0
10
0.968333
20
0.180833
0
VERTEX
8
0
10
0.968333
20
0.179375
0
VERTEX
8
0
10
0.968333
20
0.177917
0
VERTEX
8
0
10
0.968333
20
0.176458
0
VERTEX
8
0
10
0.968333
20
0.175000
0
VERTEX
8
0
10
0.968333
20
0.173542
0
VERTEX
8
0
10
0.968333
20
0.172083
0
VERTEX
8
0
10
0.968333
20
0.170625
0
VERTEX
8
0
10
0.968333
20
0.169167
0
VERTEX
8
0
10
0.968333
20
0.167708
0
VERTEX
8
0
10
0.968333
20
0.166250
0
VERTEX
8
0
10
0.968333
20
0.164792
0
VERTEX
8
0
10
0.968333
20
0.163333
0
VERTEX
8
0
10
0.968333
20
0.161875
0
VERTEX
8
0
10
0.966875
20
0.160417
0
VERTEX
8
0
10
0.966875
20
0.158958
0
VERTEX
8
0
10
0.966875
20
0.157500
0
VERTEX
8
0
10
0.966875
20
0.156042
0
VERTEX
8
0
10
0.966875
20
0.154583
0
VERTEX
8
0
10
0.965417
20
0.153125
0
VERTEX
8
0
10
0.965417
20
0.151667
0
VERTEX
8
0
10
0.965417
20
0.150208
0
VERTEX
8
0
10
0.965417
20
0.148750
0
VERTEX
8
0
10
0.963958
20
0.147292
0
VERTEX
8
0
10
0.963958
20
0.145833
0
VERTEX
8
0
10
0.963958
20
0.144375
0
VERTEX
8
0
10
0.963958
20
0.142917
0
VERTEX
8
0
10
0.962500
20
0.141458
0
VERTEX
8
0
10
0.962500
20
0.140000
0
VERTEX
8
0
10
0.961042
20
0.138542
0
VERTEX
8
0
10
0.961042
20
0.137083
0
VERTEX
8
0
10
0.959583
20
0.135625
0
VERTEX
8
0
10
0.959583
20
0.134167
0
VERTEX
8
0
10
0.959583
20
0.132708
0
VERTEX
8
0
10
0.958125
20
0.131250
0
VERTEX
8
0
10
0.956667
20
0.129792
0
VERTEX
8
0
10
0.956667
20
0.128333
0
VERTEX
8
0
10
0.955208
20
0.126875
0
VERTEX
8
0
10
0.955208
20
0.125417
0
VERTEX
8
0
10
0.953750
20
0.126875
0
VERTEX
8
0
10
0.952292
20
0.128333
0
VERTEX
8
0
10
0.950833
20
0.129792
0
VERTEX
8
0
10
0.949375
20
0.131250
0
VERTEX
8
0
10
0.947917
20
0.132708
0
VERTEX
8
0
10
0.946458
20
0.134167
0
VERTEX
8
0
10
0.945000
20
0.135625
0
VERTEX
8
0
10
0.943542
20
0.137083
0
VERTEX
8
0
10
0.942083
20
0.138542
0
VERTEX
8
0
10
0.940625
20
0.138542
0
VERTEX
8
0
10
0.939167
20
0.140000
0
VERTEX
8
0
10
0.937708
20
0.141458
0
VERTEX
8
0
10
0.936250
20
0.141458
0
VERTEX
8
0
10
0.934792
20
0.142917
0
VERTEX
8
0
10
0.933333
20
0.142917
0
VERTEX
8
0
10
0.931875
20
0.144375
0
VERTEX
8
0
10
0.930417
20
0.144375
0
VERTEX
8
0
10
0.928958
20
0.144375
0
VERTEX
8
0
10
0.927500
20
0.144375
0
VERTEX
8
0
10
0.926042
20
0.142917
0
VERTEX
8
0
10
0.926042
20
0.141458
0
VERTEX
8
0
10
0.926042
20
0.140000
0
VERTEX
8
0
10
0.926042
20
0.138542
0
VERTEX
8
0
10
0.924583
20
0.137083
0
VERTEX
8
0
10
0.924583
20
0.135625
0
VERTEX
8
0
10
0.924583
20
0.134167
0
VERTEX
8
0
10
0.924583
20
0.132708
0
VERTEX
8
0
10
0.924583
20
0.131250
0
VERTEX
8
0
10
0.924583
20
0.129792
0
VERTEX
8
0
10
0.924583
20
0.128333
0
VERTEX
8
0
10
0.924583
20
0.126875
0
VERTEX
8
0
10
0.924583
20
0.125417
0
VERTEX
8
0
10
0.924583
20
0.123958
0
VERTEX
8
0
10
0.924583
20
0.122500
0
VERTEX
8
0
10
0.924583
20
0.121042
0
VERTEX
8
0
10
0.924583
20
0.119583
0
VERTEX
8
0
10
0.924583
20
0.118125
0
VERTEX
8
0
10
0.926042
20
0.116667
0
VERTEX
8
0
10
0.926042
20
0.115208
0
VERTEX
8
0
10
0.926042
20
0.113750
0
VERTEX
8
0
10
0.926042
20
0.112292
0
VERTEX
8
0
10
0.927500
20
0.110833
0
VERTEX
8
0
10
0.927500
20
0.109375
0
VERTEX
8
0
10
0.927500
20
0.107917
0
VERTEX
8
0
10
0.928958
20
0.106458
0
VERTEX
8
0
10
0.928958
20
0.105000
0
VERTEX
8
0
10
0.930417
20
0.103542
0
VERTEX
8
0
10
0.930417
20
0.102083
0
VERTEX
8
0
10
0.930417
20
0.100625
0
VERTEX
8
0
10
0.931875
20
0.099167
0
VERTEX
8
0
10
0.931875
20
0.097708
0
VERTEX
8
0
10
0.933333
20
0.096250
0
VERTEX
8
0
10
0.933333
20
0.094792
0
VERTEX
8
0
10
0.934792
20
0.093333
0
VERTEX
8
0
10
0.934792
20
0.091875
0
VERTEX
8
0
10
0.936250
20
0.090417
0
VERTEX
8
0
10
0.936250
20
0.088958
0
VERTEX
8
0
10
0.937708
20
0.087500
0
VERTEX
8
0
10
0.937708
20
0.086042
0
VERTEX
8
0
10
0.939167
20
0.084583
0
VERTEX
8
0
10
0.940625
20
0.083125
0
VERTEX
8
0
10
0.940625
20
0.081667
0
VERTEX
8
0
10
0.942083
20
0.080208
0
VERTEX
8
0
10
0.942083
20
0.078750
0
VERTEX
8
0
10
0.943542
20
0.077292
0
VERTEX
8
0
10
0.943542
20
0.075833
0
VERTEX
8
0
10
0.945000
20
0.074375
0
VERTEX
8
0
10
0.946458
20
0.072917
0
VERTEX
8
0
10
0.946458
20
0.071458
0
VERTEX
8
0
10
0.947917
20
0.070000
0
VERTEX
8
0
10
0.947917
20
0.068542
0
VERTEX
8
0
10
0.949375
20
0.067083
0
VERTEX
8
0
10
0.950833
20
0.065625
0
VERTEX
8
0
10
0.950833
20
0.064167
0
VERTEX
8
0
10
0.952292
20
0.062708
0
VERTEX
8
0
10
0.952292
20
0.061250
0
VERTEX
8
0
10
0.953750
20
0.059792
0
VERTEX
8
0
10
0.953750
20
0.058333
0
VERTEX
8
0
10
0.955208
20
0.056875
0
VERTEX
8
0
10
0.955208
20
0.055417
0
VERTEX
8
0
10
0.956667
20
0.053958
0
VERTEX
8
0
10
0.956667
20
0.052500
0
VERTEX
8
0
10
0.958125
20
0.051042
0
VERTEX
8
0
10
0.958125
20
0.049583
0
VERTEX
8
0
10
0.959583
20
0.048125
0
VERTEX
8
0
10
0.959583
20
0.046667
0
VERTEX
8
0
10
0.961042
20
0.045208
0
VERTEX
8
0
10
0.961042
20
0.043750
0
VERTEX
8
0
10
0.961042
20
0.042292
0
VERTEX
8
0
10
0.962500
20
0.040833
0
VERTEX
8
0
10
0.962500
20
0.039375
0
VERTEX
8
0
10
0.962500
20
0.037917
0
VERTEX
8
0
10
0.963958
20
0.036458
0
VERTEX
8
0
10
0.963958
20
0.035000
0
VERTEX
8
0
10
0.963958
20
0.033542
0
VERTEX
8
0
10
0.963958
20
0.032083
0
VERTEX
8
0
10
0.965417
20
0.030625
0
VERTEX
8
0
10
0.965417
20
0.029167
0
VERTEX
8
0
10
0.965417
20
0.027708
0
VERTEX
8
0
10
0.965417
20
0.026250
0
VERTEX
8
0
10
0.966875
20
0.024792
0
VERTEX
8
0
10
0.966875
20
0.023333
0
VERTEX
8
0
10
0.966875
20
0.021875
0
VERTEX
8
0
10
0.966875
20
0.020417
0
VERTEX
8
0
10
0.966875
20
0.018958
0
VERTEX
8
0
10
0.966875
20
0.017500
0
VERTEX
8
0
10
0.968333
20
0.016042
0
VERTEX
8
0
10
0.968333
20
0.014583
0
VERTEX
8
0
10
0.968333
20
0.013125
0
VERTEX
8
0
10
0.968333
20
0.011667
0
VERTEX
8
0
10
0.968333
20
0.010208
0
VERTEX
8
0
10
0.968333
20
0.008750
0
VERTEX
8
0
10
0.968333
20
0.007292
0
VERTEX
8
0
10
0.968333
20
0.005833
0
VERTEX
8
0
10
0.968333
20
0.004375
0
VERTEX
8
0
10
0.968333
20
0.002917
0
VERTEX
8
0
10
0.968333
20
0.001458
0
VERTEX
8
0
10
0.968333
20
0.000000
0
VERTEX
8
0
10
0.968333
20
-0.001458
0
VERTEX
8
0
10
0.968333
20
-0.002917
0
VERTEX
8
0
10
0.968333
20
-0.004375
0
VERTEX
8
0
10
0.968333
20
-0.005833
0
VERTEX
8
0
10
0.968333
20
-0.007292
0
VERTEX
8
0
10
0.968333
20
-0.008750
0
VERTEX
8
0
10
0.968333
20
-0.010208
0
VERTEX
8
0
10
0.968333
20
-0.011667
0
VERTEX
8
0
10
0.968333
20
-0.013125
0
VERTEX
8
0
10
0.966875
20
-0.014583
0
VERTEX
8
0
10
0.966875
20
-0.016042
0
VERTEX
8
0
10
0.966875
20
-0.017500
0
VERTEX
8
0
10
0.966875
20
-0.018958
0
VERTEX
8
0
10
0.966875
20
-0.020417
0
VERTEX
8
0
10
0.966875
20
-0.021875
0
VERTEX
8
0
10
0.965417
20
-0.023333
0
VERTEX
8
0
10
0.965417
20
-0.024792
0
VERTEX
8
0
10
0.965417
20
-0.026250
0
VERTEX
8
0
10
0.965417
20
-0.027708
0
VERTEX
8
0
10
0.965417
20
-0.029167
0
VERTEX
8
0
10
0.963958
20
-0.030625
0
VERTEX
8
0
10
0.963958
20
-0.032083
0
VERTEX
8
0
10
0.963958
20
-0.033542
0
VERTEX
8
0
10
0.963958
20
-0.035000
0
VERTEX
8
0
10
0.962500
20
-0.036458
0
VERTEX
8
0
10
0.962500
20
-0.037917
0
VERTEX
8
0
10
0.962500
20
-0.039375
0
VERTEX
8
0
10
0.961042
20
-0.040833
0
VERTEX
8
0
10
0.961042
20
-0.042292
0
VERTEX
8
0
10
0.961042
20
-0.043750
0
VERTEX
8
0
10
0.959583
20
-0.045208
0
VERTEX
8
0
10
0.959583
20
-0.046667
0
VERTEX
8
0
10
0.959583
20
-0.048125
0
VERTEX
8
0
10
0.958125
20
-0.049583
0
VERTEX
8
0
10
0.958125
20
-0.051042
0
VERTEX
8
0
10
0.958125
20
-0.052500
0
VERTEX
8
0
10
0.956667
20
-0.053958
0
VERTEX
8
0
10
0.956667
20
-0.055417
0
VERTEX
8
0
10
0.956667
20
-0.056875
0
VERTEX
8
0
10
0.955208
20
-0.058333
0
VERTEX
8
0
10
0.955208
20
-0.059792
0
VERTEX
8
0
10
0.953750
20
-0.061250
0
VERTEX
8
0
10
0.953750
20
-0.062708
0
VERTEX
8
0
10
0.952292
20
-0.064167
0
VERTEX
8
0
10
0.952292
20
-0.065625
0
VERTEX
8
0
10
0.952292
20
-0.067083
0
VERTEX
8
0
10
0.950833
20
-0.068542
0
VERTEX
8
0
10
0.950833
20
-0.070000
0
VERTEX
8
0
10
0.949375
20
-0.071458
0
VERTEX
8
0
10
0.949375
20
-0.072917
0
VERTEX
8
0
10
0.947917
20
-0.074375
0
VERTEX
8
0
10
0.947917
20
-0.075833
0
VERTEX
8
0
10
0.946458
20
-0.077292
0
VERTEX
8
0
10
0.945000
20
-0.078750
0
VERTEX
8
0
10
0.945000
20
-0.080208
0
VERTEX
8
0
10
0.943542
20
-0.081667
0
VERTEX
8
0
10
0.943542
20
-0.083125
0
VERTEX
8
0
10
0.942083
20
-0.084583
0
VERTEX
8
0
10
0.942083
20
-0.086042
0
VERTEX
8
0
10
0.940625
20
-0.087500
0
VERTEX
8
0
10
0.939167
20
-0.088958
0
VERTEX
8
0
10
0.939167
20
-0.090417
0
VERTEX
8
0
10
0.937708
20
-0.091875
0
VERTEX
8
0
10
0.936250
20
-0.093333
0
VERTEX
8
0
10
0.936250
20
-0.094792
0
VERTEX
8
0
10
0.934792
20
-0.096250
0
VERTEX
8
0
10
0.933333
20
-0.097708
0
VERTEX
8
0
10
0.933333
20
-0.099167
0
VERTEX
8
0
10
0.931875
20
-0.100625
0
VERTEX
8
0
10
0.930417
20
-0.102083
0
VERTEX
8
0
10
0.930417
20
-0.103542
0
VERTEX
8
0
10
0.928958
20
-0.105000
0
VERTEX
8
0
10
0.927500
20
-0.106458
0
VERTEX
8
0
10
0.927500
20
-0.107917
0
VERTEX
8
0
10
0.926042
20
-0.109375
0
VERTEX
8
0
10
0.924583
20
-0.110833
0
VERTEX
8
0
10
0.923125
20
-0.112292
0
VERTEX
8
0
10
0.921667
20
-0.113750
0
VERTEX
8
0
10
0.921667
20
-0.115208
0
VERTEX
8
0
10
0.920208
20
-0.116667
0
VERTEX
8
0
10
0.918750
20
-0.118125
0
VERTEX
8
0
10
0.917292
20
-0.119583
0
VERTEX
8
0
10
0.917292
20
-0.121042
0
VERTEX
8
0
10
0.915833
20
-0.122500
0
VERTEX
8
0
10
0.914375
20
-0.123958
0
VERTEX
8
0
10
0.912917
20
-0.125417
0
VERTEX
8
0
10
0.911458
20
-0.126875
0
VERTEX
8
0
10
0.910000
20
-0.128333
0
VERTEX
8
0
10
0.910000
20
-0.129792
0
VERTEX
8
0
10
0.908542
20
-0.131250
0
VERTEX
8
0
10
0.907083
20
-0.132708
0
VERTEX
8
0
10
0.905625
20
-0.134167
0
VERTEX
8
0
10
0.904167
20
-0.135625
0
VERTEX
8
0
10
0.902708
20
-0.137083
0
VERTEX
8
0
10
0.901250
20
-0.138542
0
VERTEX
8
0
10
0.901250
20
-0.140000
0
VERTEX
8
0
10
0.899792
20
-0.141458
0
VERTEX
8
0
10
0.898333
20
-0.142917
0
VERTEX
8
0
10
0.896875
20
-0.144375
0
VERTEX
8
0
10
0.895417
20
-0.145833
0
VERTEX
8
0
10
0.893958
20
-0.147292
0
VERTEX
8
0
10
0.892500
20
-0.148750
0
VERTEX
8
0
10
0.891042
20
-0.150208
0
VERTEX
8
0
10
0.891042
20
-0.151667
0
VERTEX
8
0
10
0.889583
20
-0.153125
0
VERTEX
8
0
10
0.888125
20
-0.154583
0
VERTEX
8
0
10
0.886667
20
-0.156042
0
VERTEX
8
0
10
0.885208
20
-0.157500
0
VERTEX
8
0
10
0.883750
20
-0.158958
0
VERTEX
8
0
10
0.882292
20
-0.160417
0
VERTEX
8
0
10
0.880833
20
-0.161875
0
VERTEX
8
0
10
0.879375
20
-0.163333
0
VERTEX
8
0
10
0.877917
20
-0.164792
0
VERTEX
8
0
10
0.876458
20
-0.166250
0
VERTEX
8
0
10
0.876458
20
-0.167708
0
VERTEX
8
0
10
0.875000
20
-0.169167
0
VERTEX
8
0
10
0.873542
20
-0.170625
0
VERTEX
8
0
10
0.872083
20
-0.172083
0
VERTEX
8
0
10
0.870625
20
-0.173542
0
VERTEX
8
0
10
0.869167
20
-0.175000
0
VERTEX
8
0
10
0.867708
20
-0.176458
0
VERTEX
8
0
10
0.866250
20
-0.177917
0
VERTEX
8
0
10
0.864792
20
-0.179375
0
VERTEX
8
0
10
0.863333
20
-0.180833
0
VERTEX
8
0
10
0.863333
20
-0.182292
0
VERTEX
8
0
10
0.861875
20
-0.183750
0
VERTEX
8
0
10
0.860417
20
-0.185208
0
VERTEX
8
0
10
0.858958
20
-0.186667
0
VERTEX
8
0
10
0.857500
20
-0.188125
0
VERTEX
8
0
10
0.856042
20
-0.189583
0
VERTEX
8
0
10
0.856042
20
-0.191042
0
VERTEX
8
0
10
0.854583
20
-0.192500
0
VERTEX
8
0
10
0.853125
20
-0.193958
0
VERTEX
8
0
10
0.851667
20
-0.195417
0
VERTEX
8
0
10
0.850208
20
-0.196875
0
VERTEX
8
0
10
0.848750
20
-0.198333
0
VERTEX
8
0
10
0.848750
20
-0.199792
0
VERTEX
8
0
10
0.847292
20
-0.201250
0
VERTEX
8
0
10
0.845833
20
-0.202708
0
VERTEX
8
0
10
0.844375
20
-0.204167
0
VERTEX
8
0
10
0.842917
20
-0.205625
0
VERTEX
8
0
10
0.842917
20
-0.207083
0
VERTEX
8
0
10
0.841458
20
-0.208542
0
VERTEX
8
0
10
0.840000
20
-0.210000
0
VERTEX
8
0
10
0.838542
20
-0.211458
0
VERTEX
8
0
10
0.838542
20
-0.212917
0
VERTEX
8
0
10
0.837083
20
-0.214375
0
VERTEX
8
0
10
0.835625
20
-0.215833
0
VERTEX
8
0
10
0.835625
20
-0.217292
0
VERTEX
8
0
10
0.834167
20
-0.218750
0
VERTEX
8
0
10
0.832708
20
-0.220208
0
VERTEX
8
0
10
0.832708
20
-0.221667
0
VERTEX
8
0
10
0.831250
20
-0.223125
0
VERTEX
8
0
10
0.829792
20
-0.224583
0
VERTEX
8
0
10
0.829792
20
-0.226042
0
VERTEX
8
0
10
0.828333
20
-0.227500
0
VERTEX
8
0
10
0.828333
20
-0.228958
0
VERTEX
8
0
10
0.826875
20
-0.230417
0
VERTEX
8
0
10
0.825417
20
-0.231875
0
VERTEX
8
0
10
0.825417
20
-0.233333
0
VERTEX
8
0
10
0.823958
20
-0.234792
0
VERTEX
8
0
10
0.823958
20
-0.236250
0
VERTEX
8
0
10
0.822500
20
-0.237708
0
VERTEX
8
0
10
0.822500
20
-0.239167
0
VERTEX
8
0
10
0.821042
20
-0.240625
0
VERTEX
8
0
10
0.821042
20
-0.242083
0
VERTEX
8
0
10
0.821042
20
-0.243542
0
VERTEX
8
0
10
0.819583
20
-0.245000
0
VERTEX
8
0
10
0.819583
20
-0.246458
0
VERTEX
8
0
10
0.819583
20
-0.247917
0
VERTEX
8
0
10
0.818125
20
-0.249375
0
VERTEX
8
0
10
0.818125
20
-0.250833
0
VERTEX
8
0
10
0.818125
20
-0.252292
0
VERTEX
8
0
10
0.816667
20
-0.253750
0
VERTEX
8
0
10
0.816667
20
-0.255208
0
VERTEX
8
0
10
0.816667
20
-0.256667
0
VERTEX
8
0
10
0.815208
20
-0.258125
0
VERTEX
8
0
10
0.815208
20
-0.259583
0
VERTEX
8
0
10
0.815208
20
-0.261042
0
VERTEX
8
0
10
0.815208
20
-0.262500
0
VERTEX
8
0
10
0.815208
20
-0.263958
0
VERTEX
8
0
10
0.813750
20
-0.265417
0
VERTEX
8
0
10
0.813750
20
-0.266875
0
VERTEX
8
0
10
0.813750
20
-0.268333
0
VERTEX
8
0
10
0.813750
20
-0.269792
0
VERTEX
8
0
10
0.813750
20
-0.271250
0
VERTEX
8
0
10
0.813750
20
-0.272708
0
VERTEX
8
0
10
0.813750
20
-0.274167
0
VERTEX
8
0
10
0.813750
20
-0.275625
0
VERTEX
8
0
10
0.813750
20
-0.277083
0
VERTEX
8
0
10
0.813750
20
-0.278542
0
VERTEX
8
0
10
0.813750
20
-0.280000
0
VERTEX
8
0
10
0.813750
20
-0.281458
0
VERTEX
8
0
10
0.813750
20
-0.282917
0
VERTEX
8
0
10
0.813750
20
-0.284375
0
VERTEX
8
0
10
0.813750
20
-0.285833
0
VERTEX
8
0
10
0.813750
20
-0.287292
0
VERTEX
8
0
10
0.813750
20
-0.288750
0
VERTEX
8
0
10
0.813750
20
-0.290208
0
VERTEX
8
0
10
0.813750
20
-0.291667
0
VERTEX
8
0
10
0.813750
20
-0.293125
0
VERTEX
8
0
10
0.813750
20
-0.294583
0
VERTEX
8
0
10
0.813750
20
-0.296042
0
VERTEX
8
0
10
0.813750
20
-0.297500
0
VERTEX
8
0
10
0.813750
20
-0.298958
0
VERTEX
8
0
10
0.815208
20
-0.300417
0
VERTEX
8
0
10
0.815208
20
-0.301875
0
VERTEX
8
0
10
0.815208
20
-0.303333
0
VERTEX
8
0
10
0.815208
20
-0.304792
0
VERTEX
8
0
10
0.815208
20
-0.306250
0
VERTEX
8
0
10
0.816667
20
-0.307708
0
VERTEX
8
0
10
0.816667
20
-0.309167
0
VERTEX
8
0
10
0.816667
20
-0.310625
0
VERTEX
8
0
10
0.816667
20
-0.312083
0
VERTEX
8
0
10
0.818125
20
-0.313542
0
VERTEX
8
0
10
0.818125
20
-0.315000
0
VERTEX
8
0
10
0.818125
20
-0.316458
0
VERTEX
8
0
10
0.818125
20
-0.317917
0
VERTEX
8
0
10
0.819583
20
-0.319375
0
VERTEX
8
0
10
0.819583
20
-0.320833
0
VERTEX
8
0
10
0.819583
20
-0.322292
0
VERTEX
8
0
10
0.821042
20
-0.323750
0
VERTEX
8
0
10
0.821042
20
-0.325208
0
VERTEX
8
0
10
0.821042
20
-0.326667
0
VERTEX
8
0
10
0.822500
20
-0.328125
0
VERTEX
8
0
10
0.822500
20
-0.329583
0
VERTEX
8
0
10
0.823958
20
-0.331042
0
VERTEX
8
0
10
0.823958
20
-0.332500
0
VERTEX
8
0
10
0.823958
20
-0.333958
0
VERTEX
8
0
10
0.825417
20
-0.335417
0
VERTEX
8
0
10
0.825417
20
-0.336875
0
VERTEX
8
0
10
0.826875
20
-0.338333
0
VERTEX
8
0
10
0.826875
20
-0.339792
0
VERTEX
8
0
10
0.828333
20
-0.341250
0
VERTEX
8
0
10
0.828333
20
-0.342708
0
VERTEX
8
0
10
0.828333
20
-0.344167
0
VERTEX
8
0
10
0.829792
20
-0.345625
0
VERTEX
8
0
10
0.829792
20
-0.347083
0
VERTEX
8
0
10
0.831250
20
-0.348542
0
VERTEX
8
0
10
0.831250
20
-0.350000
0
VERTEX
8
0
10
0.832708
20
-0.351458
0
VERTEX
8
0
10
0.832708
20
-0.352917
0
VERTEX
8
0
10
0.834167
20
-0.354375
0
VERTEX
8
0
10
0.835625
20
-0.355833
0
VERTEX
8
0
10
0.835625
20
-0.357292
0
VERTEX
8
0
10
0.837083
20
-0.358750
0
VERTEX
8
0
10
0.837083
20
-0.360208
0
VERTEX
8
0
10
0.838542
20
-0.361667
0
VERTEX
8
0
10
0.838542
20
-0.363125
0
VERTEX
8
0
10
0.840000
20
-0.364583
0
VERTEX
8
0
10
0.841458
20
-0.366042
0
VERTEX
8
0
10
0.841458
20
-0.367500
0
VERTEX
8
0
10
0.842917
20
-0.368958
0
VERTEX
8
0
10
0.842917
20
-0.370417
0
VERTEX
8
0
10
0.844375
20
-0.371875
0
VERTEX
8
0
10
0.845833
20
-0.373333
0
VERTEX
8
0
10
0.845833
20
-0.374792
0
VERTEX
8
0
10
0.847292
20
-0.376250
0
VERTEX
8
0
10
0.848750
20
-0.377708
0
VERTEX
8
0
10
0.848750
20
-0.379167
0
VERTEX
8
0
10
0.850208
20
-0.380625
0
VERTEX
8
0
10
0.851667
20
-0.382083
0
VERTEX
8
0
10
0.851667
20
-0.383542
0
VERTEX
8
0
10
0.853125
20
-0.385000
0
VERTEX
8
0
10
0.854583
20
-0.386458
0
VERTEX
8
0
10
0.854583
20
-0.387917
0
VERTEX
8
0
10
0.856042
20
-0.389375
0
VERTEX
8
0
10
0.857500
20
-0.390833
0
VERTEX
8
0
10
0.857500
20
-0.392292
0
VERTEX
8
0
10
0.858958
20
-0.393750
0
VERTEX
8
0
10
0.860417
20
-0.395208
0
VERTEX
8
0
10
0.861875
20
-0.396667
0
VERTEX
8
0
10
0.861875
20
-0.398125
0
VERTEX
8
0
10
0.863333
20
-0.399583
0
VERTEX
8
0
10
0.864792
20
-0.401042
0
VERTEX
8
0
10
0.866250
20
-0.402500
0
VERTEX
8
0
10
0.866250
20
-0.403958
0
VERTEX
8
0
10
0.867708
20
-0.405417
0
VERTEX
8
0
10
0.869167
20
-0.406875
0
VERTEX
8
0
10
0.870625
20
-0.408333
0
VERTEX
8
0
10
0.870625
20
-0.409792
0
VERTEX
8
0
10
0.872083
20
-0.411250
0
VERTEX
8
0
10
0.873542
20
-0.412708
0
VERTEX
8
0
10
0.875000
20
-0.414167
0
VERTEX
8
0
10
0.876458
20
-0.415625
0
VERTEX
8
0
10
0.876458
20
-0.417083
0
VERTEX
8
0
10
0.877917
20
-0.418542
0
VERTEX
8
0
10
0.879375
20
-0.420000
0
VERTEX
8
0
10
0.880833
20
-0.421458
0
VERTEX
8
0
10
0.882292
20
-0.422917
0
VERTEX
8
0
10
0.882292
20
-0.424375
0
VERTEX
8
0
10
0.883750
20
-0.425833
0
VERTEX
8
0
10
0.885208
20
-0.427292
0
VERTEX
8
0
10
0.886667
20
-0.428750
0
VERTEX
8
0
10
0.886667
20
-0.430208
0
VERTEX
8
0
10
0.888125
20
-0.431667
0
VERTEX
8
0
10
0.889583
20
-0.433125
0
VERTEX
8
0
10
0.891042
20
-0.434583
0
VERTEX
8
0
10
0.892500
20
-0.436042
0
VERTEX
8
0
10
0.893958
20
-0.437500
0
VERTEX
8
0
10
0.893958
20
-0.438958
0
VERTEX
8
0
10
0.895417
20
-0.440417
0
VERTEX
8
0
10
0.896875
20
-0.441875
0
VERTEX
8
0
10
0.898333
20
-0.443333
0
VERTEX
8
0
10
0.898333
20
-0.444792
0
VERTEX
8
0
10
0.899792
20
-0.446250
0
VERTEX
8
0
10
0.901250
20
-0.447708
0
VERTEX
8
0
10
0.902708
20
-0.449167
0
VERTEX
8
0
10
0.902708
20
-0.450625
0
VERTEX
8
0
10
0.904167
20
-0.452083
0
VERTEX
8
0
10
0.905625
20
-0.453542
0
VERTEX
8
0
10
0.907083
20
-0.455000
0
VERTEX
8
0
10
0.907083
20
-0.456458
0
VERTEX
8
0
10
0.908542
20
-0.457917
0
VERTEX
8
0
10
0.910000
20
-0.459375
0
VERTEX
8
0
10
0.911458
20
-0.460833
0
VERTEX
8
0
10
0.911458
20
-0.462292
0
VERTEX
8
0
10
0.912917
20
-0.463750
0
VERTEX
8
0
10
0.914375
20
-0.465208
0
VERTEX
8
0
10
0.914375
20
-0.466667
0
VERTEX
8
0
10
0.915833
20
-0.468125
0
VERTEX
8
0
10
0.917292
20
-0.469583
0
VERTEX
8
0
10
0.917292
20
-0.471042
0
VERTEX
8
0
10
0.918750
20
-0.472500
0
VERTEX
8
0
10
0.920208
20
-0.473958
0
VERTEX
8
0
10
0.920208
20
-0.475417
0
VERTEX
8
0
10
0.921667
20
-0.476875
0
VERTEX
8
0
10
0.921667
20
-0.478333
0
VERTEX
8
0
10
0.923125
20
-0.479792
0
VERTEX
8
0
10
0.924583
20
-0.481250
0
VERTEX
8
0
10
0.924583
20
-0.482708
0
VERTEX
8
0
10
0.926042
20
-0.484167
0
VERTEX
8
0
10
0.926042
20
-0.485625
0
VERTEX
8
0
10
0.927500
20
-0.487083
0
VERTEX
8
0
10
0.927500
20
-0.488542
0
VERTEX
8
0
10
0.928958
20
-0.490000
0
VERTEX
8
0
10
0.928958
20
-0.491458
0
VERTEX
8
0
10
0.930417
20
-0.492917
0
VERTEX
8
0
10
0.930417
20
-0.494375
0
VERTEX
8
0
10
0.931875
20
-0.495833
0
VERTEX
8
0
10
0.933333
20
-0.497292
0
VERTEX
8
0
10
0.933333
20
-0.498750
0
VERTEX
8
0
10
0.933333
20
-0.500208
0
VERTEX
8
0
10
0.934792
20
-0.501667
0
VERTEX
8
0
10
0.934792
20
-0.503125
0
VERTEX
8
0
10
0.936250
20
-0.504583
0
VERTEX
8
0
10
0.937708
20
-0.506042
0
VERTEX
8
0
10
0.937708
20
-0.507500
0
VERTEX
8
0
10
0.937708
20
-0.508958
0
VERTEX
8
0
10
0.939167
20
-0.510417
0
VERTEX
8
0
10
0.939167
20
-0.511875
0
VERTEX
8
0
10
0.940625
20
-0.513333
0
VERTEX
8
0
10
0.940625
20
-0.514792
0
VERTEX
8
0
10
0.940625
20
-0.516250
0
VERTEX
8
0
10
0.942083
20
-0.517708
0
VERTEX
8
0
10
0.942083
20
-0.519167
0
VERTEX
8
0
10
0.943542
20
-0.520625
0
VERTEX
8
0
10
0.943542
20
-0.522083
0
VERTEX
8
0
10
0.943542
20
-0.523542
0
VERTEX
8
0
10
0.945000
20
-0.525000
0
VERTEX
8
0
10
0.945000
20
-0.526458
0
VERTEX
8
0
10
0.945000
20
-0.527917
0
VERTEX
8
0
10
0.946458
20
-0.529375
0
VERTEX
8
0
10
0.946458
20
-0.530833
0
VERTEX
8
0
10
0.946458
20
-0.532292
0
VERTEX
8
0
10
0.947917
20
-0.533750
0
VERTEX
8
0
10
0.947917
20
-0.535208
0
VERTEX
8
0
10
0.947917
20
-0.536667
0
VERTEX
8
0
10
0.949375
20
-0.538125
0
VERTEX
8
0
10
0.949375
20
-0.539583
0
VERTEX
8
0
10
0.949375
20
-0.541042
0
VERTEX
8
0
10
0.949375
20
-0.542500
0
VERTEX
8
0
10
0.950833
20
-0.543958
0
VERTEX
8
0
10
0.950833
20
-0.545417
0
VERTEX
8
0
10
0.950833
20
-0.546875
0
VERTEX
8
0
10
0.950833
20
-0.548333
0
VERTEX
8
0
10
0.950833
20
-0.549792
0
VERTEX
8
0
10
0.952292
20
-0.551250
0
VERTEX
8
0
10
0.952292
20
-0.552708
0
VERTEX
8
0
10
0.952292
20
-0.554167
0
VERTEX
8
0
10
0.952292
20
-0.555625
0
VERTEX
8
0
10
0.952292
20
-0.557083
0
VERTEX
8
0
10
0.952292
20
-0.558542
0
VERTEX
8
0
10
0.953750
20
-0.560000
0
VERTEX
8
0
10
0.953750
20
-0.561458
0
VERTEX
8
0
10
0.953750
20
-0.562917
0
VERTEX
8
0
10
0.953750
20
-0.564375
0
VERTEX
8
0
10
0.953750
20
-0.565833
0
VERTEX
8
0
10
0.953750
20
-0.567292
0
VERTEX
8
0
10
0.953750
20
-0.568750
0
VERTEX
8
0
10
0.953750
20
-0.570208
0
VERTEX
8
0
10
0.953750
20
-0.571667
0
VERTEX
8
0
10
0.953750
20
-0.573125
0
VERTEX
8
0
10
0.953750
20
-0.574583
0
VERTEX
8
0
10
0.953750
20
-0.576042
0
VERTEX
8
0
10
0.953750
20
-0.577500
0
VERTEX
8
0
10
0.953750
20
-0.578958
0
VERTEX
8
0
10
0.953750
20
-0.580417
0
VERTEX
8
0
10
0.953750
20
-0.581875
0
VERTEX
8
0
10
0.953750
20
-0.583333
0
VERTEX
8
0
10
0.953750
20
-0.584792
0
VERTEX
8
0
10
0.953750
20
-0.586250
0
VERTEX
8
0
10
0.952292
20
-0.587708
0
VERTEX
8
0
10
0.952292
20
-0.589167
0
VERTEX
8
0
10
0.952292
20
-0.590625
0
VERTEX
8
0
10
0.952292
20
-0.592083
0
VERTEX
8
0
10
0.952292
20
-0.593542
0
VERTEX
8
0
10
0.950833
20
-0.595000
0
VERTEX
8
0
10
0.950833
20
-0.596458
0
VERTEX
8
0
10
0.950833
20
-0.597917
0
VERTEX
8
0
10
0.950833
20
-0.599375
0
VERTEX
8
0
10
0.949375
20
-0.600833
0
VERTEX
8
0
10
0.949375
20
-0.602292
0
VERTEX
8
0
10
0.949375
20
-0.603750
0
VERTEX
8
0
10
0.949375
20
-0.605208
0
VERTEX
8
0
10
0.947917
20
-0.606667
0
VERTEX
8
0
10
0.947917
20
-0.608125
0
VERTEX
8
0
10
0.946458
20
-0.609583
0
VERTEX
8
0
10
0.946458
20
-0.611042
0
VERTEX
8
0
10
0.945000
20
-0.612500
0
VERTEX
8
0
10
0.945000
20
-0.613958
0
VERTEX
8
0
10
0.943542
20
-0.615417
0
VERTEX
8
0
10
0.943542
20
-0.616875
0
VERTEX
8
0
10
0.942083
20
-0.618333
0
VERTEX
8
0
10
0.942083
20
-0.619792
0
VERTEX
8
0
10
0.940625
20
-0.621250
0
VERTEX
8
0
10
0.940625
20
-0.622708
0
VERTEX
8
0
10
0.939167
20
-0.624167
0
VERTEX
8
0
10
0.937708
20
-0.625625
0
VERTEX
8
0
10
0.937708
20
-0.627083
0
VERTEX
8
0
10
0.936250
20
-0.627083
0
VERTEX
8
0
10
0.934792
20
-0.627083
0
VERTEX
8
0
10
0.933333
20
-0.625625
0
VERTEX
8
0
10
0.931875
20
-0.624167
0
VERTEX
8
0
10
0.930417
20
-0.622708
0
VERTEX
8
0
10
0.928958
20
-0.622708
0
VERTEX
8
0
10
0.927500
20
-0.621250
0
VERTEX
8
0
10
0.926042
20
-0.619792
0
VERTEX
8
0
10
0.924583
20
-0.618333
0
VERTEX
8
0
10
0.923125
20
-0.616875
0
VERTEX
8
0
10
0.921667
20
-0.616875
0
VERTEX
8
0
10
0.920208
20
-0.615417
0
VERTEX
8
0
10
0.918750
20
-0.613958
0
VERTEX
8
0
10
0.917292
20
-0.612500
0
VERTEX
8
0
10
0.915833
20
-0.612500
0
VERTEX
8
0
10
0.914375
20
-0.611042
0
VERTEX
8
0
10
0.912917
20
-0.609583
0
VERTEX
8
0
10
0.911458
20
-0.608125
0
VERTEX
8
0
10
0.910000
20
-0.606667
0
VERTEX
8
0
10
0.908542
20
-0.606667
0
VERTEX
8
0
10
0.907083
20
-0.605208
0
VERTEX
8
0
10
0.905625
20
-0.603750
0
VERTEX
8
0
10
0.904167
20
-0.602292
0
VERTEX
8
0
10
0.902708
20
-0.600833
0
VERTEX
8
0
10
0.901250
20
-0.600833
0
VERTEX
8
0
10
0.899792
20
-0.599375
0
VERTEX
8
0
10
0.898333
20
-0.597917
0
VERTEX
8
0
10
0.896875
20
-0.596458
0
VERTEX
8
0
10
0.895417
20
-0.596458
0
VERTEX
8
0
10
0.893958
20
-0.595000
0
VERTEX
8
0
10
0.892500
20
-0.593542
0
VERTEX
8
0
10
0.891042
20
-0.592083
0
VERTEX
8
0
10
0.889583
20
-0.590625
0
VERTEX
8
0
10
0.888125
20
-0.589167
0
VERTEX
8
0
10
0.886667
20
-0.589167
0
VERTEX
8
0
10
0.885208
20
-0.587708
0
VERTEX
8
0
10
0.883750
20
-0.586250
0
VERTEX
8
0
10
0.882292
20
-0.586250
0
VERTEX
8
0
10
0.880833
20
-0.584792
0
VERTEX
8
0
10
0.879375
20
-0.583333
0
VERTEX
8
0
10
0.877917
20
-0.581875
0
VERTEX
8
0
10
0.876458
20
-0.580417
0
VERTEX
8
0
10
0.875000
20
-0.578958
0
VERTEX
8
0
10
0.873542
20
-0.578958
0
VERTEX
8
0
10
0.872083
20
-0.577500
0
VERTEX
8
0
10
0.870625
20
-0.576042
0
VERTEX
8
0
10
0.869167
20
-0.574583
0
VERTEX
8
0
10
0.867708
20
-0.574583
0
VERTEX
8
0
10
0.866250
20
-0.573125
0
VERTEX
8
0
10
0.864792
20
-0.571667
0
VERTEX
8
0
10
0.863333
20
-0.570208
0
VERTEX
8
0
10
0.861875
20
-0.568750
0
VERTEX
8
0
10
0.860417
20
-0.568750
0
VERTEX
8
0
10
0.858958
20
-0.567292
0
VERTEX
8
0
10
0.857500
20
-0.565833
0
VERTEX
8
0
10
0.856042
20
-0.564375
0
VERTEX
8
0
10
0.854583
20
-0.562917
0
VERTEX
8
0
10
0.853125
20
-0.562917
0
VERTEX
8
0
10
0.851667
20
-0.561458
0
VERTEX
8
0
10
0.850208
20
-0.560000
0
VERTEX
8
0
10
0.848750
20
-0.558542
0
VERTEX
8
0
10
0.847292
20
-0.558542
0
VERTEX
8
0
10
0.845833
20
-0.557083
0
VERTEX
8
0
10
0.844375
20
-0.555625
0
VERTEX
8
0
10
0.842917
20
-0.554167
0
VERTEX
8
0
10
0.841458
20
-0.552708
0
VERTEX
8
0
10
0.840000
20
-0.552708
0
VERTEX
8
0
10
0.838542
20
-0.551250
0
VERTEX
8
0
10
0.837083
20
-0.549792
0
VERTEX
8
0
10
0.835625
20
-0.548333
0
VERTEX
8
0
10
0.834167
20
-0.546875
0
VERTEX
8
0
10
0.832708
20
-0.545417
0
VERTEX
8
0
10
0.831250
20
-0.545417
0
VERTEX
8
0
10
0.829792
20
-0.543958
0
VERTEX
8
0
10
0.828333
20
-0.542500
0
VERTEX
8
0
10
0.826875
20
-0.541042
0
VERTEX
8
0
10
0.825417
20
-0.539583
0
VERTEX
8
0
10
0.823958
20
-0.538125
0
VERTEX
8
0
10
0.822500
20
-0.536667
0
VERTEX
8
0
10
0.821042
20
-0.535208
0
VERTEX
8
0
10
0.819583
20
-0.533750
0
VERTEX
8
0
10
0.818125
20
-0.532292
0
VERTEX
8
0
10
0.816667
20
-0.530833
0
VERTEX
8
0
10
0.815208
20
-0.529375
0
VERTEX
8
0
10
0.813750
20
-0.527917
0
VERTEX
8
0
10
0.812292
20
-0.526458
0
VERTEX
8
0
10
0.812292
20
-0.525000
0
VERTEX
8
0
10
0.810833
20
-0.523542
0
VERTEX
8
0
10
0.809375
20
-0.522083
0
VERTEX
8
0
10
0.809375
20
-0.520625
0
VERTEX
8
0
10
0.807917
20
-0.519167
0
VERTEX
8
0
10
0.806458
20
-0.517708
0
VERTEX
8
0
10
0.806458
20
-0.516250
0
VERTEX
8
0
10
0.805000
20
-0.514792
0
VERTEX
8
0
10
0.805000
20
-0.513333
0
VERTEX
8
0
10
0.803542
20
-0.511875
0
VERTEX
8
0
10
0.803542
20
-0.510417
0
VERTEX
8
0
10
0.802083
20
-0.508958
0
VERTEX
8
0
10
0.802083
20
-0.507500
0
VERTEX
8
0
10
0.802083
20
-0.506042
0
VERTEX
8
0
10
0.800625
20
-0.504583
0
VERTEX
8
0
10
0.800625
20
-0.503125
0
VERTEX
8
0
10
0.800625
20
-0.501667
0
VERTEX
8
0
10
0.799167
20
-0.500208
0
VERTEX
8
0
10
0.799167
20
-0.498750
0
VERTEX
8
0
10
0.799167
20
-0.497292
0
VERTEX
8
0
10
0.797708
20
-0.495833
0
VERTEX
8
0
10
0.797708
20
-0.494375
0
VERTEX
8
0
10
0.797708
20
-0.492917
0
VERTEX
8
0
10
0.797708
20
-0.491458
0
VERTEX
8
0
10
0.796250
20
-0.490000
0
VERTEX
8
0
10
0.796250
20
-0.488542
0
VERTEX
8
0
10
0.796250
20
-0.487083
0
VERTEX
8
0
10
0.796250
20
-0.485625
0
VERTEX
8
0
10
0.796250
20
-0.484167
0
VERTEX
8
0
10
0.794792
20
-0.482708
0
VERTEX
8
0
10
0.794792
20
-0.481250
0
VERTEX
8
0
10
0.794792
20
-0.479792
0
VERTEX
8
0
10
0.794792
20
-0.478333
0
VERTEX
8
0
10
0.793333
20
-0.476875
0
VERTEX
8
0
10
0.793333
20
-0.475417
0
VERTEX
8
0
10
0.793333
20
-0.473958
0
VERTEX
8
0
10
0.793333
20
-0.472500
0
VERTEX
8
0
10
0.793333
20
-0.471042
0
VERTEX
8
0
10
0.791875
20
-0.469583
0
VERTEX
8
0
10
0.791875
20
-0.468125
0
VERTEX
8
0
10
0.791875
20
-0.466667
0
VERTEX
8
0
10
0.791875
20
-0.465208
0
VERTEX
8
0
10
0.790417
20
-0.463750
0
VERTEX
8
0
10
0.790417
20
-0.462292
0
VERTEX
8
0
10
0.790417
20
-0.460833
0
VERTEX
8
0
10
0.788958
20
-0.459375
0
VERTEX
8
0
10
0.788958
20
-0.457917
0
VERTEX
8
0
10
0.788958
20
-0.456458
0
VERTEX
8
0
10
0.787500
20
-0.455000
0
VERTEX
8
0
10
0.787500
20
-0.453542
0
VERTEX
8
0
10
0.786042
20
-0.452083
0
VERTEX
8
0
10
0.786042
20
-0.450625
0
VERTEX
8
0
10
0.784583
20
-0.449167
0
VERTEX
8
0
10
0.784583
20
-0.447708
0
VERTEX
8
0
10
0.783125
20
-0.446250
0
VERTEX
8
0
10
0.783125
20
-0.444792
0
VERTEX
8
0
10
0.781667
20
-0.443333
0
VERTEX
8
0
10
0.780208
20
-0.441875
0
VERTEX
8
0
10
0.780208
20
-0.440417
0
VERTEX
8
0
10
0.778750
20
-0.438958
0
VERTEX
8
0
10
0.777292
20
-0.437500
0
VERTEX
8
0
10
0.775833
20
-0.436042
0
VERTEX
8
0
10
0.774375
20
-0.434583
0
VERTEX
8
0
10
0.774375
20
-0.433125
0
VERTEX
8
0
10
0.772917
20
-0.431667
0
VERTEX
8
0
10
0.771458
20
-0.430208
0
VERTEX
8
0
10
0.770000
20
-0.428750
0
VERTEX
8
0
10
0.768542
20
-0.428750
0
VERTEX
8
0
10
0.767083
20
-0.427292
0
VERTEX
8
0
10
0.765625
20
-0.425833
0
VERTEX
8
0
10
0.764167
20
-0.424375
0
VERTEX
8
0
10
0.762708
20
-0.422917
0
VERTEX
8
0
10
0.761250
20
-0.421458
0
VERTEX
8
0
10
0.759792
20
-0.421458
0
VERTEX
8
0
10
0.758333
20
-0.420000
0
VERTEX
8
0
10
0.756875
20
-0.418542
0
VERTEX
8
0
10
0.755417
20
-0.418542
0
VERTEX
8
0
10
0.753958
20
-0.417083
0
VERTEX
8
0
10
0.752500
20
-0.417083
0
VERTEX
8
0
10
0.751042
20
-0.415625
0
VERTEX
8
0
10
0.749583
20
-0.415625
0
VERTEX
8
0
10
0.748125
20
-0.414167
0
VERTEX
8
0
10
0.746667
20
-0.414167
0
VERTEX
8
0
10
0.745208
20
-0.412708
0
VERTEX
8
0
10
0.743750
20
-0.412708
0
VERTEX
8
0
10
0.742292
20
-0.411250
0
VERTEX
8
0
10
0.740833
20
-0.411250
0
VERTEX
8
0
10
0.739375
20
-0.411250
0
VERTEX
8
0
10
0.737917
20
-0.409792
0
VERTEX
8
0
10
0.736458
20
-0.409792
0
VERTEX
8
0
10
0.735000
20
-0.409792
0
VERTEX
8
0
10
0.733542
20
-0.408333
0
VERTEX
8
0
10
0.732083
20
-0.408333
0
VERTEX
8
0
10
0.730625
20
-0.408333
0
VERTEX
8
0
10
0.729167
20
-0.408333
0
VERTEX
8
0
10
0.727708
20
-0.408333
0
VERTEX
8
0
10
0.726250
20
-0.406875
0
VERTEX
8
0
10
0.724792
20
-0.406875
0
VERTEX
8
0
10
0.723333
20
-0.406875
0
VERTEX
8
0
10
0.721875
20
-0.406875
0
VERTEX
8
0
10
0.720417
20
-0.406875
0
VERTEX
8
0
10
0.718958
20
-0.406875
0
VERTEX
8
0
10
0.717500
20
-0.406875
0
VERTEX
8
0
10
0.716042
20
-0.405417
0
VERTEX
8
0
10
0.714583
20
-0.405417
0
VERTEX
8
0
10
0.713125
20
-0.405417
0
VERTEX
8
0
10
0.711667
20
-0.405417
0
VERTEX
8
0
10
0.710208
20
-0.405417
0
VERTEX
8
0
10
0.708750
20
-0.405417
0
VERTEX
8
0
10
0.707292
20
-0.405417
0
VERTEX
8
0
10
0.705833
20
-0.405417
0
VERTEX
8
0
10
0.704375
20
-0.406875
0
VERTEX
8
0
10
0.702917
20
-0.406875
0
VERTEX
8
0
10
0.701458
20
-0.406875
0
VERTEX
8
0
10
0.700000
20
-0.406875
0
VERTEX
8
0
10
0.698542
20
-0.406875
0
VERTEX
8
0
10
0.697083
20
-0.406875
0
VERTEX
8
0
10
0.695625
20
-0.408333
0
VERTEX
8
0
10
0.694167
20
-0.408333
0
VERTEX
8
0
10
0.692708
20
-0.408333
0
VERTEX
8
0
10
0.691250
20
-0.408333
0
VERTEX
8
0
10
0.689792
20
-0.409792
0
VERTEX
8
0
10
0.688333
20
-0.409792
0
VERTEX
8
0
10
0.686875
20
-0.409792
0
VERTEX
8
0
10
0.685417
20
-0.411250
0
VERTEX
8
0
10
0.683958
20
-0.411250
0
VERTEX
8
0
10
0.682500
20
-0.411250
0
VERTEX
8
0
10
0.681042
20
-0.412708
0
VERTEX
8
0
10
0.679583
20
-0.412708
0
VERTEX
8
0
10
0.678125
20
-0.414167
0
VERTEX
8
0
10
0.676667
20
-0.414167
0
VERTEX
8
0
10
0.675208
20
-0.415625
0
VERTEX
8
0
10
0.673750
20
-0.415625
0
VERTEX
8
0
10
0.672292
20
-0.417083
0
VERTEX
8
0
10
0.670833
20
-0.418542
0
VERTEX
8
0
10
0.669375
20
-0.418542
0
VERTEX
8
0
10
0.667917
20
-0.420000
0
VERTEX
8
0
10
0.666458
20
-0.421458
0
VERTEX
8
0
10
0.665000
20
-0.421458
0
VERTEX
8
0
10
0.663542
20
-0.422917
0
VERTEX
8
0
10
0.662083
20
-0.422917
0
VERTEX
8
0
10
0.660625
20
-0.424375
0
VERTEX
8
0
10
0.659167
20
-0.425833
0
VERTEX
8
0
10
0.657708
20
-0.425833
0
VERTEX
8
0
10
0.656250
20
-0.425833
0
VERTEX
8
0
10
0.654792
20
-0.427292
0
VERTEX
8
0
10
0.653333
20
-0.427292
0
VERTEX
8
0
10
0.651875
20
-0.427292
0
VERTEX
8
0
10
0.650417
20
-0.427292
0
VERTEX
8
0
10
0.648958
20
-0.427292
0
VERTEX
8
0
10
0.647500
20
-0.427292
0
VERTEX
8
0
10
0.646042
20
-0.427292
0
VERTEX
8
0
10
0.644583
20
-0.427292
0
VERTEX
8
0
10
0.643125
20
-0.427292
0
VERTEX
8
0
10
0.641667
20
-0.427292
0
VERTEX
8
0
10
0.640208
20
-0.427292
0
VERTEX
8
0
10
0.638750
20
-0.427292
0
VERTEX
8
0
10
0.637292
20
-0.425833
0
VERTEX
8
0
10
0.635833
20
-0.425833
0
VERTEX
8
0
10
0.634375
20
-0.425833
0
VERTEX
8
0
10
0.632917
20
-0.425833
0
VERTEX
8
0
10
0.631458
20
-0.424375
0
VERTEX
8
0
10
0.630000
20
-0.424375
0
VERTEX
8
0
10
0.628542
20
-0.424375
0
VERTEX
8
0
10
0.627083
20
-0.422917
0
VERTEX
8
0
10
0.625625
20
-0.422917
0
VERTEX
8
0
10
0.624167
20
-0.421458
0
VERTEX
8
0
10
0.622708
20
-0.421458
0
VERTEX
8
0
10
0.621250
20
-0.421458
0
VERTEX
8
0
10
0.619792
20
-0.420000
0
VERTEX
8
0
10
0.618333
20
-0.420000
0
VERTEX
8
0
10
0.616875
20
-0.418542
0
VERTEX
8
0
10
0.615417
20
-0.418542
0
VERTEX
8
0
10
0.613958
20
-0.418542
0
VERTEX
8
0
10
0.612500
20
-0.417083
0
VERTEX
8
0
10
0.611042
20
-0.417083
0
VERTEX
8
0
10
0.609583
20
-0.417083
0
VERTEX
8
0
10
0.608125
20
-0.415625
0
VERTEX
8
0
10
0.606667
20
-0.415625
0
VERTEX
8
0
10
0.605208
20
-0.414167
0
VERTEX
8
0
10
0.603750
20
-0.414167
0
VERTEX
8
0
10
0.602292
20
-0.414167
0
VERTEX
8
0
10
0.600833
20
-0.412708
0
VERTEX
8
0
10
0.599375
20
-0.412708
0
VERTEX
8
0
10
0.597917
20
-0.412708
0
VERTEX
8
0
10
0.596458
20
-0.411250
0
VERTEX
8
0
10
0.595000
20
-0.411250
0
VERTEX
8
0
10
0.593542
20
-0.411250
0
VERTEX
8
0
10
0.592083
20
-0.409792
0
VERTEX
8
0
10
0.590625
20
-0.409792
0
VERTEX
8
0
10
0.589167
20
-0.409792
0
VERTEX
8
0
10
0.587708
20
-0.409792
0
VERTEX
8
0
10
0.586250
20
-0.408333
0
VERTEX
8
0
10
0.584792
20
-0.408333
0
VERTEX
8
0
10
0.583333
20
-0.408333
0
VERTEX
8
0
10
0.581875
20
-0.408333
0
VERTEX
8
0
10
0.580417
20
-0.406875
0
VERTEX
8
0
10
0.578958
20
-0.406875
0
VERTEX
8
0
10
0.577500
20
-0.406875
0
VERTEX
8
0
10
0.576042
20
-0.406875
0
VERTEX
8
0
10
0.574583
20
-0.405417
0
VERTEX
8
0
10
0.573125
20
-0.405417
0
VERTEX
8
0
10
0.571667
20
-0.405417
0
VERTEX
8
0
10
0.570208
20
-0.405417
0
VERTEX
8
0
10
0.568750
20
-0.405417
0
VERTEX
8
0
10
0.567292
20
-0.405417
0
VERTEX
8
0
10
0.565833
20
-0.403958
0
VERTEX
8
0
10
0.564375
20
-0.403958
0
VERTEX
8
0
10
0.562917
20
-0.403958
0
VERTEX
8
0
10
0.561458
20
-0.403958
0
VERTEX
8
0
10
0.560000
20
-0.403958
0
VERTEX
8
0
10
0.558542
20
-0.403958
0
VERTEX
8
0
10
0.557083
20
-0.403958
0
VERTEX
8
0
10
0.555625
20
-0.403958
0
VERTEX
8
0
10
0.554167
20
-0.403958
0
VERTEX
8
0
10
0.552708
20
-0.402500
0
VERTEX
8
0
10
0.551250
20
-0.402500
0
VERTEX
8
0
10
0.549792
20
-0.402500
0
VERTEX
8
0
10
0.548333
20
-0.402500
0
VERTEX
8
0
10
0.546875
20
-0.402500
0
VERTEX
8
0
10
0.545417
20
-0.402500
0
VERTEX
8
0
10
0.543958
20
-0.403958
0
VERTEX
8
0
10
0.542500
20
-0.402500
0
VERTEX
8
0
10
0.541042
20
-0.402500
0
VERTEX
8
0
10
0.539583
20
-0.403958
0
VERTEX
8
0
10
0.538125
20
-0.403958
0
VERTEX
8
0
10
0.536667
20
-0.403958
0
VERTEX
8
0
10
0.535208
20
-0.403958
0
VERTEX
8
0
10
0.533750
20
-0.403958
0
VERTEX
8
0
10
0.532292
20
-0.403958
0
VERTEX
8
0
10
0.530833
20
-0.403958
0
VERTEX
8
0
10
0.529375
20
-0.403958
0
VERTEX
8
0
10
0.527917
20
-0.405417
0
VERTEX
8
0
10
0.526458
20
-0.405417
0
VERTEX
8
0
10
0.525000
20
-0.405417
0
VERTEX
8
0
10
0.523542
20
-0.405417
0
VERTEX
8
0
10
0.522083
20
-0.405417
0
VERTEX
8
0
10
0.520625
20
-0.406875
0
VERTEX
8
0
10
0.519167
20
-0.406875
0
VERTEX
8
0
10
0.517708
20
-0.406875
0
VERTEX
8
0
10
0.516250
20
-0.408333
0
VERTEX
8
0
10
0.514792
20
-0.408333
0
VERTEX
8
0
10
0.513333
20
-0.408333
0
VERTEX
8
0
10
0.511875
20
-0.409792
0
VERTEX
8
0
10
0.510417
20
-0.409792
0
VERTEX
8
0
10
0.508958
20
-0.409792
0
VERTEX
8
0
10
0.507500
20
-0.411250
0
VERTEX
8
0
10
0.506042
20
-0.411250
0
VERTEX
8
0
10
0.504583
20
-0.412708
0
VERTEX
8
0
10
0.503125
20
-0.412708
0
VERTEX
8
0
10
0.501667
20
-0.414167
0
VERTEX
8
0
10
0.500208
20
-0.414167
0
VERTEX
8
0
10
0.498750
20
-0.415625
0
VERTEX
8
0
10
0.497292
20
-0.417083
0
VERTEX
8
0
10
0.495833
20
-0.417083
0
VERTEX
8
0
10
0.494375
20
-0.418542
0
VERTEX
8
0
10
0.492917
20
-0.420000
0
VERTEX
8
0
10
0.491458
20
-0.421458
0
VERTEX
8
0
10
0.490000
20
-0.422917
0
VERTEX
8
0
10
0.488542
20
-0.422917
0
VERTEX
8
0
10
0.487083
20
-0.424375
0
VERTEX
8
0
10
0.487083
20
-0.425833
0
VERTEX
8
0
10
0.485625
20
-0.425833
0
VERTEX
8
0
10
0.484167
20
-0.427292
0
VERTEX
8
0
10
0.482708
20
-0.428750
0
VERTEX
8
0
10
0.482708
20
-0.430208
0
VERTEX
8
0
10
0.481250
20
-0.431667
0
VERTEX
8
0
10
0.479792
20
-0.433125
0
VERTEX
8
0
10
0.478333
20
-0.434583
0
VERTEX
8
0
10
0.476875
20
-0.436042
0
VERTEX
8
0
10
0.476875
20
-0.437500
0
VERTEX
8
0
10
0.475417
20
-0.438958
0
VERTEX
8
0
10
0.473958
20
-0.440417
0
VERTEX
8
0
10
0.473958
20
-0.441875
0
VERTEX
8
0
10
0.472500
20
-0.443333
0
VERTEX
8
0
10
0.472500
20
-0.444792
0
VERTEX
8
0
10
0.471042
20
-0.446250
0
VERTEX
8
0
10
0.471042
20
-0.447708
0
VERTEX
8
0
10
0.469583
20
-0.449167
0
VERTEX
8
0
10
0.469583
20
-0.450625
0
VERTEX
8
0
10
0.468125
20
-0.452083
0
VERTEX
8
0
10
0.468125
20
-0.453542
0
VERTEX
8
0
10
0.468125
20
-0.455000
0
VERTEX
8
0
10
0.466667
20
-0.456458
0
VERTEX
8
0
10
0.466667
20
-0.457917
0
VERTEX
8
0
10
0.466667
20
-0.459375
0
VERTEX
8
0
10
0.465208
20
-0.460833
0
VERTEX
8
0
10
0.465208
20
-0.462292
0
VERTEX
8
0
10
0.465208
20
-0.463750
0
VERTEX
8
0
10
0.465208
20
-0.465208
0
VERTEX
8
0
10
0.465208
20
-0.466667
0
VERTEX
8
0
10
0.465208
20
-0.468125
0
VERTEX
8
0
10
0.463750
20
-0.469583
0
VERTEX
8
0
10
0.463750
20
-0.471042
0
VERTEX
8
0
10
0.463750
20
-0.472500
0
VERTEX
8
0
10
0.463750
20
-0.473958
0
VERTEX
8
0
10
0.463750
20
-0.475417
0
VERTEX
8
0
10
0.463750
20
-0.476875
0
VERTEX
8
0
10
0.465208
20
-0.478333
0
VERTEX
8
0
10
0.465208
20
-0.479792
0
VERTEX
8
0
10
0.465208
20
-0.481250
0
VERTEX
8
0
10
0.465208
20
-0.482708
0
VERTEX
8
0
10
0.465208
20
-0.484167
0
VERTEX
8
0
10
0.465208
20
-0.485625
0
VERTEX
8
0
10
0.466667
20
-0.487083
0
VERTEX
8
0
10
0.466667
20
-0.488542
0
VERTEX
8
0
10
0.466667
20
-0.490000
0
VERTEX
8
0
10
0.468125
20
-0.491458
0
VERTEX
8
0
10
0.468125
20
-0.492917
0
VERTEX
8
0
10
0.469583
20
-0.494375
0
VERTEX
8
0
10
0.469583
20
-0.495833
0
VERTEX
8
0
10
0.471042
20
-0.497292
0
VERTEX
8
0
10
0.471042
20
-0.498750
0
VERTEX
8
0
10
0.469583
20
-0.500208
0
VERTEX
8
0
10
0.468125
20
-0.500208
0
VERTEX
8
0
10
0.466667
20
-0.501667
0
VERTEX
8
0
10
0.465208
20
-0.503125
0
VERTEX
8
0
10
0.463750
20
-0.504583
0
VERTEX
8
0
10
0.462292
20
-0.504583
0
VERTEX
8
0
10
0.460833
20
-0.506042
0
VERTEX
8
0
10
0.459375
20
-0.506042
0
VERTEX
8
0
10
0.457917
20
-0.507500
0
VERTEX
8
0
10
0.456458
20
-0.508958
0
VERTEX
8
0
10
0.455000
20
-0.508958
0
VERTEX
8
0
10
0.453542
20
-0.508958
0
VERTEX
8
0
10
0.452083
20
-0.510417
0
VERTEX
8
0
10
0.450625
20
-0.510417
0
VERTEX
8
0
10
0.449167
20
-0.511875
0
VERTEX
8
0
10
0.447708
20
-0.511875
0
VERTEX
8
0
10
0.446250
20
-0.511875
0
VERTEX
8
0
10
0.444792
20
-0.513333
0
VERTEX
8
0
10
0.443333
20
-0.513333
0
VERTEX
8
0
10
0.441875
20
-0.513333
0
VERTEX
8
0
10
0.440417
20
-0.513333
0
VERTEX
8
0
10
0.438958
20
-0.513333
0
VERTEX
8
0
10
0.437500
20
-0.514792
0
VERTEX
8
0
10
0.436042
20
-0.514792
0
VERTEX
8
0
10
0.434583
20
-0.514792
0
VERTEX
8
0
10
0.433125
20
-0.514792
0
VERTEX
8
0
10
0.431667
20
-0.514792
0
VERTEX
8
0
10
0.430208
20
-0.514792
0
VERTEX
8
0
10
0.428750
20
-0.514792
0
VERTEX
8
0
10
0.427292
20
-0.514792
0
VERTEX
8
0
10
0.425833
20
-0.514792
0
VERTEX
8
0
10
0.424375
20
-0.516250
0
VERTEX
8
0
10
0.422917
20
-0.516250
0
VERTEX
8
0
10
0.421458
20
-0.516250
0
VERTEX
8
0
10
0.420000
20
-0.516250
0
VERTEX
8
0
10
0.418542
20
-0.516250
0
VERTEX
8
0
10
0.417083
20
-0.516250
0
VERTEX
8
0
10
0.415625
20
-0.516250
0
VERTEX
8
0
10
0.414167
20
-0.516250
0
VERTEX
8
0
10
0.412708
20
-0.514792
0
VERTEX
8
0
10
0.411250
20
-0.514792
0
VERTEX
8
0
10
0.409792
20
-0.514792
0
VERTEX
8
0
10
0.408333
20
-0.514792
0
VERTEX
8
0
10
0.406875
20
-0.514792
0
VERTEX
8
0
10
0.405417
20
-0.514792
0
VERTEX
8
0
10
0.403958
20
-0.514792
0
VERTEX
8
0
10
0.402500
20
-0.514792
0
VERTEX
8
0
10
0.401042
20
-0.514792
0
VERTEX
8
0
10
0.399583
20
-0.514792
0
VERTEX
8
0
10
0.398125
20
-0.514792
0
VERTEX
8
0
10
0.396667
20
-0.514792
0
VERTEX
8
0
10
0.395208
20
-0.513333
0
VERTEX
8
0
10
0.393750
20
-0.513333
0
VERTEX
8
0
10
0.392292
20
-0.513333
0
VERTEX
8
0
10
0.390833
20
-0.513333
0
VERTEX
8
0
10
0.389375
20
-0.513333
0
VERTEX
8
0
10
0.387917
20
-0.513333
0
VERTEX
8
0
10
0.386458
20
-0.513333
0
VERTEX
8
0
10
0.385000
20
-0.511875
0
VERTEX
8
0
10
0.383542
20
-0.511875
0
VERTEX
8
0
10
0.382083
20
-0.511875
0
VERTEX
8
0
10
0.380625
20
-0.511875
0
VERTEX
8
0
10
0.379167
20
-0.511875
0
VERTEX
8
0
10
0.377708
20
-0.511875
0
VERTEX
8
0
10
0.376250
20
-0.511875
0
VERTEX
8
0
10
0.374792
20
-0.511875
0
VERTEX
8
0
10
0.373333
20
-0.510417
0
VERTEX
8
0
10
0.371875
20
-0.510417
0
VERTEX
8
0
10
0.370417
20
-0.510417
0
VERTEX
8
0
10
0.368958
20
-0.510417
0
VERTEX
8
0
10
0.367500
20
-0.510417
0
VERTEX
8
0
10
0.366042
20
-0.508958
0
VERTEX
8
0
10
0.364583
20
-0.508958
0
VERTEX
8
0
10
0.363125
20
-0.508958
0
VERTEX
8
0
10
0.361667
20
-0.508958
0
VERTEX
8
0
10
0.360208
20
-0.508958
0
VERTEX
8
0
10
0.358750
20
-0.508958
0
VERTEX
8
0
10
0.357292
20
-0.508958
0
VERTEX
8
0
10
0.355833
20
-0.508958
0
VERTEX
8
0
10
0.354375
20
-0.507500
0
VERTEX
8
0
10
0.352917
20
-0.507500
0
VERTEX
8
0
10
0.351458
20
-0.507500
0
VERTEX
8
0
10
0.350000
20
-0.507500
0
VERTEX
8
0
10
0.348542
20
-0.507500
0
VERTEX
8
0
10
0.347083
20
-0.507500
0
VERTEX
8
0
10
0.345625
20
-0.507500
0
VERTEX
8
0
10
0.344167
20
-0.507500
0
VERTEX
8
0
10
0.342708
20
-0.506042
0
VERTEX
8
0
10
0.341250
20
-0.507500
0
VERTEX
8
0
10
0.339792
20
-0.506042
0
VERTEX
8
0
10
0.338333
20
-0.506042
0
VERTEX
8
0
10
0.336875
20
-0.506042
0
VERTEX
8
0
10
0.335417
20
-0.506042
0
VERTEX
8
0
10
0.333958
20
-0.506042
0
VERTEX
8
0
10
0.332500
20
-0.506042
0
VERTEX
8
0
10
0.331042
20
-0.506042
0
VERTEX
8
0
10
0.329583
20
-0.506042
0
VERTEX
8
0
10
0.328125
20
-0.506042
0
VERTEX
8
0
10
0.326667
20
-0.506042
0
VERTEX
8
0
10
0.325208
20
-0.506042
0
VERTEX
8
0
10
0.323750
20
-0.506042
0
VERTEX
8
0
10
0.322292
20
-0.506042
0
VERTEX
8
0
10
0.320833
20
-0.506042
0
VERTEX
8
0
10
0.319375
20
-0.506042
0
VERTEX
8
0
10
0.317917
20
-0.506042
0
VERTEX
8
0
10
0.316458
20
-0.506042
0
VERTEX
8
0
10
0.315000
20
-0.506042
0
VERTEX
8
0
10
0.313542
20
-0.507500
0
VERTEX
8
0
10
0.312083
20
-0.507500
0
VERTEX
8
0
10
0.310625
20
-0.507500
0
VERTEX
8
0
10
0.309167
20
-0.507500
0
VERTEX
8
0
10
0.307708
20
-0.507500
0
VERTEX
8
0
10
0.306250
20
-0.507500
0
VERTEX
8
0
10
0.304792
20
-0.507500
0
VERTEX
8
0
10
0.303333
20
-0.507500
0
VERTEX
8
0
10
0.301875
20
-0.507500
0
VERTEX
8
0
10
0.300417
20
-0.507500
0
VERTEX
8
0
10
0.298958
20
-0.508958
0
VERTEX
8
0
10
0.297500
20
-0.508958
0
VERTEX
8
0
10
0.296042
20
-0.508958
0
VERTEX
8
0
10
0.294583
20
-0.508958
0
VERTEX
8
0
10
0.293125
20
-0.508958
0
VERTEX
8
0
10
0.291667
20
-0.510417
0
VERTEX
8
0
10
0.290208
20
-0.510417
0
VERTEX
8
0
10
0.288750
20
-0.510417
0
VERTEX
8
0
10
0.287292
20
-0.510417
0
VERTEX
8
0
10
0.285833
20
-0.510417
0
VERTEX
8
0
10
0.284375
20
-0.511875
0
VERTEX
8
0
10
0.282917
20
-0.511875
0
VERTEX
8
0
10
0.281458
20
-0.511875
0
VERTEX
8
0
10
0.280000
20
-0.511875
0
VERTEX
8
0
10
0.278542
20
-0.513333
0
VERTEX
8
0
10
0.277083
20
-0.513333
0
VERTEX
8
0
10
0.275625
20
-0.513333
0
VERTEX
8
0
10
0.274167
20
-0.513333
0
VERTEX
8
0
10
0.272708
20
-0.514792
0
VERTEX
8
0
10
0.271250
20
-0.514792
0
VERTEX
8
0
10
0.269792
20
-0.514792
0
VERTEX
8
0
10
0.268333
20
-0.516250
0
VERTEX
8
0
10
0.266875
20
-0.516250
0
VERTEX
8
0
10
0.265417
20
-0.516250
0
VERTEX
8
0
10
0.263958
20
-0.516250
0
VERTEX
8
0
10
0.262500
20
-0.517708
0
VERTEX
8
0
10
0.261042
20
-0.517708
0
VERTEX
8
0
10
0.259583
20
-0.519167
0
VERTEX
8
0
10
0.258125
20
-0.519167
0
VERTEX
8
0
10
0.256667
20
-0.519167
0
VERTEX
8
0
10
0.255208
20
-0.520625
0
VERTEX
8
0
10
0.253750
20
-0.520625
0
VERTEX
8
0
10
0.252292
20
-0.520625
0
VERTEX
8
0
10
0.250833
20
-0.522083
0
VERTEX
8
0
10
0.249375
20
-0.522083
0
VERTEX
8
0
10
0.247917
20
-0.523542
0
VERTEX
8
0
10
0.246458
20
-0.523542
0
VERTEX
8
0
10
0.245000
20
-0.523542
0
VERTEX
8
0
10
0.243542
20
-0.525000
0
VERTEX
8
0
10
0.242083
20
-0.525000
0
VERTEX
8
0
10
0.240625
20
-0.526458
0
VERTEX
8
0
10
0.239167
20
-0.526458
0
VERTEX
8
0
10
0.237708
20
-0.527917
0
VERTEX
8
0
10
0.236250
20
-0.527917
0
VERTEX
8
0
10
0.234792
20
-0.529375
0
VERTEX
8
0
10
0.233333
20
-0.529375
0
VERTEX
8
0
10
0.231875
20
-0.530833
0
VERTEX
8
0
10
0.230417
20
-0.530833
0
VERTEX
8
0
10
0.228958
20
-0.532292
0
VERTEX
8
0
10
0.227500
20
-0.532292
0
VERTEX
8
0
10
0.226042
20
-0.533750
0
VERTEX
8
0
10
0.224583
20
-0.533750
0
VERTEX
8
0
10
0.223125
20
-0.535208
0
VERTEX
8
0
10
0.221667
20
-0.535208
0
VERTEX
8
0
10
0.220208
20
-0.536667
0
VERTEX
8
0
10
0.218750
20
-0.536667
0
VERTEX
8
0
10
0.217292
20
-0.538125
0
VERTEX
8
0
10
0.215833
20
-0.538125
0
VERTEX
8
0
10
0.214375
20
-0.539583
0
VERTEX
8
0
10
0.212917
20
-0.539583
0
VERTEX
8
0
10
0.211458
20
-0.541042
0
VERTEX
8
0
10
0.210000
20
-0.541042
0
VERTEX
8
0
10
0.208542
20
-0.542500
0
VERTEX
8
0
10
0.207083
20
-0.543958
0
VERTEX
8
0
10
0.205625
20
-0.543958
0
VERTEX
8
0
10
0.204167
20
-0.545417
0
VERTEX
8
0
10
0.202708
20
-0.545417
0
VERTEX
8
0
10
0.201250
20
-0.546875
0
VERTEX
8
0
10
0.199792
20
-0.548333
0
VERTEX
8
0
10
0.198333
20
-0.548333
0
VERTEX
8
0
10
0.196875
20
-0.549792
0
VERTEX
8
0
10
0.195417
20
-0.549792
0
VERTEX
8
0
10
0.193958
20
-0.551250
0
VERTEX
8
0
10
0.192500
20
-0.552708
0
VERTEX
8
0
10
0.191042
20
-0.552708
0
VERTEX
8
0
10
0.189583
20
-0.554167
0
VERTEX
8
0
10
0.188125
20
-0.554167
0
VERTEX
8
0
10
0.186667
20
-0.555625
0
VERTEX
8
0
10
0.185208
20
-0.557083
0
VERTEX
8
0
10
0.183750
20
-0.557083
0
VERTEX
8
0
10
0.182292
20
-0.558542
0
VERTEX
8
0
10
0.180833
20
-0.560000
0
VERTEX
8
0
10
0.179375
20
-0.561458
0
VERTEX
8
0
10
0.177917
20
-0.561458
0
VERTEX
8
0
10
0.176458
20
-0.562917
0
VERTEX
8
0
10
0.175000
20
-0.562917
0
VERTEX
8
0
10
0.173542
20
-0.564375
0
VERTEX
8
0
10
0.172083
20
-0.565833
0
VERTEX
8
0
10
0.170625
20
-0.567292
0
VERTEX
8
0
10
0.169167
20
-0.567292
0
VERTEX
8
0
10
0.167708
20
-0.568750
0
VERTEX
8
0
10
0.166250
20
-0.570208
0
VERTEX
8
0
10
0.164792
20
-0.570208
0
VERTEX
8
0
10
0.163333
20
-0.571667
0
VERTEX
8
0
10
0.161875
20
-0.573125
0
VERTEX
8
0
10
0.160417
20
-0.574583
0
VERTEX
8
0
10
0.158958
20
-0.574583
0
VERTEX
8
0
10
0.157500
20
-0.576042
0
VERTEX
8
0
10
0.156042
20
-0.577500
0
VERTEX
8
0
10
0.154583
20
-0.578958
0
VERTEX
8
0
10
0.153125
20
-0.578958
0
VERTEX
8
0
10
0.151667
20
-0.580417
0
VERTEX
8
0
10
0.150208
20
-0.581875
0
VERTEX
8
0
10
0.148750
20
-0.583333
0
VERTEX
8
0
10
0.147292
20
-0.583333
0
VERTEX
8
0
10
0.145833
20
-0.584792
0
VERTEX
8
0
10
0.144375
20
-0.586250
0
VERTEX
8
0
10
0.142917
20
-0.587708
0
VERTEX
8
0
10
0.141458
20
-0.587708
0
VERTEX
8
0
10
0.140000
20
-0.589167
0
VERTEX
8
0
10
0.138542
20
-0.590625
0
VERTEX
8
0
10
0.137083
20
-0.592083
0
VERTEX
8
0
10
0.135625
20
-0.593542
0
VERTEX
8
0
10
0.134167
20
-0.593542
0
VERTEX
8
0
10
0.132708
20
-0.595000
0
VERTEX
8
0
10
0.131250
20
-0.596458
0
VERTEX
8
0
10
0.129792
20
-0.597917
0
VERTEX
8
0
10
0.128333
20
-0.599375
0
VERTEX
8
0
10
0.126875
20
-0.599375
0
VERTEX
8
0
10
0.125417
20
-0.600833
0
VERTEX
8
0
10
0.123958
20
-0.602292
0
VERTEX
8
0
10
0.122500
20
-0.603750
0
VERTEX
8
0
10
0.121042
20
-0.605208
0
VERTEX
8
0
10
0.119583
20
-0.606667
0
VERTEX
8
0
10
0.118125
20
-0.608125
0
VERTEX
8
0
10
0.116667
20
-0.609583
0
VERTEX
8
0
10
0.115208
20
-0.611042
0
VERTEX
8
0
10
0.113750
20
-0.612500
0
VERTEX
8
0
10
0.112292
20
-0.613958
0
VERTEX
8
0
10
0.110833
20
-0.615417
0
VERTEX
8
0
10
0.109375
20
-0.616875
0
VERTEX
8
0
10
0.109375
20
-0.618333
0
VERTEX
8
0
10
0.107917
20
-0.619792
0
VERTEX
8
0
10
0.106458
20
-0.621250
0
VERTEX
8
0
10
0.106458
20
-0.622708
0
VERTEX
8
0
10
0.105000
20
-0.624167
0
VERTEX
8
0
10
0.103542
20
-0.625625
0
VERTEX
8
0
10
0.103542
20
-0.627083
0
VERTEX
8
0
10
0.102083
20
-0.628542
0
VERTEX
8
0
10
0.102083
20
-0.630000
0
VERTEX
8
0
10
0.100625
20
-0.631458
0
VERTEX
8
0
10
0.100625
20
-0.632917
0
VERTEX
8
0
10
0.099167
20
-0.634375
0
VERTEX
8
0
10
0.099167
20
-0.635833
0
VERTEX
8
0
10
0.099167
20
-0.637292
0
VERTEX
8
0
10
0.097708
20
-0.638750
0
VERTEX
8
0
10
0.097708
20
-0.640208
0
VERTEX
8
0
10
0.097708
20
-0.641667
0
VERTEX
8
0
10
0.097708
20
-0.643125
0
VERTEX
8
0
10
0.096250
20
-0.644583
0
VERTEX
8
0
10
0.096250
20
-0.646042
0
VERTEX
8
0
10
0.096250
20
-0.647500
0
VERTEX
8
0
10
0.096250
20
-0.648958
0
VERTEX
8
0
10
0.096250
20
-0.650417
0
VERTEX
8
0
10
0.096250
20
-0.651875
0
VERTEX
8
0
10
0.096250
20
-0.653333
0
VERTEX
8
0
10
0.096250
20
-0.654792
0
VERTEX
8
0
10
0.096250
20
-0.656250
0
VERTEX
8
0
10
0.096250
20
-0.657708
0
VERTEX
8
0
10
0.096250
20
-0.659167
0
VERTEX
8
0
10
0.096250
20
-0.660625
0
VERTEX
8
0
10
0.096250
20
-0.662083
0
VERTEX
8
0
10
0.096250
20
-0.663542
0
VERTEX
8
0
10
0.096250
20
-0.665000
0
VERTEX
8
0
10
0.096250
20
-0.666458
0
VERTEX
8
0
10
0.096250
20
-0.667917
0
VERTEX
8
0
10
0.096250
20
-0.669375
0
VERTEX
8
0
10
0.096250
20
-0.670833
0
VERTEX
8
0
10
0.096250
20
-0.672292
0
VERTEX
8
0
10
0.096250
20
-0.673750
0
VERTEX
8
0
10
0.096250
20
-0.675208
0
VERTEX
8
0
10
0.096250
20
-0.676667
0
VERTEX
8
0
10
0.096250
20
-0.678125
0
VERTEX
8
0
10
0.096250
20
-0.679583
0
VERTEX
8
0
10
0.096250
20
-0.681042
0
VERTEX
8
0
10
0.096250
20
-0.682500
0
VERTEX
8
0
10
0.096250
20
-0.683958
0
VERTEX
8
0
10
0.096250
20
-0.685417
0
VERTEX
8
0
10
0.096250
20
-0.686875
0
VERTEX
8
0
10
0.096250
20
-0.688333
0
VERTEX
8
0
10
0.096250
20
-0.689792
0
VERTEX
8
0
10
0.096250
20
-0.691250
0
VERTEX
8
0
10
0.096250
20
-0.692708
0
VERTEX
8
0
10
0.096250
20
-0.694167
0
VERTEX
8
0
10
0.096250
20
-0.695625
0
VERTEX
8
0
10
0.096250
20
-0.697083
0
VERTEX
8
0
10
0.096250
20
-0.698542
0
VERTEX
8
0
10
0.096250
20
-0.700000
0
VERTEX
8
0
10
0.094792
20
-0.701458
0
VERTEX
8
0
10
0.094792
20
-0.702917
0
VERTEX
8
0
10
0.094792
20
-0.704375
0
VERTEX
8
0
10
0.094792
20
-0.705833
0
VERTEX
8
0
10
0.093333
20
-0.707292
0
VERTEX
8
0
10
0.093333
20
-0.708750
0
VERTEX
8
0
10
0.093333
20
-0.710208
0
VERTEX
8
0
10
0.091875
20
-0.711667
0
VERTEX
8
0
10
0.091875
20
-0.713125
0
VERTEX
8
0
10
0.090417
20
-0.714583
0
VERTEX
8
0
10
0.090417
20
-0.716042
0
VERTEX
8
0
10
0.088958
20
-0.717500
0
VERTEX
8
0
10
0.087500
20
-0.718958
0
VERTEX
8
0
10
0.087500
20
-0.720417
0
VERTEX
8
0
10
0.086042
20
-0.721875
0
VERTEX
8
0
10
0.084583
20
-0.723333
0
VERTEX
8
0
10
0.083125
20
-0.724792
0
VERTEX
8
0
10
0.081667
20
-0.726250
0
VERTEX
8
0
10
0.080208
20
-0.727708
0
VERTEX
8
0
10
0.078750
20
-0.729167
0
VERTEX
8
0
10
0.077292
20
-0.730625
0
VERTEX
8
0
10
0.075833
20
-0.730625
0
VERTEX
8
0
10
0.074375
20
-0.732083
0
VERTEX
8
0
10
0.072917
20
-0.732083
0
VERTEX
8
0
10
0.071458
20
-0.733542
0
VERTEX
8
0
10
0.070000
20
-0.735000
0
VERTEX
8
0
10
0.068542
20
-0.735000
0
VERTEX
8
0
10
0.067083
20
-0.736458
0
VERTEX
8
0
10
0.065625
20
-0.736458
0
VERTEX
8
0
10
0.064167
20
-0.736458
0
VERTEX
8
0
10
0.062708
20
-0.737917
0
VERTEX
8
0
10
0.061250
20
-0.737917
0
VERTEX
8
0
10
0.059792
20
-0.737917
0
VERTEX
8
0
10
0.058333
20
-0.739375
0
VERTEX
8
0
10
0.056875
20
-0.739375
0
VERTEX
8
0
10
0.055417
20
-0.739375
0
VERTEX
8
0
10
0.053958
20
-0.739375
0
VERTEX
8
0
10
0.052500
20
-0.740833
0
VERTEX
8
0
10
0.051042
20
-0.740833
0
VERTEX
8
0
10
0.049583
20
-0.740833
0
VERTEX
8
0
10
0.048125
20
-0.740833
0
VERTEX
8
0
10
0.046667
20
-0.740833
0
VERTEX
8
0
10
0.045208
20
-0.740833
0
VERTEX
8
0
10
0.043750
20
-0.740833
0
VERTEX
8
0
10
0.042292
20
-0.740833
0
VERTEX
8
0
10
0.040833
20
-0.740833
0
VERTEX
8
0
10
0.039375
20
-0.740833
0
VERTEX
8
0
10
0.037917
20
-0.740833
0
VERTEX
8
0
10
0.036458
20
-0.740833
0
VERTEX
8
0
10
0.035000
20
-0.740833
0
VERTEX
8
0
10
0.033542
20
-0.740833
0
VERTEX
8
0
10
0.032083
20
-0.739375
0
VERTEX
8
0
10
0.030625
20
-0.739375
0
VERTEX
8
0
10
0.029167
20
-0.739375
0
VERTEX
8
0
10
0.027708
20
-0.739375
0
VERTEX
8
0
10
0.026250
20
-0.739375
0
VERTEX
8
0
10
0.024792
20
-0.737917
0
VERTEX
8
0
10
0.023333
20
-0.737917
0
VERTEX
8
0
10
0.021875
20
-0.737917
0
VERTEX
8
0
10
0.020417
20
-0.736458
0
VERTEX
8
0
10
0.018958
20
-0.736458
0
VERTEX
8
0
10
0.017500
20
-0.736458
0
VERTEX
8
0
10
0.016042
20
-0.735000
0
VERTEX
8
0
10
0.014583
20
-0.735000
0
VERTEX
8
0
10
0.013125
20
-0.733542
0
VERTEX
8
0
10
0.011667
20
-0.733542
0
VERTEX
8
0
10
0.010208
20
-0.732083
0
VERTEX
8
0
10
0.008750
20
-0.732083
0
VERTEX
8
0
10
0.007292
20
-0.730625
0
VERTEX
8
0
10
0.005833
20
-0.730625
0
VERTEX
8
0
10
0.004375
20
-0.729167
0
VERTEX
8
0
10
0.002917
20
-0.727708
0
VERTEX
8
0
10
0.001458
20
-0.727708
0
VERTEX
8
0
10
0.000000
20
-0.726250
0
VERTEX
8
0
10
-0.001458
20
-0.724792
0
VERTEX
8
0
10
-0.002917
20
-0.724792
0
VERTEX
8
0
10
-0.004375
20
-0.723333
0
VERTEX
8
0
10
-0.005833
20
-0.721875
0
VERTEX
8
0
10
-0.007292
20
-0.720417
0
VERTEX
8
0
10
-0.008750
20
-0.718958
0
VERTEX
8
0
10
-0.010208
20
-0.717500
0
VERTEX
8
0
10
-0.011667
20
-0.716042
0
VERTEX
8
0
10
-0.013125
20
-0.716042
0
VERTEX
8
0
10
-0.014583
20
-0.714583
0
VERTEX
8
0
10
-0.016042
20
-0.713125
0
VERTEX
8
0
10
-0.016042
20
-0.711667
0
VERTEX
8
0
10
-0.017500
20
-0.710208
0
VERTEX
8
0
10
-0.018958
20
-0.708750
0
VERTEX
8
0
10
-0.020417
20
-0.707292
0
VERTEX
8
0
10
-0.021875
20
-0.705833
0
VERTEX
8
0
10
-0.023333
20
-0.704375
0
VERTEX
8
0
10
-0.024792
20
-0.702917
0
VERTEX
8
0
10
-0.024792
20
-0.701458
0
VERTEX
8
0
10
-0.026250
20
-0.700000
0
VERTEX
8
0
10
-0.027708
20
-0.698542
0
VERTEX
8
0
10
-0.029167
20
-0.697083
0
VERTEX
8
0
10
-0.029167
20
-0.695625
0
VERTEX
8
0
10
-0.030625
20
-0.694167
0
VERTEX
8
0
10
-0.032083
20
-0.692708
0
VERTEX
8
0
10
-0.032083
20
-0.691250
0
VERTEX
8
0
10
-0.033542
20
-0.689792
0
VERTEX
8
0
10
-0.035000
20
-0.688333
0
VERTEX
8
0
10
-0.035000
20
-0.686875
0
VERTEX
8
0
10
-0.036458
20
-0.685417
0
VERTEX
8
0
10
-0.036458
20
-0.683958
0
VERTEX
8
0
10
-0.037917
20
-0.682500
0
VERTEX
8
0
10
-0.039375
20
-0.681042
0
VERTEX
8
0
10
-0.039375
20
-0.679583
0
VERTEX
8
0
10
-0.040833
20
-0.678125
0
VERTEX
8
0
10
-0.040833
20
-0.676667
0
VERTEX
8
0
10
-0.042292
20
-0.675208
0
VERTEX
8
0
10
-0.043750
20
-0.673750
0
VERTEX
8
0
10
-0.043750
20
-0.672292
0
VERTEX
8
0
10
-0.045208
20
-0.670833
0
VERTEX
8
0
10
-0.045208
20
-0.669375
0
VERTEX
8
0
10
-0.046667
20
-0.667917
0
VERTEX
8
0
10
-0.046667
20
-0.666458
0
VERTEX
8
0
10
-0.048125
20
-0.665000
0
VERTEX
8
0
10
-0.048125
20
-0.663542
0
VERTEX
8
0
10
-0.049583
20
-0.662083
0
VERTEX
8
0
10
-0.049583
20
-0.660625
0
VERTEX
8
0
10
-0.051042
20
-0.659167
0
VERTEX
8
0
10
-0.051042
20
-0.657708
0
VERTEX
8
0
10
-0.052500
20
-0.656250
0
VERTEX
8
0
10
-0.052500
20
-0.654792
0
VERTEX
8
0
10
-0.053958
20
-0.653333
0
VERTEX
8
0
10
-0.053958
20
-0.651875
0
VERTEX
8
0
10
-0.055417
20
-0.650417
0
VERTEX
8
0
10
-0.055417
20
-0.648958
0
VERTEX
8
0
10
-0.056875
20
-0.647500
0
VERTEX
8
0
10
-0.056875
20
-0.646042
0
VERTEX
8
0
10
-0.058333
20
-0.644583
0
VERTEX
8
0
10
-0.058333
20
-0.643125
0
VERTEX
8
0
10
-0.059792
20
-0.641667
0
VERTEX
8
0
10
-0.061250
20
-0.640208
0
VERTEX
8
0
10
-0.061250
20
-0.638750
0
VERTEX
8
0
10
-0.062708
20
-0.637292
0
VERTEX
8
0
10
-0.062708
20
-0.635833
0
VERTEX
8
0
10
-0.064167
20
-0.634375
0
VERTEX
8
0
10
-0.064167
20
-0.632917
0
VERTEX
8
0
10
-0.065625
20
-0.631458
0
VERTEX
8
0
10
-0.065625
20
-0.630000
0
VERTEX
8
0
10
-0.067083
20
-0.628542
0
VERTEX
8
0
10
-0.067083
20
-0.627083
0
VERTEX
8
0
10
-0.068542
20
-0.625625
0
VERTEX
8
0
10
-0.070000
20
-0.624167
0
VERTEX
8
0
10
-0.070000
20
-0.622708
0
VERTEX
8
0
10
-0.071458
20
-0.621250
0
VERTEX
8
0
10
-0.071458
20
-0.619792
0
VERTEX
8
0
10
-0.072917
20
-0.618333
0
VERTEX
8
0
10
-0.074375
20
-0.616875
0
VERTEX
8
0
10
-0.074375
20
-0.615417
0
VERTEX
8
0
10
-0.075833
20
-0.613958
0
VERTEX
8
0
10
-0.075833
20
-0.612500
0
VERTEX
8
0
10
-0.077292
20
-0.611042
0
VERTEX
8
0
10
-0.078750
20
-0.609583
0
VERTEX
8
0
10
-0.080208
20
-0.608125
0
VERTEX
8
0
10
-0.080208
20
-0.606667
0
VERTEX
8
0
10
-0.081667
20
-0.605208
0
VERTEX
8
0
10
-0.083125
20
-0.603750
0
VERTEX
8
0
10
-0.084583
20
-0.602292
0
VERTEX
8
0
10
-0.084583
20
-0.600833
0
VERTEX
8
0
10
-0.086042
20
-0.599375
0
VERTEX
8
0
10
-0.087500
20
-0.597917
0
VERTEX
8
0
10
-0.088958
20
-0.596458
0
VERTEX
8
0
10
-0.090417
20
-0.595000
0
VERTEX
8
0
10
-0.091875
20
-0.593542
0
VERTEX
8
0
10
-0.093333
20
-0.592083
0
VERTEX
8
0
10
-0.094792
20
-0.590625
0
VERTEX
8
0
10
-0.096250
20
-0.589167
0
VERTEX
8
0
10
-0.097708
20
-0.587708
0
VERTEX
8
0
10
-0.099167
20
-0.586250
0
VERTEX
8
0
10
-0.100625
20
-0.584792
0
VERTEX
8
0
10
-0.102083
20
-0.583333
0
VERTEX
8
0
10
-0.103542
20
-0.583333
0
VERTEX
8
0
10
-0.105000
20
-0.581875
0
VERTEX
8
0
10
-0.106458
20
-0.580417
0
VERTEX
8
0
10
-0.107917
20
-0.578958
0
VERTEX
8
0
10
-0.109375
20
-0.578958
0
VERTEX
8
0
10
-0.110833
20
-0.577500
0
VERTEX
8
0
10
-0.112292
20
-0.576042
0
VERTEX
8
0
10
-0.113750
20
-0.576042
0
VERTEX
8
0
10
-0.115208
20
-0.574583
0
VERTEX
8
0
10
-0.116667
20
-0.573125
0
VERTEX
8
0
10
-0.118125
20
-0.573125
0
VERTEX
8
0
10
-0.119583
20
-0.571667
0
VERTEX
8
0
10
-0.121042
20
-0.570208
0
VERTEX
8
0
10
-0.122500
20
-0.570208
0
VERTEX
8
0
10
-0.123958
20
-0.568750
0
VERTEX
8
0
10
-0.125417
20
-0.568750
0
VERTEX
8
0
10
-0.126875
20
-0.568750
0
VERTEX
8
0
10
-0.128333
20
-0.567292
0
VERTEX
8
0
10
-0.129792
20
-0.567292
0
VERTEX
8
0
10
-0.131250
20
-0.565833
0
VERTEX
8
0
10
-0.132708
20
-0.565833
0
VERTEX
8
0
10
-0.134167
20
-0.565833
0
VERTEX
8
0
10
-0.135625
20
-0.564375
0
VERTEX
8
0
10
-0.137083
20
-0.564375
0
VERTEX
8
0
10
-0.138542
20
-0.564375
0
VERTEX
8
0
10
-0.140000
20
-0.562917
0
VERTEX
8
0
10
-0.141458
20
-0.562917
0
VERTEX
8
0
10
-0.142917
20
-0.562917
0
VERTEX
8
0
10
-0.144375
20
-0.562917
0
VERTEX
8
0
10
-0.145833
20
-0.562917
0
VERTEX
8
0
10
-0.147292
20
-0.561458
0
VERTEX
8
0
10
-0.148750
20
-0.561458
0
VERTEX
8
0
10
-0.150208
20
-0.561458
0
VERTEX
8
0
10
-0.151667
20
-0.561458
0
VERTEX
8
0
10
-0.153125
20
-0.561458
0
VERTEX
8
0
10
-0.154583
20
-0.561458
0
VERTEX
8
0
10
-0.156042
20
-0.561458
0
VERTEX
8
0
10
-0.157500
20
-0.561458
0
VERTEX
8
0
10
-0.158958
20
-0.561458
0
VERTEX
8
0
10
-0.160417
20
-0.561458
0
VERTEX
8
0
10
-0.161875
20
-0.561458
0
VERTEX
8
0
10
-0.163333
20
-0.561458
0
VERTEX
8
0
10
-0.164792
20
-0.562917
0
VERTEX
8
0
10
-0.166250
20
-0.562917
0
VERTEX
8
0
10
-0.167708
20
-0.562917
0
VERTEX
8
0
10
-0.169167
20
-0.562917
0
VERTEX
8
0
10
-0.170625
20
-0.562917
0
VERTEX
8
0
10
-0.172083
20
-0.564375
0
VERTEX
8
0
10
-0.173542
20
-0.564375
0
VERTEX
8
0
10
-0.175000
20
-0.564375
0
VERTEX
8
0
10
-0.176458
20
-0.565833
0
VERTEX
8
0
10
-0.177917
20
-0.565833
0
VERTEX
8
0
10
-0.179375
20
-0.567292
0
VERTEX
8
0
10
-0.180833
20
-0.567292
0
VERTEX
8
0
10
-0.182292
20
-0.568750
0
VERTEX
8
0
10
-0.183750
20
-0.568750
0
VERTEX
8
0
10
-0.185208
20
-0.570208
0
VERTEX
8
0
10
-0.186667
20
-0.570208
0
VERTEX
8
0
10
-0.188125
20
-0.571667
0
VERTEX
8
0
10
-0.189583
20
-0.573125
0
VERTEX
8
0
10
-0.191042
20
-0.573125
0
VERTEX
8
0
10
-0.192500
20
-0.574583
0
VERTEX
8
0
10
-0.193958
20
-0.576042
0
VERTEX
8
0
10
-0.195417
20
-0.576042
0
VERTEX
8
0
10
-0.196875
20
-0.577500
0
VERTEX
8
0
10
-0.198333
20
-0.577500
0
VERTEX
8
0
10
-0.199792
20
-0.578958
0
VERTEX
8
0
10
-0.201250
20
-0.578958
0
VERTEX
8
0
10
-0.202708
20
-0.580417
0
VERTEX
8
0
10
-0.204167
20
-0.580417
0
VERTEX
8
0
10
-0.205625
20
-0.581875
0
VERTEX
8
0
10
-0.207083
20
-0.581875
0
VERTEX
8
0
10
-0.208542
20
-0.581875
0
VERTEX
8
0
10
-0.210000
20
-0.581875
0
VERTEX
8
0
10
-0.211458
20
-0.583333
0
VERTEX
8
0
10
-0.212917
20
-0.583333
0
VERTEX
8
0
10
-0.214375
20
-0.583333
0
VERTEX
8
0
10
-0.215833
20
-0.583333
0
VERTEX
8
0
10
-0.217292
20
-0.584792
0
VERTEX
8
0
10
-0.218750
20
-0.584792
0
VERTEX
8
0
10
-0.220208
20
-0.584792
0
VERTEX
8
0
10
-0.221667
20
-0.584792
0
VERTEX
8
0
10
-0.223125
20
-0.584792
0
VERTEX
8
0
10
-0.224583
20
-0.584792
0
VERTEX
8
0
10
-0.226042
20
-0.584792
0
VERTEX
8
0
10
-0.227500
20
-0.583333
0
VERTEX
8
0
10
-0.228958
20
-0.583333
0
VERTEX
8
0
10
-0.230417
20
-0.583333
0
VERTEX
8
0
10
-0.231875
20
-0.583333
0
VERTEX
8
0
10
-0.233333
20
-0.583333
0
VERTEX
8
0
10
-0.234792
20
-0.581875
0
VERTEX
8
0
10
-0.236250
20
-0.581875
0
VERTEX
8
0
10
-0.237708
20
-0.581875
0
VERTEX
8
0
10
-0.239167
20
-0.581875
0
VERTEX
8
0
10
-0.240625
20
-0.580417
0
VERTEX
8
0
10
-0.242083
20
-0.580417
0
VERTEX
8
0
10
-0.243542
20
-0.578958
0
VERTEX
8
0
10
-0.245000
20
-0.578958
0
VERTEX
8
0
10
-0.246458
20
-0.578958
0
VERTEX
8
0
10
-0.247917
20
-0.577500
0
VERTEX
8
0
10
-0.249375
20
-0.576042
0
VERTEX
8
0
10
-0.250833
20
-0.576042
0
VERTEX
8
0
10
-0.252292
20
-0.574583
0
VERTEX
8
0
10
-0.253750
20
-0.574583
0
VERTEX
8
0
10
-0.255208
20
-0.573125
0
VERTEX
8
0
10
-0.256667
20
-0.573125
0
VERTEX
8
0
10
-0.258125
20
-0.571667
0
VERTEX
8
0
10
-0.259583
20
-0.570208
0
VERTEX
8
0
10
-0.261042
20
-0.568750
0
VERTEX
8
0
10
-0.262500
20
-0.568750
0
VERTEX
8
0
10
-0.263958
20
-0.567292
0
VERTEX
8
0
10
-0.265417
20
-0.565833
0
VERTEX
8
0
10
-0.266875
20
-0.564375
0
VERTEX
8
0
10
-0.268333
20
-0.564375
0
VERTEX
8
0
10
-0.269792
20
-0.562917
0
VERTEX
8
0
10
-0.271250
20
-0.561458
0
VERTEX
8
0
10
-0.272708
20
-0.560000
0
VERTEX
8
0
10
-0.274167
20
-0.558542
0
VERTEX
8
0
10
-0.275625
20
-0.557083
0
VERTEX
8
0
10
-0.277083
20
-0.555625
0
VERTEX
8
0
10
-0.278542
20
-0.554167
0
VERTEX
8
0
10
-0.280000
20
-0.552708
0
VERTEX
8
0
10
-0.281458
20
-0.551250
0
VERTEX
8
0
10
-0.282917
20
-0.549792
0
VERTEX
8
0
10
-0.284375
20
-0.548333
0
VERTEX
8
0
10
-0.285833
20
-0.546875
0
VERTEX
8
0
10
-0.287292
20
-0.545417
0
VERTEX
8
0
10
-0.288750
20
-0.543958
0
VERTEX
8
0
10
-0.290208
20
-0.542500
0
VERTEX
8
0
10
-0.291667
20
-0.541042
0
VERTEX
8
0
10
-0.293125
20
-0.539583
0
VERTEX
8
0
10
-0.294583
20
-0.538125
0
VERTEX
8
0
10
-0.296042
20
-0.536667
0
VERTEX
8
0
10
-0.297500
20
-0.535208
0
VERTEX
8
0
10
-0.298958
20
-0.533750
0
VERTEX
8
0
10
-0.300417
20
-0.532292
0
VERTEX
8
0
10
-0.301875
20
-0.530833
0
VERTEX
8
0
10
-0.303333
20
-0.529375
0
VERTEX
8
0
10
-0.304792
20
-0.527917
0
VERTEX
8
0
10
-0.306250
20
-0.526458
0
VERTEX
8
0
10
-0.307708
20
-0.525000
0
VERTEX
8
0
10
-0.309167
20
-0.523542
0
VERTEX
8
0
10
-0.310625
20
-0.522083
0
VERTEX
8
0
10
-0.312083
20
-0.520625
0
VERTEX
8
0
10
-0.313542
20
-0.519167
0
VERTEX
8
0
10
-0.315000
20
-0.517708
0
VERTEX
8
0
10
-0.316458
20
-0.516250
0
VERTEX
8
0
10
-0.317917
20
-0.514792
0
VERTEX
8
0
10
-0.319375
20
-0.513333
0
VERTEX
8
0
10
-0.320833
20
-0.511875
0
VERTEX
8
0
10
-0.322292
20
-0.510417
0
VERTEX
8
0
10
-0.323750
20
-0.508958
0
VERTEX
8
0
10
-0.325208
20
-0.507500
0
VERTEX
8
0
10
-0.326667
20
-0.506042
0
VERTEX
8
0
10
-0.328125
20
-0.504583
0
VERTEX
8
0
10
-0.329583
20
-0.504583
0
VERTEX
8
0
10
-0.331042
20
-0.503125
0
VERTEX
8
0
10
-0.332500
20
-0.501667
0
VERTEX
8
0
10
-0.333958
20
-0.500208
0
VERTEX
8
0
10
-0.335417
20
-0.498750
0
VERTEX
8
0
10
-0.336875
20
-0.498750
0
VERTEX
8
0
10
-0.338333
20
-0.497292
0
VERTEX
8
0
10
-0.339792
20
-0.495833
0
VERTEX
8
0
10
-0.341250
20
-0.494375
0
VERTEX
8
0
10
-0.342708
20
-0.494375
0
VERTEX
8
0
10
-0.344167
20
-0.492917
0
VERTEX
8
0
10
-0.345625
20
-0.491458
0
VERTEX
8
0
10
-0.347083
20
-0.490000
0
VERTEX
8
0
10
-0.348542
20
-0.490000
0
VERTEX
8
0
10
-0.350000
20
-0.488542
0
VERTEX
8
0
10
-0.351458
20
-0.487083
0
VERTEX
8
0
10
-0.352917
20
-0.487083
0
VERTEX
8
0
10
-0.354375
20
-0.485625
0
VERTEX
8
0
10
-0.355833
20
-0.484167
0
VERTEX
8
0
10
-0.357292
20
-0.484167
0
VERTEX
8
0
10
-0.358750
20
-0.482708
0
VERTEX
8
0
10
-0.360208
20
-0.482708
0
VERTEX
8
0
10
-0.361667
20
-0.481250
0
VERTEX
8
0
10
-0.363125
20
-0.479792
0
VERTEX
8
0
10
-0.364583
20
-0.479792
0
VERTEX
8
0
10
-0.366042
20
-0.478333
0
VERTEX
8
0
10
-0.367500
20
-0.478333
0
VERTEX
8
0
10
-0.368958
20
-0.476875
0
VERTEX
8
0
10
-0.370417
20
-0.475417
0
VERTEX
8
0
10
-0.371875
20
-0.475417
0
VERTEX
8
0
10
-0.373333
20
-0.473958
0
VERTEX
8
0
10
-0.374792
20
-0.473958
0
VERTEX
8
0
10
-0.376250
20
-0.472500
0
VERTEX
8
0
10
-0.377708
20
-0.472500
0
VERTEX
8
0
10
-0.379167
20
-0.471042
0
VERTEX
8
0
10
-0.380625
20
-0.471042
0
VERTEX
8
0
10
-0.382083
20
-0.469583
0
VERTEX
8
0
10
-0.383542
20
-0.469583
0
VERTEX
8
0
10
-0.385000
20
-0.468125
0
VERTEX
8
0
10
-0.386458
20
-0.468125
0
VERTEX
8
0
10
-0.387917
20
-0.466667
0
VERTEX
8
0
10
-0.389375
20
-0.466667
0
VERTEX
8
0
10
-0.390833
20
-0.465208
0
VERTEX
8
0
10
-0.392292
20
-0.465208
0
VERTEX
8
0
10
-0.393750
20
-0.465208
0
VERTEX
8
0
10
-0.395208
20
-0.463750
0
VERTEX
8
0
10
-0.396667
20
-0.463750
0
VERTEX
8
0
10
-0.398125
20
-0.462292
0
VERTEX
8
0
10
-0.399583
20
-0.462292
0
VERTEX
8
0
10
-0.401042
20
-0.462292
0
VERTEX
8
0
10
-0.402500
20
-0.460833
0
VERTEX
8
0
10
-0.403958
20
-0.460833
0
VERTEX
8
0
10
-0.405417
20
-0.459375
0
VERTEX
8
0
10
-0.406875
20
-0.459375
0
VERTEX
8
0
10
-0.408333
20
-0.459375
0
VERTEX
8
0
10
-0.409792
20
-0.457917
0
VERTEX
8
0
10
-0.411250
20
-0.457917
0
VERTEX
8
0
10
-0.412708
20
-0.457917
0
VERTEX
8
0
10
-0.414167
20
-0.456458
0
VERTEX
8
0
10
-0.415625
20
-0.456458
0
VERTEX
8
0
10
-0.417083
20
-0.456458
0
VERTEX
8
0
10
-0.418542
20
-0.455000
0
VERTEX
8
0
10
-0.420000
20
-0.455000
0
VERTEX
8
0
10
-0.421458
20
-0.455000
0
VERTEX
8
0
10
-0.422917
20
-0.453542
0
VERTEX
8
0
10
-0.424375
20
-0.453542
0
VERTEX
8
0
10
-0.425833
20
-0.453542
0
VERTEX
8
0
10
-0.427292
20
-0.452083
0
VERTEX
8
0
10
-0.428750
20
-0.452083
0
VERTEX
8
0
10
-0.430208
20
-0.452083
0
VERTEX
8
0
10
-0.431667
20
-0.450625
0
VERTEX
8
0
10
-0.433125
20
-0.450625
0
VERTEX
8
0
10
-0.434583
20
-0.450625
0
VERTEX
8
0
10
-0.436042
20
-0.450625
0
VERTEX
8
0
10
-0.437500
20
-0.449167
0
VERTEX
8
0
10
-0.438958
20
-0.449167
0
VERTEX
8
0
10
-0.440417
20
-0.449167
0
VERTEX
8
0
10
-0.441875
20
-0.449167
0
VERTEX
8
0
10
-0.443333
20
-0.449167
0
VERTEX
8
0
10
-0.444792
20
-0.447708
0
VERTEX
8
0
10
-0.446250
20
-0.447708
0
VERTEX
8
0
10
-0.447708
20
-0.447708
0
VERTEX
8
0
10
-0.449167
20
-0.447708
0
VERTEX
8
0
10
-0.450625
20
-0.446250
0
VERTEX
8
0
10
-0.452083
20
-0.446250
0
VERTEX
8
0
10
-0.453542
20
-0.446250
0
VERTEX
8
0
10
-0.455000
20
-0.446250
0
VERTEX
8
0
10
-0.456458
20
-0.446250
0
VERTEX
8
0
10
-0.457917
20
-0.446250
0
VERTEX
8
0
10
-0.459375
20
-0.444792
0
VERTEX
8
0
10
-0.460833
20
-0.444792
0
VERTEX
8
0
10
-0.462292
20
-0.444792
0
VERTEX
8
0
10
-0.463750
20
-0.444792
0
VERTEX
8
0
10
-0.465208
20
-0.444792
0
VERTEX
8
0
10
-0.466667
20
-0.444792
0
VERTEX
8
0
10
-0.468125
20
-0.444792
0
VERTEX
8
0
10
-0.469583
20
-0.443333
0
VERTEX
8
0
10
-0.471042
20
-0.443333
0
VERTEX
8
0
10
-0.472500
20
-0.443333
0
VERTEX
8
0
10
-0.473958
20
-0.443333
0
VERTEX
8
0
10
-0.475417
20
-0.443333
0
VERTEX
8
0
10
-0.476875
20
-0.443333
0
VERTEX
8
0
10
-0.478333
20
-0.443333
0
VERTEX
8
0
10
-0.479792
20
-0.443333
0
VERTEX
8
0
10
-0.481250
20
-0.443333
0
VERTEX
8
0
10
-0.482708
20
-0.443333
0
VERTEX
8
0
10
-0.484167
20
-0.441875
0
VERTEX
8
0
10
-0.485625
20
-0.441875
0
VERTEX
8
0
10
-0.487083
20
-0.441875
0
VERTEX
8
0
10
-0.488542
20
-0.441875
0
VERTEX
8
0
10
-0.490000
20
-0.441875
0
VERTEX
8
0
10
-0.491458
20
-0.441875
0
VERTEX
8
0
10
-0.492917
20
-0.441875
0
VERTEX
8
0
10
-0.494375
20
-0.441875
0
VERTEX
8
0
10
-0.495833
20
-0.441875
0
VERTEX
8
0
10
-0.497292
20
-0.441875
0
VERTEX
8
0
10
-0.498750
20
-0.441875
0
VERTEX
8
0
10
-0.500208
20
-0.441875
0
VERTEX
8
0
10
-0.501667
20
-0.441875
0
VERTEX
8
0
10
-0.503125
20
-0.441875
0
VERTEX
8
0
10
-0.504583
20
-0.441875
0
VERTEX
8
0
10
-0.506042
20
-0.441875
0
VERTEX
8
0
10
-0.507500
20
-0.441875
0
VERTEX
8
0
10
-0.508958
20
-0.441875
0
VERTEX
8
0
10
-0.510417
20
-0.441875
0
VERTEX
8
0
10
-0.511875
20
-0.441875
0
VERTEX
8
0
10
-0.513333
20
-0.441875
0
VERTEX
8
0
10
-0.514792
20
-0.441875
0
VERTEX
8
0
10
-0.516250
20
-0.441875
0
VERTEX
8
0
10
-0.517708
20
-0.441875
0
VERTEX
8
0
10
-0.519167
20
-0.443333
0
VERTEX
8
0
10
-0.520625
20
-0.443333
0
VERTEX
8
0
10
-0.522083
20
-0.443333
0
VERTEX
8
0
10
-0.523542
20
-0.443333
0
VERTEX
8
0
10
-0.525000
20
-0.443333
0
VERTEX
8
0
10
-0.526458
20
-0.443333
0
VERTEX
8
0
10
-0.527917
20
-0.443333
0
VERTEX
8
0
10
-0.529375
20
-0.443333
0
VERTEX
8
0
10
-0.530833
20
-0.443333
0
VERTEX
8
0
10
-0.532292
20
-0.443333
0
VERTEX
8
0
10
-0.533750
20
-0.443333
0
VERTEX
8
0
10
-0.535208
20
-0.443333
0
VERTEX
8
0
10
-0.536667
20
-0.443333
0
VERTEX
8
0
10
-0.538125
20
-0.443333
0
VERTEX
8
0
10
-0.539583
20
-0.444792
0
VERTEX
8
0
10
-0.541042
20
-0.444792
0
VERTEX
8
0
10
-0.542500
20
-0.444792
0
VERTEX
8
0
10
-0.543958
20
-0.444792
0
VERTEX
8
0
10
-0.545417
20
-0.444792
0
VERTEX
8
0
10
-0.546875
20
-0.444792
0
VERTEX
8
0
10
-0.548333
20
-0.444792
0
VERTEX
8
0
10
-0.549792
20
-0.444792
0
VERTEX
8
0
10
-0.551250
20
-0.444792
0
VERTEX
8
0
10
-0.552708
20
-0.444792
0
VERTEX
8
0
10
-0.554167
20
-0.444792
0
VERTEX
8
0
10
-0.555625
20
-0.444792
0
VERTEX
8
0
10
-0.557083
20
-0.444792
0
VERTEX
8
0
10
-0.558542
20
-0.444792
0
VERTEX
8
0
10
-0.560000
20
-0.444792
0
VERTEX
8
0
10
-0.561458
20
-0.444792
0
VERTEX
8
0
10
-0.562917
20
-0.444792
0
VERTEX
8
0
10
-0.564375
20
-0.444792
0
VERTEX
8
0
10
-0.565833
20
-0.444792
0
VERTEX
8
0
10
-0.567292
20
-0.444792
0
VERTEX
8
0
10
-0.568750
20
-0.444792
0
VERTEX
8
0
10
-0.570208
20
-0.444792
0
VERTEX
8
0
10
-0.571667
20
-0.444792
0
VERTEX
8
0
10
-0.573125
20
-0.444792
0
VERTEX
8
0
10
-0.574583
20
-0.443333
0
VERTEX
8
0
10
-0.576042
20
-0.443333
0
VERTEX
8
0
10
-0.577500
20
-0.443333
0
VERTEX
8
0
10
-0.578958
20
-0.443333
0
VERTEX
8
0
10
-0.580417
20
-0.443333
0
VERTEX
8
0
10
-0.581875
20
-0.443333
0
VERTEX
8
0
10
-0.583333
20
-0.443333
0
VERTEX
8
0
10
-0.584792
20
-0.441875
0
VERTEX
8
0
10
-0.586250
20
-0.441875
0
VERTEX
8
0
10
-0.587708
20
-0.441875
0
VERTEX
8
0
10
-0.589167
20
-0.441875
0
VERTEX
8
0
10
-0.590625
20
-0.441875
0
VERTEX
8
0
10
-0.592083
20
-0.441875
0
VERTEX
8
0
10
-0.593542
20
-0.440417
0
VERTEX
8
0
10
-0.595000
20
-0.440417
0
VERTEX
8
0
10
-0.596458
20
-0.440417
0
VERTEX
8
0
10
-0.597917
20
-0.440417
0
VERTEX
8
0
10
-0.599375
20
-0.438958
0
VERTEX
8
0
10
-0.600833
20
-0.438958
0
VERTEX
8
0
10
-0.602292
20
-0.438958
0
VERTEX
8
0
10
-0.603750
20
-0.438958
0
VERTEX
8
0
10
-0.605208
20
-0.437500
0
VERTEX
8
0
10
-0.606667
20
-0.437500
0
VERTEX
8
0
10
-0.608125
20
-0.437500
0
VERTEX
8
0
10
-0.609583
20
-0.436042
0
VERTEX
8
0
10
-0.611042
20
-0.436042
0
VERTEX
8
0
10
-0.612500
20
-0.436042
0
VERTEX
8
0
10
-0.613958
20
-0.434583
0
VERTEX
8
0
10
-0.615417
20
-0.434583
0
VERTEX
8
0
10
-0.616875
20
-0.434583
0
VERTEX
8
0
10
-0.618333
20
-0.434583
0
VERTEX
8
0
10
-0.619792
20
-0.433125
0
VERTEX
8
0
10
-0.621250
20
-0.433125
0
VERTEX
8
0
10
-0.622708
20
-0.433125
0
VERTEX
8
0
10
-0.624167
20
-0.431667
0
VERTEX
8
0
10
-0.625625
20
-0.431667
0
VERTEX
8
0
10
-0.627083
20
-0.431667
0
VERTEX
8
0
10
-0.628542
20
-0.430208
0
VERTEX
8
0
10
-0.630000
20
-0.430208
0
VERTEX
8
0
10
-0.631458
20
-0.428750
0
VERTEX
8
0
10
-0.632917
20
-0.428750
0
VERTEX
8
0
10
-0.634375
20
-0.428750
0
VERTEX
8
0
10
-0.635833
20
-0.427292
0
VERTEX
8
0
10
-0.637292
20
-0.427292
0
VERTEX
8
0
10
-0.638750
20
-0.427292
0
VERTEX
8
0
10
-0.640208
20
-0.425833
0
VERTEX
8
0
10
-0.641667
20
-0.425833
0
VERTEX
8
0
10
-0.643125
20
-0.425833
0
VERTEX
8
0
10
-0.644583
20
-0.424375
0
VERTEX
8
0
10
-0.646042
20
-0.424375
0
VERTEX
8
0
10
-0.647500
20
-0.424375
0
VERTEX
8
0
10
-0.648958
20
-0.422917
0
VERTEX
8
0
10
-0.650417
20
-0.422917
0
VERTEX
8
0
10
-0.651875
20
-0.422917
0
VERTEX
8
0
10
-0.653333
20
-0.421458
0
VERTEX
8
0
10
-0.654792
20
-0.421458
0
VERTEX
8
0
10
-0.656250
20
-0.421458
0
VERTEX
8
0
10
-0.657708
20
-0.420000
0
VERTEX
8
0
10
-0.659167
20
-0.420000
0
VERTEX
8
0
10
-0.660625
20
-0.420000
0
VERTEX
8
0
10
-0.662083
20
-0.418542
0
VERTEX
8
0
10
-0.663542
20
-0.418542
0
VERTEX
8
0
10
-0.665000
20
-0.418542
0
VERTEX
8
0
10
-0.666458
20
-0.417083
0
VERTEX
8
0
10
-0.667917
20
-0.417083
0
VERTEX
8
0
10
-0.669375
20
-0.415625
0
VERTEX
8
0
10
-0.670833
20
-0.415625
0
VERTEX
8
0
10
-0.672292
20
-0.415625
0
VERTEX
8
0
10
-0.673750
20
-0.414167
0
VERTEX
8
0
10
-0.675208
20
-0.414167
0
VERTEX
8
0
10
-0.676667
20
-0.414167
0
VERTEX
8
0
10
-0.678125
20
-0.412708
0
VERTEX
8
0
10
-0.679583
20
-0.412708
0
VERTEX
8
0
10
-0.681042
20
-0.412708
0
VERTEX
8
0
10
-0.682500
20
-0.411250
0
VERTEX
8
0
10
-0.683958
20
-0.411250
0
VERTEX
8
0
10
-0.685417
20
-0.411250
0
VERTEX
8
0
10
-0.686875
20
-0.409792
0
VERTEX
8
0
10
-0.688333
20
-0.409792
0
VERTEX
8
0
10
-0.689792
20
-0.409792
0
VERTEX
8
0
10
-0.691250
20
-0.408333
0
VERTEX
8
0
10
-0.692708
20
-0.408333
0
VERTEX
8
0
10
-0.694167
20
-0.408333
0
VERTEX
8
0
10
-0.695625
20
-0.406875
0
VERTEX
8
0
10
-0.697083
20
-0.406875
0
VERTEX
8
0
10
-0.698542
20
-0.405417
0
VERTEX
8
0
10
-0.700000
20
-0.405417
0
VERTEX
8
0
10
-0.701458
20
-0.405417
0
VERTEX
8
0
10
-0.702917
20
-0.403958
0
VERTEX
8
0
10
-0.704375
20
-0.403958
0
VERTEX
8
0
10
-0.705833
20
-0.403958
0
VERTEX
8
0
10
-0.707292
20
-0.402500
0
VERTEX
8
0
10
-0.708750
20
-0.402500
0
VERTEX
8
0
10
-0.710208
20
-0.402500
0
VERTEX
8
0
10
-0.711667
20
-0.401042
0
VERTEX
8
0
10
-0.713125
20
-0.401042
0
VERTEX
8
0
10
-0.714583
20
-0.401042
0
VERTEX
8
0
10
-0.716042
20
-0.399583
0
VERTEX
8
0
10
-0.717500
20
-0.399583
0
VERTEX
8
0
10
-0.718958
20
-0.399583
0
VERTEX
8
0
10
-0.720417
20
-0.398125
0
VERTEX
8
0
10
-0.721875
20
-0.398125
0
VERTEX
8
0
10
-0.723333
20
-0.398125
0
VERTEX
8
0
10
-0.724792
20
-0.396667
0
VERTEX
8
0
10
-0.726250
20
-0.396667
0
VERTEX
8
0
10
-0.727708
20
-0.396667
0
VERTEX
8
0
10
-0.729167
20
-0.395208
0
VERTEX
8
0
10
-0.730625
20
-0.395208
0
VERTEX
8
0
10
-0.732083
20
-0.395208
0
VERTEX
8
0
10
-0.733542
20
-0.393750
0
VERTEX
8
0
10
-0.735000
20
-0.393750
0
VERTEX
8
0
10
-0.736458
20
-0.392292
0
VERTEX
8
0
10
-0.737917
20
-0.392292
0
VERTEX
8
0
10
-0.739375
20
-0.392292
0
VERTEX
8
0
10
-0.740833
20
-0.390833
0
VERTEX
8
0
10
-0.742292
20
-0.390833
0
VERTEX
8
0
10
-0.743750
20
-0.390833
0
VERTEX
8
0
10
-0.745208
20
-0.389375
0
VERTEX
8
0
10
-0.746667
20
-0.389375
0
VERTEX
8
0
10
-0.748125
20
-0.389375
0
VERTEX
8
0
10
-0.749583
20
-0.387917
0
VERTEX
8
0
10
-0.751042
20
-0.387917
0
VERTEX
8
0
10
-0.752500
20
-0.387917
0
VERTEX
8
0
10
-0.753958
20
-0.386458
0
VERTEX
8
0
10
-0.755417
20
-0.386458
0
VERTEX
8
0
10
-0.756875
20
-0.386458
0
VERTEX
8
0
10
-0.758333
20
-0.385000
0
VERTEX
8
0
10
-0.759792
20
-0.385000
0
VERTEX
8
0
10
-0.761250
20
-0.385000
0
VERTEX
8
0
10
-0.762708
20
-0.383542
0
VERTEX
8
0
10
-0.764167
20
-0.383542
0
VERTEX
8
0
10
-0.765625
20
-0.383542
0
VERTEX
8
0
10
-0.767083
20
-0.382083
0
VERTEX
8
0
10
-0.768542
20
-0.382083
0
VERTEX
8
0
10
-0.770000
20
-0.382083
0
VERTEX
8
0
10
-0.771458
20
-0.380625
0
VERTEX
8
0
10
-0.772917
20
-0.380625
0
VERTEX
8
0
10
-0.774375
20
-0.379167
0
VERTEX
8
0
10
-0.775833
20
-0.379167
0
VERTEX
8
0
10
-0.777292
20
-0.379167
0
VERTEX
8
0
10
-0.778750
20
-0.377708
0
VERTEX
8
0
10
-0.780208
20
-0.377708
0
VERTEX
8
0
10
-0.781667
20
-0.377708
0
VERTEX
8
0
10
-0.783125
20
-0.376250
0
VERTEX
8
0
10
-0.784583
20
-0.376250
0
VERTEX
8
0
10
-0.786042
20
-0.376250
0
VERTEX
8
0
10
-0.787500
20
-0.374792
0
VERTEX
8
0
10
-0.788958
20
-0.374792
0
VERTEX
8
0
10
-0.790417
20
-0.374792
0
VERTEX
8
0
10
-0.791875
20
-0.373333
0
VERTEX
8
0
10
-0.793333
20
-0.373333
0
VERTEX
8
0
10
-0.794792
20
-0.373333
0
VERTEX
8
0
10
-0.796250
20
-0.371875
0
VERTEX
8
0
10
-0.797708
20
-0.371875
0
VERTEX
8
0
10
-0.799167
20
-0.370417
0
VERTEX
8
0
10
-0.800625
20
-0.370417
0
VERTEX
8
0
10
-0.802083
20
-0.370417
0
VERTEX
8
0
10
-0.803542
20
-0.368958
0
VERTEX
8
0
10
-0.805000
20
-0.368958
0
VERTEX
8
0
10
-0.806458
20
-0.368958
0
VERTEX
8
0
10
-0.807917
20
-0.367500
0
VERTEX
8
0
10
-0.809375
20
-0.367500
0
VERTEX
8
0
10
-0.810833
20
-0.367500
0
VERTEX
8
0
10
-0.812292
20
-0.366042
0
VERTEX
8
0
10
-0.813750
20
-0.366042
0
VERTEX
8
0
10
-0.815208
20
-0.366042
0
VERTEX
8
0
10
-0.816667
20
-0.364583
0
VERTEX
8
0
10
-0.818125
20
-0.364583
0
VERTEX
8
0
10
-0.819583
20
-0.364583
0
VERTEX
8
0
10
-0.821042
20
-0.363125
0
VERTEX
8
0
10
-0.822500
20
-0.363125
0
VERTEX
8
0
10
-0.823958
20
-0.363125
0
VERTEX
8
0
10
-0.825417
20
-0.361667
0
VERTEX
8
0
10
-0.826875
20
-0.361667
0
VERTEX
8
0
10
-0.828333
20
-0.361667
0
VERTEX
8
0
10
-0.829792
20
-0.360208
0
VERTEX
8
0
10
-0.831250
20
-0.360208
0
VERTEX
8
0
10
-0.832708
20
-0.360208
0
VERTEX
8
0
10
-0.834167
20
-0.358750
0
VERTEX
8
0
10
-0.835625
20
-0.358750
0
VERTEX
8
0
10
-0.837083
20
-0.358750
0
VERTEX
8
0
10
-0.838542
20
-0.357292
0
VERTEX
8
0
10
-0.840000
20
-0.357292
0
VERTEX
8
0
10
-0.841458
20
-0.355833
0
VERTEX
8
0
10
-0.842917
20
-0.355833
0
VERTEX
8
0
10
-0.844375
20
-0.355833
0
VERTEX
8
0
10
-0.845833
20
-0.354375
0
VERTEX
8
0
10
-0.847292
20
-0.354375
0
VERTEX
8
0
10
-0.848750
20
-0.354375
0
VERTEX
8
0
10
-0.850208
20
-0.352917
0
VERTEX
8
0
10
-0.851667
20
-0.352917
0
VERTEX
8
0
10
-0.853125
20
-0.352917
0
VERTEX
8
0
10
-0.854583
20
-0.351458
0
VERTEX
8
0
10
-0.856042
20
-0.351458
0
VERTEX
8
0
10
-0.857500
20
-0.351458
0
VERTEX
8
0
10
-0.858958
20
-0.350000
0
VERTEX
8
0
10
-0.860417
20
-0.350000
0
VERTEX
8
0
10
-0.861875
20
-0.350000
0
VERTEX
8
0
10
-0.863333
20
-0.348542
0
VERTEX
8
0
10
-0.864792
20
-0.348542
0
VERTEX
8
0
10
-0.866250
20
-0.347083
0
VERTEX
8
0
10
-0.867708
20
-0.347083
0
VERTEX
8
0
10
-0.869167
20
-0.347083
0
VERTEX
8
0
10
-0.870625
20
-0.345625
0
VERTEX
8
0
10
-0.872083
20
-0.345625
0
VERTEX
8
0
10
-0.873542
20
-0.344167
0
VERTEX
8
0
10
-0.875000
20
-0.344167
0
VERTEX
8
0
10
-0.876458
20
-0.344167
0
VERTEX
8
0
10
-0.877917
20
-0.342708
0
VERTEX
8
0
10
-0.879375
20
-0.342708
0
VERTEX
8
0
10
-0.880833
20
-0.341250
0
VERTEX
8
0
10
-0.882292
20
-0.341250
0
VERTEX
8
0
10
-0.883750
20
-0.339792
0
VERTEX
8
0
10
-0.885208
20
-0.339792
0
VERTEX
8
0
10
-0.886667
20
-0.339792
0
VERTEX
8
0
10
-0.888125
20
-0.338333
0
VERTEX
8
0
10
-0.889583
20
-0.338333
0
VERTEX
8
0
10
-0.891042
20
-0.336875
0
VERTEX
8
0
10
-0.892500
20
-0.336875
0
VERTEX
8
0
10
-0.893958
20
-0.335417
0
VERTEX
8
0
10
-0.895417
20
-0.335417
0
VERTEX
8
0
10
-0.896875
20
-0.333958
0
VERTEX
8
0
10
-0.898333
20
-0.333958
0
VERTEX
8
0
10
-0.899792
20
-0.332500
0
VERTEX
8
0
10
-0.901250
20
-0.331042
0
VERTEX
8
0
10
-0.902708
20
-0.331042
0
VERTEX
8
0
10
-0.904167
20
-0.329583
0
VERTEX
8
0
10
-0.905625
20
-0.329583
0
VERTEX
8
0
10
-0.907083
20
-0.328125
0
VERTEX
8
0
10
-0.908542
20
-0.326667
0
VERTEX
8
0
10
-0.910000
20
-0.326667
0
VERTEX
8
0
10
-0.911458
20
-0.325208
0
VERTEX
8
0
10
-0.912917
20
-0.325208
0
VERTEX
8
0
10
-0.914375
20
-0.323750
0
VERTEX
8
0
10
-0.915833
20
-0.322292
0
VERTEX
8
0
10
-0.917292
20
-0.320833
0
VERTEX
8
0
10
-0.918750
20
-0.320833
0
VERTEX
8
0
10
-0.920208
20
-0.319375
0
VERTEX
8
0
10
-0.921667
20
-0.317917
0
VERTEX
8
0
10
-0.923125
20
-0.316458
0
VERTEX
8
0
10
-0.924583
20
-0.315000
0
VERTEX
8
0
10
-0.926042
20
-0.313542
0
VERTEX
8
0
10
-0.927500
20
-0.313542
0
VERTEX
8
0
10
-0.928958
20
-0.312083
0
VERTEX
8
0
10
-0.930417
20
-0.310625
0
VERTEX
8
0
10
-0.931875
20
-0.309167
0
VERTEX
8
0
10
-0.931875
20
-0.307708
0
VERTEX
8
0
10
-0.933333
20
-0.306250
0
VERTEX
8
0
10
-0.934792
20
-0.304792
0
VERTEX
8
0
10
-0.936250
20
-0.303333
0
VERTEX
8
0
10
-0.937708
20
-0.301875
0
VERTEX
8
0
10
-0.939167
20
-0.300417
0
VERTEX
8
0
10
-0.939167
20
-0.298958
0
VERTEX
8
0
10
-0.940625
20
-0.297500
0
VERTEX
8
0
10
-0.942083
20
-0.296042
0
VERTEX
8
0
10
-0.942083
20
-0.294583
0
VERTEX
8
0
10
-0.943542
20
-0.293125
0
VERTEX
8
0
10
-0.943542
20
-0.291667
0
VERTEX
8
0
10
-0.945000
20
-0.290208
0
VERTEX
8
0
10
-0.946458
20
-0.288750
0
VERTEX
8
0
10
-0.946458
20
-0.287292
0
VERTEX
8
0
10
-0.947917
20
-0.285833
0
VERTEX
8
0
10
-0.947917
20
-0.284375
0
VERTEX
8
0
10
-0.949375
20
-0.282917
0
VERTEX
8
0
10
-0.949375
20
-0.281458
0
VERTEX
8
0
10
-0.950833
20
-0.280000
0
VERTEX
8
0
10
-0.950833
20
-0.278542
0
VERTEX
8
0
10
-0.952292
20
-0.277083
0
VERTEX
8
0
10
-0.953750
20
-0.275625
0
VERTEX
8
0
10
-0.953750
20
-0.274167
0
VERTEX
8
0
10
-0.955208
20
-0.272708
0
VERTEX
8
0
10
-0.955208
20
-0.271250
0
VERTEX
8
0
10
-0.956667
20
-0.269792
0
VERTEX
8
0
10
-0.958125
20
-0.268333
0
VERTEX
8
0
10
-0.959583
20
-0.266875
0
VERTEX
8
0
10
-0.961042
20
-0.265417
0
VERTEX
8
0
10
-0.961042
20
-0.263958
0
VERTEX
8
0
10
-0.962500
20
-0.262500
0
VERTEX
8
0
10
-0.963958
20
-0.261042
0
VERTEX
8
0
10
-0.965417
20
-0.261042
0
VERTEX
8
0
10
-0.966875
20
-0.259583
0
VERTEX
8
0
10
-0.968333
20
-0.258125
0
VERTEX
8
0
10
-0.969792
20
-0.256667
0
VERTEX
8
0
10
-0.971250
20
-0.256667
0
VERTEX
8
0
10
-0.972708
20
-0.255208
0
VERTEX
8
0
10
-0.974167
20
-0.255208
0
VERTEX
8
0
10
-0.975625
20
-0.253750
0
VERTEX
8
0
10
-0.977083
20
-0.253750
0
VERTEX
8
0
10
-0.978542
20
-0.253750
0
VERTEX
8
0
10
-0.980000
20
-0.252292
0
VERTEX
8
0
10
-0.981458
20
-0.252292
0
VERTEX
8
0
10
-0.982917
20
-0.252292
0
VERTEX
8
0
10
-0.984375
20
-0.252292
0
VERTEX
8
0
10
-0.985833
20
-0.250833
0
VERTEX
8
0
10
-0.987292
20
-0.250833
0
VERTEX
8
0
10
-0.988750
20
-0.250833
0
VERTEX
8
0
10
-0.990208
20
-0.250833
0
VERTEX
8
0
10
-0.991667
20
-0.249375
0
VERTEX
8
0
10
-0.993125
20
-0.249375
0
VERTEX
8
0
10
-0.994583
20
-0.249375
0
VERTEX
8
0
10
-0.996042
20
-0.249375
0
VERTEX
8
0
10
-0.997500
20
-0.249375
0
VERTEX
8
0
10
-0.998958
20
-0.249375
0
VERTEX
8
0
10
-1.000417
20
-0.247917
0
VERTEX
8
0
10
-1.001875
20
-0.247917
0
VERTEX
8
0
10
-1.003333
20
-0.247917
0
VERTEX
8
0
10
-1.004792
20
-0.247917
0
VERTEX
8
0
10
-1.006250
20
-0.247917
0
VERTEX
8
0
10
-1.007708
20
-0.246458
0
VERTEX
8
0
10
-1.009167
20
-0.246458
0
VERTEX
8
0
10
-1.010625
20
-0.246458
0
VERTEX
8
0
10
-1.012083
20
-0.246458
0
VERTEX
8
0
10
-1.013542
20
-0.245000
0
VERTEX
8
0
10
-1.015000
20
-0.245000
0
VERTEX
8
0
10
-1.016458
20
-0.245000
0
VERTEX
8
0
10
-1.017917
20
-0.243542
0
VERTEX
8
0
10
-1.019375
20
-0.243542
0
VERTEX
8
0
10
-1.020833
20
-0.242083
0
VERTEX
8
0
10
-1.022292
20
-0.242083
0
VERTEX
8
0
10
-1.023750
20
-0.240625
0
VERTEX
8
0
10
-1.025208
20
-0.240625
0
VERTEX
8
0
10
-1.026667
20
-0.239167
0
VERTEX
8
0
10
-1.028125
20
-0.237708
0
VERTEX
8
0
10
-1.029583
20
-0.236250
0
VERTEX
8
0
10
-1.031042
20
-0.234792
0
VERTEX
8
0
10
-1.032500
20
-0.233333
0
VERTEX
8
0
10
-1.033958
20
-0.231875
0
VERTEX
8
0
10
-1.033958
20
-0.230417
0
VERTEX
8
0
10
-1.035417
20
-0.228958
0
VERTEX
8
0
10
-1.036875
20
-0.227500
0
VERTEX
8
0
10
-1.036875
20
-0.226042
0
VERTEX
8
0
10
-1.038333
20
-0.224583
0
VERTEX
8
0
10
-1.038333
20
-0.223125
0
VERTEX
8
0
10
-1.039792
20
-0.221667
0
VERTEX
8
0
10
-1.039792
20
-0.220208
0
VERTEX
8
0
10
-1.041250
20
-0.218750
0
VERTEX
8
0
10
-1.041250
20
-0.217292
0
VERTEX
8
0
10
-1.041250
20
-0.215833
0
VERTEX
8
0
10
-1.042708
20
-0.214375
0
VERTEX
8
0
10
-1.042708
20
-0.212917
0
VERTEX
8
0
10
-1.044167
20
-0.211458
0
VERTEX
8
0
10
-1.044167
20
-0.210000
0
VERTEX
8
0
10
-1.044167
20
-0.208542
0
VERTEX
8
0
10
-1.045625
20
-0.207083
0
VERTEX
8
0
10
-1.045625
20
-0.205625
0
VERTEX
8
0
10
-1.047083
20
-0.204167
0
VERTEX
8
0
10
-1.047083
20
-0.202708
0
VERTEX
8
0
10
-1.048542
20
-0.201250
0
VERTEX
8
0
10
-1.048542
20
-0.199792
0
VERTEX
8
0
10
-1.048542
20
-0.198333
0
VERTEX
8
0
10
-1.050000
20
-0.196875
0
VERTEX
8
0
10
-1.050000
20
-0.195417
0
VERTEX
8
0
10
-1.051458
20
-0.193958
0
VERTEX
8
0
10
-1.051458
20
-0.192500
0
VERTEX
8
0
10
-1.051458
20
-0.191042
0
VERTEX
8
0
10
-1.052917
20
-0.189583
0
VERTEX
8
0
10
-1.052917
20
-0.188125
0
VERTEX
8
0
10
-1.054375
20
-0.186667
0
VERTEX
8
0
10
-1.054375
20
-0.185208
0
VERTEX
8
0
10
-1.054375
20
-0.183750
0
VERTEX
8
0
10
-1.055833
20
-0.182292
0
VERTEX
8
0
10
-1.055833
20
-0.180833
0
VERTEX
8
0
10
-1.057292
20
-0.179375
0
VERTEX
8
0
10
-1.057292
20
-0.177917
0
VERTEX
8
0
10
-1.057292
20
-0.176458
0
VERTEX
8
0
10
-1.058750
20
-0.175000
0
VERTEX
8
0
10
-1.058750
20
-0.173542
0
VERTEX
8
0
10
-1.060208
20
-0.172083
0
VERTEX
8
0
10
-1.060208
20
-0.170625
0
VERTEX
8
0
10
-1.060208
20
-0.169167
0
VERTEX
8
0
10
-1.061667
20
-0.167708
0
VERTEX
8
0
10
-1.061667
20
-0.166250
0
VERTEX
8
0
10
-1.063125
20
-0.164792
0
VERTEX
8
0
10
-1.063125
20
-0.163333
0
VERTEX
8
0
10
-1.063125
20
-0.161875
0
VERTEX
8
0
10
-1.064583
20
-0.160417
0
VERTEX
8
0
10
-1.064583
20
-0.158958
0
VERTEX
8
0
10
-1.066042
20
-0.157500
0
VERTEX
8
0
10
-1.066042
20
-0.156042
0
VERTEX
8
0
10
-1.066042
20
-0.154583
0
VERTEX
8
0
10
-1.067500
20
-0.153125
0
VERTEX
8
0
10
-1.067500
20
-0.151667
0
VERTEX
8
0
10
-1.067500
20
-0.150208
0
VERTEX
8
0
10
-1.068958
20
-0.148750
0
VERTEX
8
0
10
-1.068958
20
-0.147292
0
VERTEX
8
0
10
-1.070417
20
-0.145833
0
VERTEX
8
0
10
-1.070417
20
-0.144375
0
VERTEX
8
0
10
-1.070417
20
-0.142917
0
VERTEX
8
0
10
-1.071875
20
-0.141458
0
VERTEX
8
0
10
-1.071875
20
-0.140000
0
VERTEX
8
0
10
-1.073333
20
-0.138542
0
VERTEX
8
0
10
-1.073333
20
-0.137083
0
VERTEX
8
0
10
-1.073333
20
-0.135625
0
VERTEX
8
0
10
-1.074792
20
-0.134167
0
VERTEX
8
0
10
-1.074792
20
-0.132708
0
VERTEX
8
0
10
-1.074792
20
-0.131250
0
VERTEX
8
0
10
-1.076250
20
-0.129792
0
VERTEX
8
0
10
-1.076250
20
-0.128333
0
VERTEX
8
0
10
-1.076250
20
-0.126875
0
VERTEX
8
0
10
-1.077708
20
-0.125417
0
VERTEX
8
0
10
-1.077708
20
-0.123958
0
VERTEX
8
0
10
-1.079167
20
-0.122500
0
VERTEX
8
0
10
-1.079167
20
-0.121042
0
VERTEX
8
0
10
-1.079167
20
-0.119583
0
VERTEX
8
0
10
-1.080625
20
-0.118125
0
VERTEX
8
0
10
-1.080625
20
-0.116667
0
VERTEX
8
0
10
-1.080625
20
-0.115208
0
VERTEX
8
0
10
-1.082083
20
-0.113750
0
VERTEX
8
0
10
-1.082083
20
-0.112292
0
VERTEX
8
0
10
-1.082083
20
-0.110833
0
VERTEX
8
0
10
-1.083542
20
-0.109375
0
VERTEX
8
0
10
-1.083542
20
-0.107917
0
VERTEX
8
0
10
-1.083542
20
-0.106458
0
VERTEX
8
0
10
-1.085000
20
-0.105000
0
VERTEX
8
0
10
-1.085000
20
-0.103542
0
VERTEX
8
0
10
-1.086458
20
-0.102083
0
VERTEX
8
0
10
-1.086458
20
-0.100625
0
VERTEX
8
0
10
-1.086458
20
-0.099167
0
VERTEX
8
0
10
-1.087917
20
-0.097708
0
VERTEX
8
0
10
-1.087917
20
-0.096250
0
VERTEX
8
0
10
-1.087917
20
-0.094792
0
VERTEX
8
0
10
-1.089375
20
-0.093333
0
VERTEX
8
0
10
-1.089375
20
-0.091875
0
VERTEX
8
0
10
-1.089375
20
-0.090417
0
VERTEX
8
0
10
-1.089375
20
-0.088958
0
VERTEX
8
0
10
-1.090833
20
-0.087500
0
VERTEX
8
0
10
-1.090833
20
-0.086042
0
VERTEX
8
0
10
-1.090833
20
-0.084583
0
VERTEX
8
0
10
-1.092292
20
-0.083125
0
VERTEX
8
0
10
-1.092292
20
-0.081667
0
VERTEX
8
0
10
-1.092292
20
-0.080208
0
VERTEX
8
0
10
-1.093750
20
-0.078750
0
VERTEX
8
0
10
-1.093750
20
-0.077292
0
VERTEX
8
0
10
-1.093750
20
-0.075833
0
VERTEX
8
0
10
-1.095208
20
-0.074375
0
VERTEX
8
0
10
-1.095208
20
-0.072917
0
VERTEX
8
0
10
-1.095208
20
-0.071458
0
VERTEX
8
0
10
-1.095208
20
-0.070000
0
VERTEX
8
0
10
-1.096667
20
-0.068542
0
VERTEX
8
0
10
-1.096667
20
-0.067083
0
VERTEX
8
0
10
-1.096667
20
-0.065625
0
VERTEX
8
0
10
-1.098125
20
-0.064167
0
VERTEX
8
0
10
-1.098125
20
-0.062708
0
VERTEX
8
0
10
-1.098125
20
-0.061250
0
VERTEX
8
0
10
-1.099583
20
-0.059792
0
VERTEX
8
0
10
-1.099583
20
-0.058333
0
VERTEX
8
0
10
-1.099583
20
-0.056875
0
VERTEX
8
0
10
-1.099583
20
-0.055417
0
VERTEX
8
0
10
-1.101042
20
-0.053958
0
VERTEX
8
0
10
-1.101042
20
-0.052500
0
VERTEX
8
0
10
-1.101042
20
-0.051042
0
VERTEX
8
0
10
-1.101042
20
-0.049583
0
VERTEX
8
0
10
-1.102500
20
-0.048125
0
VERTEX
8
0
10
-1.102500
20
-0.046667
0
VERTEX
8
0
10
-1.102500
20
-0.045208
0
VERTEX
8
0
10
-1.102500
20
-0.043750
0
VERTEX
8
0
10
-1.103958
20
-0.042292
0
VERTEX
8
0
10
-1.103958
20
-0.040833
0
VERTEX
8
0
10
-1.103958
20
-0.039375
0
VERTEX
8
0
10
-1.103958
20
-0.037917
0
VERTEX
8
0
10
-1.105417
20
-0.036458
0
VERTEX
8
0
10
-1.105417
20
-0.035000
0
VERTEX
8
0
10
-1.105417
20
-0.033542
0
VERTEX
8
0
10
-1.105417
20
-0.032083
0
VERTEX
8
0
10
-1.106875
20
-0.030625
0
VERTEX
8
0
10
-1.106875
20
-0.029167
0
VERTEX
8
0
10
-1.106875
20
-0.027708
0
VERTEX
8
0
10
-1.106875
20
-0.026250
0
VERTEX
8
0
10
-1.108333
20
-0.024792
0
VERTEX
8
0
10
-1.108333
20
-0.023333
0
VERTEX
8
0
10
-1.108333
20
-0.021875
0
VERTEX
8
0
10
-1.108333
20
-0.020417
0
VERTEX
8
0
10
-1.108333
20
-0.018958
0
VERTEX
8
0
10
-1.109792
20
-0.017500
0
VERTEX
8
0
10
-1.109792
20
-0.016042
0
VERTEX
8
0
10
-1.109792
20
-0.014583
0
VERTEX
8
0
10
-1.109792
20
-0.013125
0
VERTEX
8
0
10
-1.111250
20
-0.011667
0
VERTEX
8
0
10
-1.111250
20
-0.010208
0
VERTEX
8
0
10
-1.111250
20
-0.008750
0
VERTEX
8
0
10
-1.111250
20
-0.007292
0
VERTEX
8
0
10
-1.111250
20
-0.005833
0
VERTEX
8
0
10
-1.111250
20
-0.004375
0
VERTEX
8
0
10
-1.112708
20
-0.002917
0
VERTEX
8
0
10
-1.112708
20
-0.001458
0
VERTEX
8
0
10
-1.112708
20
0.000000
0
VERTEX
8
0
10
-1.112708
20
0.001458
0
VERTEX
8
0
10
-1.112708
20
0.002917
0
VERTEX
8
0
10
-1.114167
20
0.004375
0
VERTEX
8
0
10
-1.114167
20
0.005833
0
VERTEX
8
0
10
-1.114167
20
0.007292
0
VERTEX
8
0
10
-1.114167
20
0.008750
0
VERTEX
8
0
10
-1.114167
20
0.010208
0
VERTEX
8
0
10
-1.114167
20
0.011667
0
VERTEX
8
0
10
-1.114167
20
0.013125
0
VERTEX
8
0
10
-1.115625
20
0.014583
0
VERTEX
8
0
10
-1.115625
20
0.016042
0
VERTEX
8
0
10
-1.115625
20
0.017500
0
VERTEX
8
0
10
-1.115625
20
0.018958
0
VERTEX
8
0
10
-1.115625
20
0.020417
0
VERTEX
8
0
10
-1.115625
20
0.021875
0
VERTEX
8
0
10
-1.115625
20
0.023333
0
VERTEX
8
0
10
-1.115625
20
0.024792
0
VERTEX
8
0
10
-1.117083
20
0.026250
0
VERTEX
8
0
10
-1.117083
20
0.027708
0
VERTEX
8
0
10
-1.117083
20
0.029167
0
VERTEX
8
0
10
-1.117083
20
0.030625
0
VERTEX
8
0
10
-1.117083
20
0.032083
0
VERTEX
8
0
10
-1.117083
20
0.033542
0
VERTEX
8
0
10
-1.117083
20
0.035000
0
VERTEX
8
0
10
-1.117083
20
0.036458
0
VERTEX
8
0
10
-1.118542
20
0.037917
0
VERTEX
8
0
10
-1.118542
20
0.039375
0
VERTEX
8
0
10
-1.118542
20
0.040833
0
VERTEX
8
0
10
-1.118542
20
0.042292
0
VERTEX
8
0
10
-1.118542
20
0.043750
0
VERTEX
8
0
10
-1.118542
20
0.045208
0
VERTEX
8
0
10
-1.118542
20
0.046667
0
VERTEX
8
0
10
-1.118542
20
0.048125
0
VERTEX
8
0
10
-1.118542
20
0.049583
0
VERTEX
8
0
10
-1.118542
20
0.051042
0
VERTEX
8
0
10
-1.118542
20
0.052500
0
VERTEX
8
0
10
-1.118542
20
0.053958
0
VERTEX
8
0
10
-1.118542
20
0.055417
0
VERTEX
8
0
10
-1.118542
20
0.056875
0
VERTEX
8
0
10
-1.118542
20
0.058333
0
VERTEX
8
0
10
-1.118542
20
0.059792
0
VERTEX
8
0
10
-1.118542
20
0.061250
0
VERTEX
8
0
10
-1.118542
20
0.062708
0
VERTEX
8
0
10
-1.120000
20
0.064167
0
VERTEX
8
0
10
-1.120000
20
0.065625
0
VERTEX
8
0
10
-1.120000
20
0.067083
0
VERTEX
8
0
10
-1.120000
20
0.068542
0
VERTEX
8
0
10
-1.120000
20
0.070000
0
VERTEX
8
0
10
-1.120000
20
0.071458
0
VERTEX
8
0
10
-1.120000
20
0.072917
0
VERTEX
8
0
10
-1.120000
20
0.074375
0
VERTEX
8
0
10
-1.120000
20
0.075833
0
VERTEX
8
0
10
-1.120000
20
0.077292
0
VERTEX
8
0
10
-1.120000
20
0.078750
0
VERTEX
8
0
10
-1.120000
20
0.080208
0
VERTEX
8
0
10
-1.120000
20
0.081667
0
VERTEX
8
0
10
-1.120000
20
0.083125
0
VERTEX
8
0
10
-1.120000
20
0.084583
0
VERTEX
8
0
10
-1.120000
20
0.086042
0
VERTEX
8
0
10
-1.120000
20
0.087500
0
VERTEX
8
0
10
-1.120000
20
0.088958
0
VERTEX
8
0
10
-1.118542
20
0.090417
0
VERTEX
8
0
10
-1.118542
20
0.091875
0
VERTEX
8
0
10
-1.118542
20
0.093333
0
VERTEX
8
0
10
-1.118542
20
0.094792
0
VERTEX
8
0
10
-1.118542
20
0.096250
0
VERTEX
8
0
10
-1.118542
20
0.097708
0
VERTEX
8
0
10
-1.118542
20
0.099167
0
VERTEX
8
0
10
-1.118542
20
0.100625
0
VERTEX
8
0
10
-1.118542
20
0.102083
0
VERTEX
8
0
10
-1.118542
20
0.103542
0
VERTEX
8
0
10
-1.118542
20
0.105000
0
VERTEX
8
0
10
-1.118542
20
0.106458
0
VERTEX
8
0
10
-1.118542
20
0.107917
0
VERTEX
8
0
10
-1.118542
20
0.109375
0
VERTEX
8
0
10
-1.118542
20
0.110833
0
VERTEX
8
0
10
-1.118542
20
0.112292
0
VERTEX
8
0
10
-1.118542
20
0.113750
0
VERTEX
8
0
10
-1.117083
20
0.115208
0
VERTEX
8
0
10
-1.117083
20
0.116667
0
VERTEX
8
0
10
-1.117083
20
0.118125
0
VERTEX
8
0
10
-1.117083
20
0.119583
0
VERTEX
8
0
10
-1.117083
20
0.121042
0
VERTEX
8
0
10
-1.117083
20
0.122500
0
VERTEX
8
0
10
-1.117083
20
0.123958
0
VERTEX
8
0
10
-1.117083
20
0.125417
0
VERTEX
8
0
10
-1.117083
20
0.126875
0
VERTEX
8
0
10
-1.117083
20
0.128333
0
VERTEX
8
0
10
-1.117083
20
0.129792
0
VERTEX
8
0
10
-1.117083
20
0.131250
0
VERTEX
8
0
10
-1.115625
20
0.132708
0
VERTEX
8
0
10
-1.115625
20
0.134167
0
VERTEX
8
0
10
-1.115625
20
0.135625
0
VERTEX
8
0
10
-1.115625
20
0.137083
0
VERTEX
8
0
10
-1.115625
20
0.138542
0
VERTEX
8
0
10
-1.115625
20
0.140000
0
VERTEX
8
0
10
-1.115625
20
0.141458
0
VERTEX
8
0
10
-1.115625
20
0.142917
0
VERTEX
8
0
10
-1.115625
20
0.144375
0
VERTEX
8
0
10
-1.115625
20
0.145833
0
VERTEX
8
0
10
-1.115625
20
0.147292
0
VERTEX
8
0
10
-1.115625
20
0.148750
0
VERTEX
8
0
10
-1.115625
20
0.150208
0
VERTEX
8
0
10
-1.115625
20
0.151667
0
VERTEX
8
0
10
-1.115625
20
0.153125
0
VERTEX
8
0
10
-1.115625
20
0.154583
0
VERTEX
8
0
10
-1.115625
20
0.156042
0
VERTEX
8
0
10
-1.115625
20
0.157500
0
VERTEX
8
0
10
-1.117083
20
0.158958
0
VERTEX
8
0
10
-1.117083
20
0.160417
0
VERTEX
8
0
10
-1.117083
20
0.161875
0
VERTEX
8
0
10
-1.117083
20
0.163333
0
VERTEX
8
0
10
-1.117083
20
0.164792
0
VERTEX
8
0
10
-1.117083
20
0.166250
0
VERTEX
8
0
10
-1.117083
20
0.167708
0
VERTEX
8
0
10
-1.117083
20
0.169167
0
VERTEX
8
0
10
-1.118542
20
0.170625
0
VERTEX
8
0
10
-1.118542
20
0.172083
0
VERTEX
8
0
10
-1.118542
20
0.173542
0
VERTEX
8
0
10
-1.118542
20
0.175000
0
VERTEX
8
0
10
-1.118542
20
0.176458
0
VERTEX
8
0
10
-1.120000
20
0.177917
0
VERTEX
8
0
10
-1.120000
20
0.179375
0
VERTEX
8
0
10
-1.120000
20
0.180833
0
VERTEX
8
0
10
-1.120000
20
0.182292
0
VERTEX
8
0
10
-1.120000
20
0.183750
0
VERTEX
8
0
10
-1.121458
20
0.185208
0
VERTEX
8
0
10
-1.121458
20
0.186667
0
VERTEX
8
0
10
-1.121458
20
0.188125
0
VERTEX
8
0
10
-1.121458
20
0.189583
0
VERTEX
8
0
10
-1.122917
20
0.191042
0
VERTEX
8
0
10
-1.122917
20
0.192500
0
VERTEX
8
0
10
-1.122917
20
0.193958
0
VERTEX
8
0
10
-1.122917
20
0.195417
0
VERTEX
8
0
10
-1.124375
20
0.196875
0
VERTEX
8
0
10
-1.124375
20
0.198333
0
VERTEX
8
0
10
-1.124375
20
0.199792
0
VERTEX
8
0
10
-1.124375
20
0.201250
0
VERTEX
8
0
10
-1.125833
20
0.202708
0
VERTEX
8
0
10
-1.125833
20
0.204167
0
VERTEX
8
0
10
-1.125833
20
0.205625
0
VERTEX
8
0
10
-1.125833
20
0.207083
0
VERTEX
8
0
10
-1.125833
20
0.208542
0
VERTEX
8
0
10
-1.127292
20
0.210000
0
VERTEX
8
0
10
-1.127292
20
0.211458
0
VERTEX
8
0
10
-1.127292
20
0.212917
0
VERTEX
8
0
10
-1.127292
20
0.214375
0
VERTEX
8
0
10
-1.127292
20
0.215833
0
VERTEX
8
0
10
-1.127292
20
0.217292
0
VERTEX
8
0
10
-1.128750
20
0.218750
0
VERTEX
8
0
10
-1.128750
20
0.220208
0
VERTEX
8
0
10
-1.128750
20
0.221667
0
VERTEX
8
0
10
-1.128750
20
0.223125
0
VERTEX
8
0
10
-1.128750
20
0.224583
0
VERTEX
8
0
10
-1.128750
20
0.226042
0
VERTEX
8
0
10
-1.128750
20
0.227500
0
VERTEX
8
0
10
-1.128750
20
0.228958
0
VERTEX
8
0
10
-1.128750
20
0.230417
0
VERTEX
8
0
10
-1.128750
20
0.231875
0
VERTEX
8
0
10
-1.128750
20
0.233333
0
VERTEX
8
0
10
-1.128750
20
0.234792
0
VERTEX
8
0
10
-1.128750
20
0.236250
0
VERTEX
8
0
10
-1.128750
20
0.237708
0
VERTEX
8
0
10
-1.128750
20
0.239167
0
VERTEX
8
0
10
-1.128750
20
0.240625
0
VERTEX
8
0
10
-1.128750
20
0.242083
0
VERTEX
8
0
10
-1.128750
20
0.243542
0
VERTEX
8
0
10
-1.128750
20
0.245000
0
VERTEX
8
0
10
-1.128750
20
0.246458
0
SEQEND
0
ENDSEC
0
EOF
