0
SECTION
2
HEADER
0
ENDSEC
0
SECTION
2
TABLES
0
ENDSEC
0
SECTION
2
BLOCKS
0
ENDSEC
0
SECTION
2
ENTITIES
0
POLYLINE
8
0
66
1
0
VERTEX
8
0
10
-1.128750
20
0.246458
0
VERTEX
8
0
10
-1.122917
20
0.266875
0
VERTEX
8
0
10
-1.093750
20
0.319375
0
VERTEX
8
0
10
-1.086458
20
0.344167
0
VERTEX
8
0
10
-1.085000
20
0.386458
0
VERTEX
8
0
10
-1.093750
20
0.491458
0
VERTEX
8
0
10
-1.092292
20
0.526458
0
VERTEX
8
0
10
-1.082083
20
0.530833
0
VERTEX
8
0
10
-1.033958
20
0.519167
0
VERTEX
8
0
10
-1.015000
20
0.519167
0
VERTEX
8
0
10
-1.004792
20
0.526458
0
VERTEX
8
0
10
-0.991667
20
0.552708
0
VERTEX
8
0
10
-0.982917
20
0.561458
0
VERTEX
8
0
10
-0.963958
20
0.568750
0
VERTEX
8
0
10
-0.928958
20
0.565833
0
VERTEX
8
0
10
-0.840000
20
0.533750
0
VERTEX
8
0
10
-0.756875
20
0.522083
0
VERTEX
8
0
10
-0.635833
20
0.513333
0
VERTEX
8
0
10
-0.501667
20
0.514792
0
VERTEX
8
0
10
-0.364583
20
0.525000
0
VERTEX
8
0
10
-0.294583
20
0.525000
0
VERTEX
8
0
10
-0.156042
20
0.514792
0
VERTEX
8
0
10
-0.123958
20
0.519167
0
VERTEX
8
0
10
-0.056875
20
0.538125
0
VERTEX
8
0
10
-0.014583
20
0.543958
0
VERTEX
8
0
10
0.177917
20
0.541042
0
VERTEX
8
0
10
0.212917
20
0.548333
0
VERTEX
8
0
10
0.253750
20
0.564375
0
VERTEX
8
0
10
0.261042
20
0.554167
0
VERTEX
8
0
10
0.259583
20
0.535208
0
VERTEX
8
0
10
0.246458
20
0.513333
0
VERTEX
8
0
10
0.214375
20
0.481250
0
VERTEX
8
0
10
0.210000
20
0.472500
0
VERTEX
8
0
10
0.211458
20
0.455000
0
VERTEX
8
0
10
0.258125
20
0.466667
0
VERTEX
8
0
10
0.300417
20
0.495833
0
VERTEX
8
0
10
0.313542
20
0.476875
0
VERTEX
8
0
10
0.329583
20
0.471042
0
VERTEX
8
0
10
0.355833
20
0.472500
0
VERTEX
8
0
10
0.415625
20
0.497292
0
VERTEX
8
0
10
0.446250
20
0.494375
0
VERTEX
8
0
10
0.473958
20
0.473958
0
VERTEX
8
0
10
0.510417
20
0.436042
0
VERTEX
8
0
10
0.557083
20
0.367500
0
VERTEX
8
0
10
0.573125
20
0.328125
0
VERTEX
8
0
10
0.574583
20
0.288750
0
VERTEX
8
0
10
0.580417
20
0.269792
0
VERTEX
8
0
10
0.600833
20
0.252292
0
VERTEX
8
0
10
0.631458
20
0.249375
0
VERTEX
8
0
10
0.651875
20
0.258125
0
VERTEX
8
0
10
0.675208
20
0.280000
0
VERTEX
8
0
10
0.726250
20
0.370417
0
VERTEX
8
0
10
0.742292
20
0.386458
0
VERTEX
8
0
10
0.780208
20
0.409792
0
VERTEX
8
0
10
0.797708
20
0.427292
0
VERTEX
8
0
10
0.822500
20
0.495833
0
VERTEX
8
0
10
0.834167
20
0.516250
0
VERTEX
8
0
10
0.858958
20
0.535208
0
VERTEX
8
0
10
0.914375
20
0.551250
0
VERTEX
8
0
10
0.939167
20
0.562917
0
VERTEX
8
0
10
0.965417
20
0.581875
0
VERTEX
8
0
10
0.987292
20
0.605208
0
VERTEX
8
0
10
0.998958
20
0.624167
0
VERTEX
8
0
10
1.003333
20
0.640208
0
VERTEX
8
0
10
0.996042
20
0.704375
0
VERTEX
8
0
10
1.003333
20
0.721875
0
VERTEX
8
0
10
1.015000
20
0.733542
0
VERTEX
8
0
10
1.029583
20
0.739375
0
VERTEX
8
0
10
1.044167
20
0.739375
0
VERTEX
8
0
10
1.068958
20
0.729167
0
VERTEX
8
0
10
1.095208
20
0.683958
0
VERTEX
8
0
10
1.117083
20
0.660625
0
VERTEX
8
0
10
1.130208
20
0.638750
0
VERTEX
8
0
10
1.127292
20
0.615417
0
VERTEX
8
0
10
1.051458
20
0.526458
0
VERTEX
8
0
10
1.035417
20
0.491458
0
VERTEX
8
0
10
1.036875
20
0.472500
0
VERTEX
8
0
10
1.044167
20
0.457917
0
VERTEX
8
0
10
1.060208
20
0.446250
0
VERTEX
8
0
10
1.087917
20
0.440417
0
VERTEX
8
0
10
1.095208
20
0.424375
0
VERTEX
8
0
10
1.093750
20
0.412708
0
VERTEX
8
0
10
1.085000
20
0.399583
0
VERTEX
8
0
10
1.028125
20
0.357292
0
VERTEX
8
0
10
0.988750
20
0.310625
0
VERTEX
8
0
10
0.969792
20
0.262500
0
VERTEX
8
0
10
0.969792
20
0.183750
0
VERTEX
8
0
10
0.963958
20
0.142917
0
VERTEX
8
0
10
0.955208
20
0.125417
0
VERTEX
8
0
10
0.931875
20
0.144375
0
VERTEX
8
0
10
0.927500
20
0.144375
0
VERTEX
8
0
10
0.924583
20
0.137083
0
VERTEX
8
0
10
0.927500
20
0.107917
0
VERTEX
8
0
10
0.961042
20
0.045208
0
VERTEX
8
0
10
0.968333
20
0.016042
0
VERTEX
8
0
10
0.968333
20
-0.013125
0
VERTEX
8
0
10
0.956667
20
-0.056875
0
VERTEX
8
0
10
0.927500
20
-0.107917
0
VERTEX
8
0
10
0.838542
20
-0.211458
0
VERTEX
8
0
10
0.821042
20
-0.240625
0
VERTEX
8
0
10
0.813750
20
-0.265417
0
VERTEX
8
0
10
0.815208
20
-0.306250
0
VERTEX
8
0
10
0.832708
20
-0.352917
0
VERTEX
8
0
10
0.857500
20
-0.392292
0
VERTEX
8
0
10
0.920208
20
-0.473958
0
VERTEX
8
0
10
0.943542
20
-0.520625
0
VERTEX
8
0
10
0.953750
20
-0.560000
0
VERTEX
8
0
10
0.953750
20
-0.586250
0
VERTEX
8
0
10
0.949375
20
-0.605208
0
VERTEX
8
0
10
0.937708
20
-0.627083
0
VERTEX
8
0
10
0.840000
20
-0.552708
0
VERTEX
8
0
10
0.812292
20
-0.526458
0
VERTEX
8
0
10
0.802083
20
-0.508958
0
VERTEX
8
0
10
0.783125
20
-0.444792
0
VERTEX
8
0
10
0.756875
20
-0.418542
0
VERTEX
8
0
10
0.733542
20
-0.408333
0
VERTEX
8
0
10
0.705833
20
-0.405417
0
VERTEX
8
0
10
0.682500
20
-0.411250
0
VERTEX
8
0
10
0.654792
20
-0.427292
0
VERTEX
8
0
10
0.638750
20
-0.427292
0
VERTEX
8
0
10
0.592083
20
-0.409792
0
VERTEX
8
0
10
0.541042
20
-0.402500
0
VERTEX
8
0
10
0.500208
20
-0.414167
0
VERTEX
8
0
10
0.476875
20
-0.436042
0
VERTEX
8
0
10
0.463750
20
-0.469583
0
VERTEX
8
0
10
0.471042
20
-0.498750
0
VERTEX
8
0
10
0.456458
20
-0.508958
0
VERTEX
8
0
10
0.414167
20
-0.516250
0
VERTEX
8
0
10
0.342708
20
-0.506042
0
VERTEX
8
0
10
0.300417
20
-0.507500
0
VERTEX
8
0
10
0.245000
20
-0.523542
0
VERTEX
8
0
10
0.188125
20
-0.554167
0
VERTEX
8
0
10
0.126875
20
-0.599375
0
VERTEX
8
0
10
0.103542
20
-0.625625
0
VERTEX
8
0
10
0.096250
20
-0.644583
0
VERTEX
8
0
10
0.096250
20
-0.700000
0
VERTEX
8
0
10
0.087500
20
-0.720417
0
VERTEX
8
0
10
0.070000
20
-0.735000
0
VERTEX
8
0
10
0.052500
20
-0.740833
0
VERTEX
8
0
10
0.017500
20
-0.736458
0
VERTEX
8
0
10
-0.002917
20
-0.724792
0
VERTEX
8
0
10
-0.024792
20
-0.702917
0
VERTEX
8
0
10
-0.075833
20
-0.612500
0
VERTEX
8
0
10
-0.102083
20
-0.583333
0
VERTEX
8
0
10
-0.123958
20
-0.568750
0
VERTEX
8
0
10
-0.147292
20
-0.561458
0
VERTEX
8
0
10
-0.163333
20
-0.561458
0
VERTEX
8
0
10
-0.205625
20
-0.581875
0
VERTEX
8
0
10
-0.217292
20
-0.584792
0
VERTEX
8
0
10
-0.239167
20
-0.581875
0
VERTEX
8
0
10
-0.268333
20
-0.564375
0
VERTEX
8
0
10
-0.335417
20
-0.498750
0
VERTEX
8
0
10
-0.390833
20
-0.465208
0
VERTEX
8
0
10
-0.431667
20
-0.450625
0
VERTEX
8
0
10
-0.469583
20
-0.443333
0
VERTEX
8
0
10
-0.592083
20
-0.441875
0
VERTEX
8
0
10
-0.861875
20
-0.350000
0
VERTEX
8
0
10
-0.898333
20
-0.333958
0
VERTEX
8
0
10
-0.927500
20
-0.313542
0
VERTEX
8
0
10
-0.955208
20
-0.271250
0
VERTEX
8
0
10
-0.969792
20
-0.256667
0
VERTEX
8
0
10
-1.025208
20
-0.240625
0
VERTEX
8
0
10
-1.041250
20
-0.218750
0
VERTEX
8
0
10
-1.073333
20
-0.138542
0
VERTEX
8
0
10
-1.111250
20
-0.011667
0
VERTEX
8
0
10
-1.120000
20
0.064167
0
VERTEX
8
0
10
-1.115625
20
0.157500
0
VERTEX
8
0
10
-1.128750
20
0.218750
0
VERTEX
8
0
10
-1.128750
20
0.246458
0
SEQEND
0
ENDSEC
0
EOF
